<?xml version='1.0' encoding='utf-8'?>
<svg xmlns="http://www.w3.org/2000/svg" id="Calque_2" data-name="Calque 2" viewBox="0 0 474.82997 329.8491"><defs><style>.cls-1{stroke:#000;stroke-miterlimit:10;}</style></defs><title>accordeÌon</title><path d="M436.26259,182.55351c.35751-.64494,1.06347-1.91855,1.93347-3.488l4.78415,1.79592c.87576-1.51656,1.72809-2.99254,2.72934-4.72638l4.363,2.207c.934-1.57451,1.78869-3.01536,2.80676-4.73158l4.84851,2.30379c.87353-3.74382,2.2233-6.64342,6.2919-2.84465,1.24-1.73269,2.15765-3.01477,3.27411-4.57471a21.46512,21.46512,0,0,1,3.40808,1.82428c.80627.63544,2.02631,2.00645,1.81683,2.41865a5.34975,5.34975,0,0,1-2.69479,2.314c-6.65936,2.55521-13.36276,4.99791-20.07785,7.4045-2.90039,1.03947-5.89041,1.82922-8.78854,2.87435-1.85135.66767-3.54413,1.97461-5.4274,2.29641a10.23324,10.23324,0,0,1-5.48349-.71813c-.428-.18249-.30493-3.72952.45211-4.15593C431.78569,182.0282,433.7766,182.55351,436.26259,182.55351Z" transform="translate(-27.59805 -47.90196)"/><path d="M431.52684,193.78587c.35751-.64494,1.06347-1.91854,1.93347-3.488,1.6409.616,3.101,1.16407,4.78415,1.79591.87576-1.51656,1.72809-2.99254,2.72934-4.72638l4.363,2.207c.934-1.57451,1.7887-3.01537,2.80677-4.73159l4.84851,2.30379c.87353-3.74382,2.22329-6.64342,6.2919-2.84465,1.24-1.73268,2.15765-3.01477,3.27411-4.57471a21.46512,21.46512,0,0,1,3.40808,1.82428c.80627.63544,2.0263,2.00646,1.81683,2.41866a5.34982,5.34982,0,0,1-2.69479,2.314c-6.65937,2.55521-13.36276,4.99791-20.07785,7.4045-2.90039,1.03947-5.89041,1.82922-8.78855,2.87436-1.85135.66766-3.54412,1.97461-5.4274,2.2964a10.23325,10.23325,0,0,1-5.48349-.71812c-.428-.1825-.30493-3.72953.45212-4.15593C427.04994,193.26056,429.04084,193.78587,431.52684,193.78587Z" transform="translate(-27.59805 -47.90196)"/><path d="M428.59978,204.90869c.35751-.64494,1.06348-1.91855,1.93347-3.488,1.6409.616,3.101,1.16407,4.78415,1.79591.87576-1.51656,1.72809-2.99254,2.72934-4.72638l4.363,2.207c.934-1.57451,1.78869-3.01537,2.80676-4.73159l4.84851,2.30379c.87353-3.74382,2.2233-6.64342,6.2919-2.84465,1.24-1.73268,2.15765-3.01477,3.27411-4.57471a21.46512,21.46512,0,0,1,3.40808,1.82428c.80627.63544,2.02631,2.00646,1.81683,2.41866a5.34978,5.34978,0,0,1-2.69479,2.314c-6.65936,2.55521-13.36276,4.99791-20.07785,7.4045-2.90039,1.03947-5.89041,1.82922-8.78854,2.87436-1.85135.66766-3.54413,1.97461-5.4274,2.2964a10.23333,10.23333,0,0,1-5.48349-.71812c-.428-.1825-.30493-3.72953.45212-4.15593C424.12288,204.38338,426.11379,204.90869,428.59978,204.90869Z" transform="translate(-27.59805 -47.90196)"/><path d="M422.74566,217.20234c.35752-.64495,1.06348-1.91855,1.93347-3.488l4.78415,1.79591c.87577-1.51655,1.72809-2.99254,2.72934-4.72638l4.363,2.207c.934-1.57451,1.7887-3.01537,2.80676-4.73158l4.84851,2.30378c.87354-3.74382,2.2233-6.64342,6.2919-2.84465,1.24006-1.73268,2.15766-3.01477,3.27411-4.57471a21.46549,21.46549,0,0,1,3.40808,1.82428c.80628.63544,2.02631,2.00646,1.81684,2.41866a5.34987,5.34987,0,0,1-2.6948,2.314c-6.65936,2.5552-13.36276,4.99791-20.07785,7.40449-2.90039,1.03948-5.89041,1.82922-8.78854,2.87436-1.85135.66766-3.54413,1.97461-5.4274,2.2964a10.23325,10.23325,0,0,1-5.48349-.71812c-.428-.1825-.30493-3.72952.45212-4.15593C418.26876,216.677,420.25967,217.20234,422.74566,217.20234Z" transform="translate(-27.59805 -47.90196)"/><path d="M416.89155,228.91057c.35751-.64495,1.06347-1.91855,1.93347-3.488l4.78415,1.79591c.87576-1.51655,1.72809-2.99254,2.72934-4.72638l4.363,2.207c.934-1.57451,1.78869-3.01537,2.80676-4.73158l4.84851,2.30378c.87353-3.74382,2.2233-6.64341,6.2919-2.84465,1.24-1.73268,2.15765-3.01477,3.27411-4.5747a21.46431,21.46431,0,0,1,3.40808,1.82428c.80627.63543,2.02631,2.00645,1.81683,2.41865a5.34984,5.34984,0,0,1-2.69479,2.314c-6.65936,2.5552-13.36276,4.99791-20.07785,7.40449-2.90039,1.03948-5.89041,1.82923-8.78855,2.87436-1.85134.66766-3.54412,1.97461-5.42739,2.2964a10.23323,10.23323,0,0,1-5.48349-.71812c-.428-.1825-.30494-3.72952.45211-4.15593C412.41465,228.38525,414.40556,228.91057,416.89155,228.91057Z" transform="translate(-27.59805 -47.90196)"/><path d="M412.20826,240.6188c.35751-.64495,1.06347-1.91855,1.93347-3.488l4.78415,1.79591c.87576-1.51655,1.72808-2.99253,2.72934-4.72638l4.363,2.207c.934-1.57451,1.7887-3.01537,2.80677-4.73158l4.84851,2.30378c.87353-3.74382,2.22329-6.64341,6.2919-2.84465,1.24-1.73268,2.15765-3.01477,3.27411-4.5747a21.46431,21.46431,0,0,1,3.40808,1.82428c.80627.63543,2.0263,2.00645,1.81683,2.41865a5.34984,5.34984,0,0,1-2.69479,2.314c-6.65937,2.5552-13.36277,4.99791-20.07785,7.40449-2.90039,1.03948-5.89042,1.82923-8.78855,2.87436-1.85135.66767-3.54413,1.97461-5.4274,2.2964a10.23325,10.23325,0,0,1-5.48349-.71812c-.428-.1825-.30493-3.72952.45212-4.15593C407.73136,240.09348,409.72226,240.6188,412.20826,240.6188Z" transform="translate(-27.59805 -47.90196)"/><path d="M405.11588,253.67563c.35751-.64494,1.06348-1.91855,1.93347-3.488l4.78415,1.79592c.87576-1.51656,1.72809-2.99254,2.72934-4.72638l4.363,2.207c.934-1.57451,1.78869-3.01536,2.80676-4.73158l4.84851,2.30379c.87353-3.74382,2.2233-6.64342,6.2919-2.84465,1.24-1.73269,2.15765-3.01477,3.27411-4.57471a21.46512,21.46512,0,0,1,3.40808,1.82428c.80627.63544,2.02631,2.00645,1.81683,2.41865a5.34975,5.34975,0,0,1-2.69479,2.314c-6.65936,2.55521-13.36276,4.99791-20.07785,7.4045-2.90039,1.03947-5.89041,1.82922-8.78854,2.87435-1.85135.66767-3.54413,1.97461-5.4274,2.29641A10.23324,10.23324,0,0,1,398.9,258.031c-.428-.18249-.30493-3.72952.45212-4.15593C400.639,253.15032,402.62989,253.67563,405.11588,253.67563Z" transform="translate(-27.59805 -47.90196)"/><path d="M400.17362,264.95285c.35751-.64494,1.06348-1.91855,1.93347-3.488,1.6409.616,3.101,1.16408,4.78415,1.79592.87576-1.51656,1.72809-2.99254,2.72934-4.72638l4.363,2.207c.934-1.57451,1.78869-3.01536,2.80676-4.73158l4.84851,2.30379c.87354-3.74382,2.2233-6.64342,6.2919-2.84465,1.24-1.73269,2.15766-3.01477,3.27411-4.57471a21.46512,21.46512,0,0,1,3.40808,1.82428c.80628.63544,2.02631,2.00645,1.81684,2.41865a5.34977,5.34977,0,0,1-2.6948,2.314c-6.65936,2.55521-13.36276,4.99791-20.07785,7.40449-2.90039,1.03948-5.89041,1.82923-8.78854,2.87436-1.85135.66767-3.54413,1.97461-5.4274,2.29641a10.23324,10.23324,0,0,1-5.48349-.71813c-.428-.18249-.30493-3.72952.45212-4.15593C395.69672,264.42753,397.68763,264.95285,400.17362,264.95285Z" transform="translate(-27.59805 -47.90196)"/><path d="M395.26981,276.63782c.35751-.64494,1.06348-1.91855,1.93347-3.488l4.78415,1.79591c.87576-1.51655,1.72809-2.99253,2.72934-4.72637l4.363,2.207c.934-1.57451,1.78869-3.01537,2.80676-4.73158l4.84851,2.30379c.87354-3.74383,2.2233-6.64342,6.2919-2.84466,1.24-1.73268,2.15766-3.01477,3.27411-4.5747a21.46512,21.46512,0,0,1,3.40808,1.82428c.80628.63543,2.02631,2.00645,1.81684,2.41865a5.34982,5.34982,0,0,1-2.6948,2.314c-6.65936,2.55521-13.36276,4.99791-20.07785,7.40449-2.90039,1.03948-5.89041,1.82923-8.78854,2.87436-1.85135.66767-3.54413,1.97461-5.4274,2.29641a10.23334,10.23334,0,0,1-5.48349-.71813c-.428-.18249-.30493-3.72952.45212-4.15593C390.79291,276.1125,392.78382,276.63782,395.26981,276.63782Z" transform="translate(-27.59805 -47.90196)"/><path d="M390.40883,287.532c.35752-.64494,1.06348-1.91855,1.93347-3.488,1.6409.616,3.101,1.16408,4.78415,1.79592.87577-1.51656,1.72809-2.99254,2.72934-4.72638l4.363,2.207,2.80676-4.73158,4.84851,2.30379c.87354-3.74382,2.2233-6.64342,6.2919-2.84465,1.24006-1.73269,2.15766-3.01477,3.27411-4.57471a21.46468,21.46468,0,0,1,3.40808,1.82428c.80628.63544,2.02631,2.00645,1.81684,2.41865a5.34977,5.34977,0,0,1-2.6948,2.314c-6.65936,2.55521-13.36276,4.99791-20.07785,7.40449-2.90039,1.03948-5.89041,1.82923-8.78854,2.87436-1.85135.66767-3.54413,1.97461-5.4274,2.29641a10.23325,10.23325,0,0,1-5.48349-.71813c-.428-.18249-.30493-3.72952.45212-4.15593C385.93193,287.00665,387.92284,287.532,390.40883,287.532Z" transform="translate(-27.59805 -47.90196)"/><path d="M387.89225,297.42612c.35751-.64494,1.06347-1.91855,1.93347-3.488l4.78415,1.79592c.87576-1.51656,1.72809-2.99254,2.72934-4.72638l4.363,2.207c.934-1.57451,1.7887-3.01536,2.80677-4.73158l4.84851,2.30379c.87353-3.74382,2.22329-6.64342,6.2919-2.84465,1.24-1.73268,2.15765-3.01477,3.27411-4.57471a21.46512,21.46512,0,0,1,3.40808,1.82428c.80627.63544,2.0263,2.00645,1.81683,2.41865a5.34979,5.34979,0,0,1-2.69479,2.314c-6.65937,2.55521-13.36276,4.99791-20.07785,7.4045-2.90039,1.03947-5.89041,1.82922-8.78855,2.87435-1.85135.66767-3.54412,1.97461-5.4274,2.29641a10.23325,10.23325,0,0,1-5.48349-.71813c-.428-.18249-.30493-3.72952.45212-4.15593C383.41535,296.90081,385.40625,297.42612,387.89225,297.42612Z" transform="translate(-27.59805 -47.90196)"/><path class="cls-1" d="M500.72969,132.4751a3.05689,3.05689,0,0,0-1.70117-.36457c-.85059.12152,1.09363-6.562-3.40259-14.82507s-13.48828-14.21753-13.48828-14.21753S455.89,87.99982,448.47743,85.08343c0,0-.6676-1.88763-4.31555-1.82977,0,0-.81061-2.54773-6.25354-2.43188,0,0,1.5055-4.8639-12.44916-3.53211,0,0,1.5055-4.806-6.42724-4.806l-6.54309-.11584s1.38971-4.806-4.92176-5.03754h-7.87487s1.8529-4.40063-8.22223-4.5744h-4.05322s.34741-3.532-7.41163-3.59H374.736s-.579-2.374-6.77472-2.48986H361.1866s-.69482-3.18464-6.543-3.30048H346.4792s-.52111-2.02661-7.18-1.91077-8.51178,0-8.51178,0,.34741-2.31616-6.7168-2.14245-11.11737-.11579-11.11737-.11579.52112-.92645-8.10644-.40533l-7.23792.11578s-.34741-.98431-7.93274-.23157l-6.42724.40534s.52112-.98438-7.29584.17371l-6.83258.98431s1.27387-1.50549-5.32709-.69482-10.42254,1.27386-10.42254,1.27386-2.41-1.16986-7.22858.03479-9.93823,2.861-9.93823,2.861-3.0116-1.05407-8.58307.6023-6.9267,2.10809-6.9267,2.10809l-8.88415.9035s-3.76453.30115-4.5174,1.95752H200.9684s-4.36682.45179-4.36682,4.5174h-3.152A6.71991,6.71991,0,0,0,187.226,58.532a56.77676,56.77676,0,0,0-5.779-.17779s-2.48944-3.912-6.40143-4.00092-14.75885,0-14.75885,0-8.0907,3.912-9.78,7.64618H119.47756s-3.73413.71124-4.00086,6.04578h7.82392s2.22271,2.31164,1.06689,4.3565c0,0-83.75549,16.83588-91.80933,20.95227,0,0-5.43536.87836-4.3056,8.109l69.89618,269.7724s.29437,6.60883,7.931,5.97241,80.92566-11.88989,82.46448-13.89978c0,0,32.17029,15.94764,53.34216,3.2995,0,0,.82489,3.84943,10.17352,1.37482s24.47138-7.42395,24.47138-7.42395,4.627,1.22211,4.89441-5.06122c0,0,4.94647,3.34223,6.95178,1.33692,0,0,4.254.09851,4.254-.9032,0,0,2.78247.66778,2.78247-.11127,0,0,3.172.0556,3.06073-.27826,0,0,5.28668-1.61383,7.3457-.38959a7.20651,7.20651,0,0,0,3.339.50086,4.91862,4.91862,0,0,0,2.9494,1.05737,3.854,3.854,0,0,0,3.1164.94605s.27826,1.113,3.22766.946c0,0-.33386,1.27991,3.83984.89038,0,0-.38952,1.33557,6.56665,1.00171s13.67285,3.95606,13.67285,3.95606l23.34,11.02765s18.84326,5.032,28.26489-4.2826l2.35541-1.606s4.71082,1.28479,5.67444-.96357,2.67657-6.95916,2.67657-6.95916,1.17774-1.606-2.56952-3.6402c0,0,27.89667-36.92548,47.95484-70.95673s27.49548-64.90729,27.49548-64.90729,9.69092-29.74914,14.87451-76.62658c0,0,1.44751-2.36731,5.822-2.00275a31.24478,31.24478,0,0,0,3.281-6.805C502.55245,133.69025,500.72969,132.4751,500.72969,132.4751ZM144.778,68.30115l-.15118,4.68634-13.1521-.30231-.15119-4.23291Zm-40.97345,302.797c-7.65014-3.95257-2.295-12.75024-2.295-12.75024-9.43518-4.9726-3.57007-13.00519-3.57007-13.00519-8.41516-2.805-3.31506-13.77026-3.31506-13.77026-7.39515-3.57007-3.31507-12.87775-3.31507-12.87775-7.77765-3.69757-3.31506-13.6427-3.31506-13.6427-8.54266-3.69757-3.06006-13.13275-3.06006-13.13275-8.28766-3.69757-3.69757-13.26025-3.69757-13.26025-8.92517-3.18757-3.82507-13.77021-3.82507-13.77021-9.30762-4.20758-3.06006-13.51526-3.06006-13.51526-9.56262-5.10009-3.31507-13.13275-3.31507-13.13275-7.65008-3.1875-4.20752-14.0252-4.20752-14.0252-8.79766-5.99262-2.67755-13.26026-2.67755-13.26026-8.28766-2.67755-3.95257-13.7702-3.95257-13.7702-9.18018-3.57007-3.31507-13.51526-3.31507-13.51526-8.79766-3.57007-3.69757-13.64276-3.69757-13.64276C45.281,166.32953,48.851,156.89441,48.851,156.89441c-7.01263-4.33508-4.08008-13.77027-4.08008-13.77027-7.26764-4.59008-3.18756-13.89776-3.18756-13.89776-7.52264-5.73755-3.44256-14.40772-3.44256-14.40772-8.92511-4.84509-2.95-14.722-2.95-14.722l77.62287-16.02045,2.47937,10.6803L65.706,105.24609l2.28864,6.86591,49.01489-10.29883,2.098,9.536L69.71108,121.648l1.71649,8.01019,50.73144-9.53595,1.71643,14.8761-47.8706,10.29889,1.52576,7.24731,48.06134-10.10809,1.71649,9.91742L80.39137,162.84344l1.90723,6.86591,47.48914-9.536,3.433,15.06683L86.4944,184.96692l1.71649,6.8659,45.77271-8.77313,2.28863,9.72669-45.7727,8.96386,1.90723,6.67517,46.917-8.9638,2.47937,9.53595-46.91706,9.536,2.098,7.81946,45.39123-8.96381,2.86078,15.06683-44.62836,8.5824,1.90717,6.86591,45.20056-8.39167,2.0979,9.72669-45.00983,8.5824,1.52576,6.8659,46.53558-8.5824,4.54981,14.92463-46.589,9.53912,1.62836,5.97076,46.95221-8.142,1.89978,9.499L114.62514,296.853l1.89978,6.51355,46.95221-8.41339,2.44263,9.499-46.40943,9.499,1.62842,6.785L168.90511,311.78l4.88519,14.65564-49.12335,9.2276,1.89978,6.785,49.12341-8.68481,2.17121,8.95623-49.12342,9.499,1.62842,6.51361,49.39478-8.95618,2.44256,7.59918ZM219.34218,61.90082c5.19446.74206,5.93652,12.615,5.93652,12.615l39.32917,209.26092L214.14778,64.127S214.14778,61.15875,219.34218,61.90082ZM199.95,66.04114l6.04382-.28778c8.34632,0,7.69184,9.61523,7.69184,9.61523L267.69338,342.734Zm28.29693-7.10858h4.4524c4.45233,0,6.67852,11.13092,6.67852,11.13092L269.0602,285.26086Zm14.84119-1.48414a80.64551,80.64551,0,0,1,9.64679-.742c4.45239,0,4.45239,10.38879,4.45239,10.38879l16.32532,189.96735Zm17.80945-3.71026,6.67859.74206c6.67853.74207,3.71026,13.35706,3.71026,13.35706l8.16266,181.06262Zm14.42059,3.46246a41.70017,41.70017,0,0,1,9.64679-1.48413c4.45239,0,2.96826,13.35712,2.96826,13.35712l.74207,172.9Zm166.27844,30.553H444.403c2.8064,0-.70166,9.12085-.70166,9.12085l-58.93493,131.9021Zm-140.565-20.98547L294.96675,253.9107l-4.332-199.27221,6.93122,1.73279C304.49715,58.10412,301.03157,66.76813,301.03157,66.76813Zm1.64691,192.87909,1.4032-206.27234a48.55566,48.55566,0,0,1,11.22571,1.4032c4.91126,1.40319,2.1048,11.9273,2.1048,11.9273Zm12.97895-1.71247L320.1006,56.51294s4.44312-2.962,8.14569-2.962,1.48108,14.06989,1.48108,14.06989Zm5.92419-8.88623L334.17049,57.994s4.44311-2.9621,8.14575-.74054-.74054,14.81042-.74054,14.81042Zm4.44312,7.40521L346.01882,63.91815s4.44311-9.62677,9.62677-5.92413-.74048,12.58886-.74048,12.58886Zm37.02606-190.314s2.22156-8.88629,7.40521-5.92419.74054,14.06988.74054,14.06988l-34.8045,166.61731ZM341.9684,241.40546,378.452,61.79413l4.20966,2.10486c4.20959,2.10479,0,12.6289,0,12.6289ZM385.468,76.52789c.7016-10.52411,9.12092-9.12091,9.12092-9.12091,4.91125,5.61286-2.10486,11.92731-2.10486,11.92731L344.07326,256.84082S384.76644,87.052,385.468,76.52789Zm15.43537-3.508a4.09042,4.09042,0,0,1,6.31445-1.4032c4.20966,2.80639-.7016,13.3305-.7016,13.3305L355.299,249.12311Zm13.3305,4.20965,5.61286-.7016c4.91125,2.8064-2.1048,13.33051-2.1048,13.33051L358.807,252.63116Zm11.92731,5.61286,6.31445-2.10486c5.61286,2.80645-1.40319,12.629-1.40319,12.629L360.91182,267.36487ZM395.8954,358.87329s-22.13293-8.58142-29.23956-13.74988-3.55328-12.92114-3.55328-12.92114S452.25844,126.11,453.87361,124.17181s8.07569-1.93817,9.3678.323,27.21106,14.24432,27.21106,14.24432Z" transform="translate(-27.59805 -47.90196)"/></svg>