<?xml version="1.0" encoding="UTF-8"?>
<svg viewBox="0 0 351.55106 925.54553" xmlns="http://www.w3.org/2000/svg">
 <g transform="translate(-221.53 -93.81)">
  <path d="m513.77 297.06-237.34 601.73c29.782 31.647 92.693 36.786 154.97 46.77l124.25-651.29-20.942-25.13-20.942 27.922z" fill="#984417" fill-rule="evenodd" stroke="#000"/>
  <g fill="#984417" fill-rule="evenodd" stroke="#000">
   <path d="m357.37 906.26c-109.42-219.77-120.44-752.25-120.44-752.25 7.1477-57.914 33.714-62.599 74.788-57.258 51.615 6.7123 111.81 83.203 130.55 128.34 18.516 44.601 61.781 42.692 75.028 25.667 26.274-33.766 51.072-15.502 53.309 19.744 1.2781 20.138 1.416 5.8425 1.9744 25.667-27.364 0.27922 0.29773 0.99137-25.667 1.9744-5.9926-19.859-23.339-9.6958-29.616 0-39.331 60.749-81.95 18.851-106.62-25.667-25.155-45.398-101.29-103.78-126.36-49.36-31.609 68.605 18.956 446.77 82.925 649.58-0.83397 10.463 0.60268 34.233-9.8721 33.565z"/>
   <path d="m274.78 94.312c-26.171 0.20002-44.742 11.467-51.812 62.469-3.2144 23.185-5.2527 495.32 120.44 752.28 9.5204 0.60677 12.662 4.0381 13.781-3.1875-109.24-220-120.25-751.88-120.25-751.88 5.7544-46.624 24.106-58.737 52.469-58.906-5.0976-0.50187-9.9837-0.81672-14.625-0.78125z"/>
  </g>
  <path d="m305.75 200.73c44.435 16.872 63.762 46.304 82.797 72.785s37.777 50.012 81.042 55.079c-51.467-20.377-44.612-45.1-74.369-78.563-24.507-27.559-55.104-51.306-89.47-49.302z" fill="#c37c4c" fill-rule="evenodd" stroke="#000"/>
  <path d="m475.09 258.46c29.204-14.156 37.685-31.509 68.17-26.442-37.495 13.915-20.126 37.597-68.17 26.442z" fill="#c37c4c" fill-rule="evenodd" stroke="#000"/>
  <path d="m536.11 299.85-177.31 607.31 61.429 26.526 124.9-625.7-9.0252-8.1372z" fill="#e89345" fill-rule="evenodd" stroke="#000"/>
  <path d="m552.86 295.66-122.04 650.01 60.611-42.701 79.579-608.71-18.15 1.3961z" fill="#984417" fill-rule="evenodd" stroke="#000"/>
  <path d="m527.72 301.26-8.375 4.1875-179.41 464.22c5.5904 23.637 11.43 46.329 17.406 67.688l170.38-536.09zm-213.97 536.12-17.781 46.031 40.5 19.562 1.6562-5.2188c-8.765-19.14-16.876-39.358-24.375-60.375z" fill="#e48f40" fill-rule="evenodd" stroke="#000"/>
  <path d="m285.51 123.24 81.962 717.69" fill="none" stroke="#000"/>
  <path d="m293.19 119.75 79.579 702.95" fill="none" stroke="#000"/>
  <path d="m300.86 117.66 78.966 683.52" fill="none" stroke="#000"/>
  <path d="m308.54 118.36 76.787 666.65" fill="none" stroke="#000"/>
  <path d="m317.33 120.37 73.994 644.31" fill="none" stroke="#000"/>
  <path d="m325.71 122.29 71.202 622.67" fill="none" stroke="#000"/>
  <path d="m333.88 126.36 69.108 601.03" fill="none" stroke="#000"/>
  <path d="m342.05 130.22 66.027 577.62" fill="none" stroke="#000"/>
  <g transform="translate(22.212 -75.521)" fill="none" stroke="#000">
   <path d="m329.58 212.27 61.739 552.41"/>
   <path d="m338.37 223.85 58.538 521.12"/>
   <path d="m347.16 234.61 55.83 492.78"/>
   <path d="m355.94 242.56 52.136 465.29"/>
  </g>
  <path d="m386.35 177.22 49.399 436.91" fill="none" stroke="#000"/>
  <path d="m394.64 187.32 46.691 407.09" fill="none" stroke="#000"/>
  <path d="m403.43 195.12 43.984 381.72" fill="none" stroke="#000"/>
  <path d="m413.9 206.54 40 345.17" fill="none" stroke="#000"/>
  <path d="m423.65 220.21 36.305 313.31" fill="none" stroke="#000"/>
  <path d="m433.42 236.52 31.623 277.46" fill="none" stroke="#000"/>
  <path d="m442.5 247.43 28.626 251.88" fill="none" stroke="#000"/>
  <path d="m451.57 261.65 24.643 218.12" fill="none" stroke="#000"/>
  <path d="m459.95 268.38 21.646 194.64" fill="none" stroke="#000"/>
  <path d="m469.02 274.91 17.662 168.56" fill="none" stroke="#000"/>
  <path d="m476.7 278.15 15.363 151.36" fill="none" stroke="#000"/>
  <path d="m483.68 283.29 13.474 126.68" fill="none" stroke="#000"/>
  <path d="m431.4 944.86c-13.678 26.412-3.2072 26.791-19.546 58.637l-2.7922 15.357 20.942-16.754c-2.7667 1.5248 1.5453-48.668 32.111-64.222 21.125-10.75 37.845 9.3247 34.903 18.15l26.526-15.357c-8.3241-10.717-17.541-0.96653-26.526-25.13l-5.5845-13.961-60.033 43.28z" fill="#984417" fill-rule="evenodd" stroke="#000"/>
  <path d="m408.37 1018.9-20.942-6.9806c-0.91989-8.4877-0.2379-14.778 6.2825-19.546 12.744-14.372 3.275-26.916 16.055-49.562l21.64 2.7922c-9.6164 15.219-5.6352 33.391-15.357 50.26-6.7005 6.2984-6.1605 15.01-7.6787 23.036z" fill="#984417" fill-rule="evenodd" stroke="#000"/>
  <path d="m244.23 945.7-10.982-4.8162c2.4602-8.1753 5.5394-13.703 13.402-15.553 17.337-8.2703 14.9-29.795 35.495-45.671l-5.5876 19.812 4.1852 1.6626c-14.787 10.269-2.8436 15.293-18.371 27.04-8.6251 3.1897-13.617 5.1407-18.142 17.525z" fill="#984417" fill-rule="evenodd" stroke="#000"/>
  <path d="m244.32 945.56 32.809-2.7922c1.0842-14.118 9.2146-22.598 19.546-29.319-7.333-2.9052-13.816-6.6607-17.452-13.263-11.593 13.554-5.4414 25.555-22.338 30.017-7.7839 2.4225-12.225 7.3517-12.565 15.357z" fill="#984417" fill-rule="evenodd" stroke="#000"/>
  <path d="m359.89 146.41 0.20446 4.3505 5.5845 0.12704s4.1072 3.6624 6.0781 2.9544c6.8346-2.4553 2.4206-13.103 0-12.565-2.6861 0.59691-6.1936 0.21375-6.2826 5.5845l-5.5845-0.45126z" fill="#c37c4c" fill-rule="evenodd" stroke="#000"/>
  <path d="m420.6 220.2 0.20446 4.3505 5.5845 0.12704s4.1072 3.6624 6.0781 2.9544c6.8346-2.4553 2.4206-13.103 0-12.565-2.6861 0.59691-6.1936 0.21375-6.2826 5.5845l-5.5845-0.45126z" fill="#c37c4c" fill-rule="evenodd" stroke="#000"/>
  <path d="m483.04 279.93 0.20446 4.3505 5.5845 0.12704s4.1072 3.6624 6.0781 2.9544c6.8346-2.4553 2.4206-13.103 0-12.565-2.6861 0.59691-6.1936 0.21375-6.2826 5.5845l-5.5845-0.45126z" fill="#c37c4c" fill-rule="evenodd" stroke="#000"/>
  <path d="m475.64 276.23 0.20446 4.3505 5.5845 0.12704s4.1072 3.6624 6.0781 2.9544c6.8346-2.4553 2.4206-13.103 0-12.565-2.6861 0.59691-6.1936 0.21375-6.2826 5.5845l-5.5845-0.45126z" fill="#c37c4c" fill-rule="evenodd" stroke="#000"/>
  <path d="m468.23 273.02 0.20446 4.3505 5.5845 0.12704s4.1072 3.6624 6.0781 2.9544c6.8346-2.4553 2.4206-13.103 0-12.565-2.6861 0.59691-6.1936 0.21375-6.2826 5.5845l-5.5845-0.45126z" fill="#c37c4c" fill-rule="evenodd" stroke="#000"/>
  <path d="m459.84 269.07 0.20446 4.3505 5.5845 0.12704s4.1072 3.6624 6.0781 2.9544c6.8346-2.4553 2.4206-13.103 0-12.565-2.6861 0.59691-6.1936 0.21375-6.2826 5.5845l-5.5845-0.45126z" fill="#c37c4c" fill-rule="evenodd" stroke="#000"/>
  <path d="m451.2 260.18 0.20446 4.3505 5.5845 0.12704s4.1072 3.6624 6.0781 2.9544c6.8346-2.4553 2.4206-13.103 0-12.565-2.6861 0.59691-6.1936 0.21375-6.2826 5.5845l-5.5845-0.45126z" fill="#c37c4c" fill-rule="evenodd" stroke="#000"/>
  <path d="m441.82 246.12 0.20446 4.3505 5.5845 0.12704s4.1072 3.6624 6.0781 2.9544c6.8346-2.4553 2.4206-13.103 0-12.565-2.6861 0.59691-6.1936 0.21375-6.2826 5.5845l-5.5845-0.45126z" fill="#c37c4c" fill-rule="evenodd" stroke="#000"/>
  <path d="m432.45 235.26 0.20446 4.3505 5.5845 0.12704s4.1072 3.6624 6.0781 2.9544c6.8346-2.4553 2.4206-13.103 0-12.565-2.6861 0.59691-6.1936 0.21375-6.2826 5.5845l-5.5845-0.45126z" fill="#c37c4c" fill-rule="evenodd" stroke="#000"/>
  <path d="m412.95 205.39 0.20446 4.3505 5.5845 0.12704s4.1072 3.6624 6.0781 2.9544c6.8346-2.4553 2.4206-13.103 0-12.565-2.6861 0.59691-6.1936 0.21375-6.2826 5.5845l-5.5845-0.45126z" fill="#c37c4c" fill-rule="evenodd" stroke="#000"/>
  <path d="m403.08 194.29 0.20446 4.3505 5.5845 0.12704s4.1072 3.6624 6.0781 2.9544c6.8346-2.4553 2.4206-13.103 0-12.565-2.6861 0.59691-6.1936 0.21375-6.2826 5.5845l-5.5845-0.45126z" fill="#c37c4c" fill-rule="evenodd" stroke="#000"/>
  <path d="m394.68 185.9 0.20446 4.3505 5.5845 0.12704s4.1072 3.6624 6.0781 2.9544c6.8346-2.4553 2.4206-13.103 0-12.565-2.6861 0.59691-6.1936 0.21375-6.2826 5.5845l-5.5845-0.45126z" fill="#c37c4c" fill-rule="evenodd" stroke="#000"/>
  <path d="m385.8 172.82 0.20446 4.3505 5.5845 0.12704s4.1072 3.6624 6.0781 2.9544c6.8346-2.4553 2.4206-13.103 0-12.565-2.6861 0.59691-6.1936 0.21375-6.2826 5.5845l-5.5845-0.45126z" fill="#c37c4c" fill-rule="evenodd" stroke="#000"/>
  <path d="m376.92 165.16 0.20446 4.3505 5.5845 0.12704s4.1072 3.6624 6.0781 2.9544c6.8346-2.4553 2.4206-13.103 0-12.565-2.6861 0.59691-6.1936 0.21375-6.2826 5.5845l-5.5845-0.45126z" fill="#c37c4c" fill-rule="evenodd" stroke="#000"/>
  <path d="m368.52 157.27 0.20446 4.3505 5.5845 0.12704s4.1072 3.6624 6.0781 2.9544c6.8346-2.4553 2.4206-13.103 0-12.565-2.6861 0.59691-6.1936 0.21375-6.2826 5.5845l-5.5845-0.45126z" fill="#c37c4c" fill-rule="evenodd" stroke="#000"/>
  <path d="m350.75 135.3 0.20446 4.3505 5.5845 0.12704s4.1072 3.6624 6.0781 2.9544c6.8346-2.4553 2.4206-13.103 0-12.565-2.6861 0.59691-6.1936 0.21375-6.2826 5.5845l-5.5845-0.45126z" fill="#c37c4c" fill-rule="evenodd" stroke="#000"/>
  <path d="m341.38 127.65 0.20446 4.3505 5.5845 0.12704s4.1072 3.6624 6.0781 2.9544c6.8346-2.4553 2.4206-13.103 0-12.565-2.6861 0.59691-6.1936 0.21375-6.2826 5.5845l-5.5845-0.45126z" fill="#c37c4c" fill-rule="evenodd" stroke="#000"/>
  <path d="m333.72 123.21 0.20446 4.3505 5.5845 0.12704s4.1072 3.6624 6.0781 2.9544c6.8346-2.4553 2.4206-13.103 0-12.565-2.6861 0.59691-6.1936 0.21375-6.2826 5.5845l-5.5845-0.45126z" fill="#c37c4c" fill-rule="evenodd" stroke="#000"/>
  <path d="m325.33 119.01 0.20446 4.3505 5.5845 0.12704s4.1072 3.6624 6.0781 2.9544c6.8346-2.4553 2.4206-13.103 0-12.565-2.6861 0.59691-6.1936 0.21375-6.2826 5.5845l-5.5845-0.45126z" fill="#c37c4c" fill-rule="evenodd" stroke="#000"/>
  <path d="m316.45 117.29 0.20446 4.3505 5.5845 0.12704s4.1072 3.6624 6.0781 2.9544c6.8346-2.4553 2.4206-13.103 0-12.565-2.6861 0.59691-6.1936 0.21375-6.2826 5.5845l-5.5845-0.45126z" fill="#c37c4c" fill-rule="evenodd" stroke="#000"/>
  <path d="m308.06 115.06 0.20446 4.3505 5.5845 0.12704s4.1072 3.6624 6.0781 2.9544c6.8346-2.4553 2.4206-13.103 0-12.565-2.6861 0.59691-6.1936 0.21375-6.2826 5.5845l-5.5845-0.45126z" fill="#c37c4c" fill-rule="evenodd" stroke="#000"/>
  <path d="m300.41 115.31 0.20446 4.3505 5.5845 0.12704s4.1072 3.6624 6.0781 2.9544c6.8346-2.4553 2.4206-13.103 0-12.565-2.6861 0.59691-6.1936 0.21375-6.2826 5.5845l-5.5845-0.45126z" fill="#c37c4c" fill-rule="evenodd" stroke="#000"/>
  <path d="m292.26 116.55 0.20446 4.3505 5.5845 0.12704s4.1072 3.6624 6.0781 2.9544c6.8346-2.4553 2.4206-13.103 0-12.565-2.6861 0.59691-6.1936 0.21375-6.2826 5.5845l-5.5845-0.45126z" fill="#c37c4c" fill-rule="evenodd" stroke="#000"/>
  <path d="m284.36 119.26 0.20446 4.3505 5.5845 0.12704s4.1072 3.6624 6.0781 2.9544c6.8346-2.4553 2.4206-13.103 0-12.565-2.6861 0.59691-6.1936 0.21375-6.2826 5.5845l-5.5845-0.45126z" fill="#c37c4c" fill-rule="evenodd" stroke="#000"/>
  <path d="m481.66 297.41c4.4423 7.3296 2.6037 13.961 3.4903 20.942 0.98586 1.183 16.171-1.3445 9.0748-8.7258-4.5287-4.7108-2.2909-17.327-12.565-12.216z" fill="#a0892c" fill-rule="evenodd" stroke="#000"/>
  <path d="m474.68 296.71c4.4423 7.3296 2.6037 13.961 3.4903 20.942 0.98586 1.183 16.171-1.3445 9.0748-8.7258-4.5287-4.7108-2.2909-17.327-12.565-12.216z" fill="#a0892c" fill-rule="evenodd" stroke="#000"/>
  <path d="m467.7 294.97c4.4423 7.3296 2.6037 13.961 3.4903 20.942 0.98586 1.183 16.171-1.3445 9.0748-8.7258-4.5287-4.7108-2.2909-17.327-12.565-12.216z" fill="#a0892c" fill-rule="evenodd" stroke="#000"/>
  <path d="m458.97 290.43c4.4423 7.3296 2.6037 13.961 3.4903 20.942 0.98586 1.183 16.171-1.3445 9.0748-8.7258-4.5287-4.7108-2.2909-17.327-12.565-12.216z" fill="#a0892c" fill-rule="evenodd" stroke="#000"/>
  <path d="m449.55 285.54c4.4423 7.3296 2.6037 13.961 3.4903 20.942 0.98586 1.183 16.171-1.3445 9.0748-8.7258-4.5287-4.7108-2.2909-17.327-12.565-12.216z" fill="#a0892c" fill-rule="evenodd" stroke="#000"/>
  <path d="m441.17 277.52c4.4423 7.3296 2.6037 13.961 3.4903 20.942 0.98586 1.183 16.171-1.3445 9.0748-8.7258-4.5287-4.7108-2.2909-17.327-12.565-12.216z" fill="#a0892c" fill-rule="evenodd" stroke="#000"/>
  <path d="m432.8 270.88c4.4423 7.3296 2.6037 13.961 3.4903 20.942 0.98586 1.183 16.171-1.3445 9.0748-8.7258-4.5287-4.7108-2.2909-17.327-12.565-12.216z" fill="#a0892c" fill-rule="evenodd" stroke="#000"/>
  <path d="m424.42 259.02c4.4423 7.3296 2.6037 13.961 3.4903 20.942 0.98586 1.183 16.171-1.3445 9.0748-8.7258-4.5287-4.7108-2.2909-17.327-12.565-12.216z" fill="#a0892c" fill-rule="evenodd" stroke="#000"/>
  <path d="m416.39 246.1c4.4423 7.3296 2.6037 13.961 3.4903 20.942 0.98586 1.183 16.171-1.3445 9.0748-8.7258-4.5287-4.7108-2.2909-17.327-12.565-12.216z" fill="#a0892c" fill-rule="evenodd" stroke="#000"/>
  <path d="m404.88 232.84c4.4423 7.3296 2.6037 13.961 3.4903 20.942 0.98586 1.183 16.171-1.3445 9.0748-8.7258-4.5287-4.7108-2.2909-17.327-12.565-12.216z" fill="#a0892c" fill-rule="evenodd" stroke="#000"/>
  <path d="m395.8 222.72c4.4423 7.3296 2.6037 13.961 3.4903 20.942 0.98586 1.183 16.171-1.3445 9.0748-8.7258-4.5287-4.7108-2.2909-17.327-12.565-12.216z" fill="#a0892c" fill-rule="evenodd" stroke="#000"/>
  <path d="m386.73 213.99c4.4423 7.3296 2.6037 13.961 3.4903 20.942 0.98586 1.183 16.171-1.3445 9.0748-8.7258-4.5287-4.7108-2.2909-17.327-12.565-12.216z" fill="#a0892c" fill-rule="evenodd" stroke="#000"/>
  <path d="m378 201.43c4.4423 7.3296 2.6037 13.961 3.4903 20.942 0.98586 1.183 16.171-1.3445 9.0748-8.7258-4.5287-4.7108-2.2909-17.327-12.565-12.216z" fill="#a0892c" fill-rule="evenodd" stroke="#000"/>
  <path d="m368.58 189.91c4.4423 7.3296 2.6037 13.961 3.4903 20.942 0.98586 1.183 16.171-1.3445 9.0748-8.7258-4.5287-4.7108-2.2909-17.327-12.565-12.216z" fill="#a0892c" fill-rule="evenodd" stroke="#000"/>
  <path d="m360.55 182.93c4.4423 7.3296 2.6037 13.961 3.4903 20.942 0.98586 1.183 16.171-1.3445 9.0748-8.7258-4.5287-4.7108-2.2909-17.327-12.565-12.216z" fill="#a0892c" fill-rule="evenodd" stroke="#000"/>
  <path d="m352.17 176.99c4.4423 7.3296 2.6037 13.961 3.4903 20.942 0.98586 1.183 16.171-1.3445 9.0748-8.7258-4.5287-4.7108-2.2909-17.327-12.565-12.216z" fill="#a0892c" fill-rule="evenodd" stroke="#000"/>
  <path d="m343.1 172.46c4.4423 7.3296 2.6037 13.961 3.4903 20.942 0.98586 1.183 16.171-1.3445 9.0748-8.7258-4.5287-4.7108-2.2909-17.327-12.565-12.216z" fill="#a0892c" fill-rule="evenodd" stroke="#000"/>
  <path d="m335.42 168.97c4.4423 7.3296 2.6037 13.961 3.4903 20.942 0.98586 1.183 16.171-1.3445 9.0748-8.7258-4.5287-4.7108-2.2909-17.327-12.565-12.216z" fill="#a0892c" fill-rule="evenodd" stroke="#000"/>
  <path d="m335.42 168.97c4.4423 7.3296 2.6037 13.961 3.4903 20.942 0.98586 1.183 16.171-1.3445 9.0748-8.7258-4.5287-4.7108-2.2909-17.327-12.565-12.216z" fill="#a0892c" fill-rule="evenodd" stroke="#000"/>
  <path d="m327.04 164.78c4.4423 7.3296 2.6037 13.961 3.4903 20.942 0.98586 1.183 16.171-1.3445 9.0748-8.7258-4.5287-4.7108-2.2909-17.327-12.565-12.216z" fill="#a0892c" fill-rule="evenodd" stroke="#000"/>
  <path d="m318.32 163.73c4.4423 7.3296 2.6037 13.961 3.4903 20.942 0.98586 1.183 16.171-1.3445 9.0748-8.7258-4.5287-4.7108-2.2909-17.327-12.565-12.216z" fill="#a0892c" fill-rule="evenodd" stroke="#000"/>
  <path d="m309.94 166.52c4.4423 7.3296 2.6037 13.961 3.4903 20.942 0.98586 1.183 16.171-1.3445 9.0748-8.7258-4.5287-4.7108-2.2909-17.327-12.565-12.216z" fill="#a0892c" fill-rule="evenodd" stroke="#000"/>
  <path d="m301.91 169.66c4.4423 7.3296 2.6037 13.961 3.4903 20.942 0.98586 1.183 16.171-1.3445 9.0748-8.7258-4.5287-4.7108-2.2909-17.327-12.565-12.216z" fill="#a0892c" fill-rule="evenodd" stroke="#000"/>
  <path d="m293.88 175.25c4.4423 7.3296 2.6037 13.961 3.4903 20.942 0.98586 1.183 16.171-1.3445 9.0748-8.7258-4.5287-4.7108-2.2909-17.327-12.565-12.216z" fill="#a0892c" fill-rule="evenodd" stroke="#000"/>
  <path d="m285.16 179.44c4.4423 7.3296 2.6037 13.961 3.4903 20.942 0.98586 1.183 16.171-1.3445 9.0748-8.7258-4.5287-4.7108-2.2909-17.327-12.565-12.216z" fill="#a80" fill-rule="evenodd" stroke="#000"/>
  <path transform="translate(0,.4936)" d="m370.7 838.14a3.702 3.9488 0 1 1 -7.404 0 3.702 3.9488 0 1 1 7.404 0z" fill="none" stroke="#888488" stroke-width="2"/>
  <path transform="translate(6.4168 -16.783)" d="m370.7 838.14a3.702 3.9488 0 1 1 -7.404 0 3.702 3.9488 0 1 1 7.404 0z" fill="none" stroke="#888488" stroke-width="2"/>
  <path transform="translate(12.34 -37.02)" d="m370.7 838.14a3.702 3.9488 0 1 1 -7.404 0 3.702 3.9488 0 1 1 7.404 0z" fill="none" stroke="#888488" stroke-width="2"/>
  <path transform="translate(18.263 -55.284)" d="m370.7 838.14a3.702 3.9488 0 1 1 -7.404 0 3.702 3.9488 0 1 1 7.404 0z" fill="none" stroke="#888488" stroke-width="2"/>
  <path transform="translate(24.187 -73.053)" d="m370.7 838.14a3.702 3.9488 0 1 1 -7.404 0 3.702 3.9488 0 1 1 7.404 0z" fill="none" stroke="#888488" stroke-width="2"/>
  <path transform="translate(30.11 -92.797)" d="m370.7 838.14a3.702 3.9488 0 1 1 -7.404 0 3.702 3.9488 0 1 1 7.404 0z" fill="none" stroke="#888488" stroke-width="2"/>
  <path transform="translate(35.046 -111.55)" d="m370.7 838.14a3.702 3.9488 0 1 1 -7.404 0 3.702 3.9488 0 1 1 7.404 0z" fill="none" stroke="#888488" stroke-width="2"/>
  <path transform="translate(40.969 -129.82)" d="m370.7 838.14a3.702 3.9488 0 1 1 -7.404 0 3.702 3.9488 0 1 1 7.404 0z" fill="none" stroke="#888488" stroke-width="2"/>
  <path transform="translate(46.399 -148.08)" d="m370.7 838.14a3.702 3.9488 0 1 1 -7.404 0 3.702 3.9488 0 1 1 7.404 0z" fill="none" stroke="#888488" stroke-width="2"/>
  <path transform="translate(51.335 -167.83)" d="m370.7 838.14a3.702 3.9488 0 1 1 -7.404 0 3.702 3.9488 0 1 1 7.404 0z" fill="none" stroke="#888488" stroke-width="2"/>
  <path transform="matrix(.46731 .88409 -.88409 .46731 995.22 -65.559)" d="m370.7 838.14a3.702 3.9488 0 1 1 -7.404 0 3.702 3.9488 0 1 1 7.404 0z" fill="none" stroke="#888488" stroke-width="2"/>
  <path transform="matrix(.46731 .88409 -.88409 .46731 1000.2 -84.316)" d="m370.7 838.14a3.702 3.9488 0 1 1 -7.404 0 3.702 3.9488 0 1 1 7.404 0z" fill="none" stroke="#888488" stroke-width="2"/>
  <path transform="matrix(.46731 .88409 -.88409 .46731 1005.6 -101.59)" d="m370.7 838.14a3.702 3.9488 0 1 1 -7.404 0 3.702 3.9488 0 1 1 7.404 0z" fill="none" stroke="#888488" stroke-width="2"/>
  <path transform="matrix(.46731 .88409 -.88409 .46731 1011 -119.36)" d="m370.7 838.14a3.702 3.9488 0 1 1 -7.404 0 3.702 3.9488 0 1 1 7.404 0z" fill="none" stroke="#888488" stroke-width="2"/>
  <path transform="matrix(.46731 .88409 -.88409 .46731 1017.4 -137.63)" d="m370.7 838.14a3.702 3.9488 0 1 1 -7.404 0 3.702 3.9488 0 1 1 7.404 0z" fill="none" stroke="#888488" stroke-width="2"/>
  <path transform="matrix(.42038 .79202 -.79531 .41864 966.66 -85.258)" d="m370.7 838.14a3.702 3.9488 0 1 1 -7.404 0 3.702 3.9488 0 1 1 7.404 0z" fill="none" stroke="#888488" stroke-width="2"/>
  <path transform="matrix(.42038 .79202 -.79531 .41864 972.09 -104.02)" d="m370.7 838.14a3.702 3.9488 0 1 1 -7.404 0 3.702 3.9488 0 1 1 7.404 0z" fill="none" stroke="#888488" stroke-width="2"/>
  <path transform="matrix(.42038 .79202 -.79531 .41864 977.52 -124.25)" d="m370.7 838.14a3.702 3.9488 0 1 1 -7.404 0 3.702 3.9488 0 1 1 7.404 0z" fill="none" stroke="#888488" stroke-width="2"/>
  <path transform="matrix(.42038 .79202 -.79531 .41864 983.45 -140.54)" d="m370.7 838.14a3.702 3.9488 0 1 1 -7.404 0 3.702 3.9488 0 1 1 7.404 0z" fill="none" stroke="#888488" stroke-width="2"/>
  <path transform="matrix(.42038 .79202 -.79531 .41864 988.88 -160.29)" d="m370.7 838.14a3.702 3.9488 0 1 1 -7.404 0 3.702 3.9488 0 1 1 7.404 0z" fill="none" stroke="#888488" stroke-width="2"/>
  <path transform="matrix(.42038 .79202 -.79531 .41864 993.81 -177.56)" d="m370.7 838.14a3.702 3.9488 0 1 1 -7.404 0 3.702 3.9488 0 1 1 7.404 0z" fill="none" stroke="#888488" stroke-width="2"/>
  <path transform="matrix(.42038 .79202 -.79531 .41864 999.24 -194.84)" d="m370.7 838.14a3.702 3.9488 0 1 1 -7.404 0 3.702 3.9488 0 1 1 7.404 0z" fill="none" stroke="#888488" stroke-width="2"/>
  <path transform="matrix(.42038 .79202 -.79531 .41864 1004.7 -211.13)" d="m370.7 838.14a3.702 3.9488 0 1 1 -7.404 0 3.702 3.9488 0 1 1 7.404 0z" fill="none" stroke="#888488" stroke-width="2"/>
  <path transform="matrix(.42038 .79202 -.79531 .41864 1009.6 -228.9)" d="m370.7 838.14a3.702 3.9488 0 1 1 -7.404 0 3.702 3.9488 0 1 1 7.404 0z" fill="none" stroke="#888488" stroke-width="2"/>
 </g>
</svg>
