<?xml version="1.0" encoding="UTF-8"?>
<svg viewBox="0 0 49.539196 496.49554" xmlns="http://www.w3.org/2000/svg">
 <g transform="translate(-286.62 -243.23)" stroke="#000" stroke-linecap="round">
  <path d="m296.11 675.52c10.392 3.1584 20.539 2.6506 30.543 0l-1.9817-28.162h-26.579l-1.9817 28.162z" fill="#803300"/>
  <path d="m298.51 637.87c8.9719 7.6105 17.479 6.1513 25.745 0l2.086-193.17h-29.917l2.086 193.17z" fill="#803300"/>
  <path d="m329.89 409.86s-1.6688-32.542-1.6688-50.899 0-40.052 5.0065-47.562-48.691-7.5097-43.685 0 5.0065 29.205 5.0065 47.562-1.6688 50.899-1.6688 50.899" fill="#803300"/>
  <path d="m331.56 301.39c4.2017-22.227 6.978-40.551-5.0065-57.157h-30.334c-11.985 16.607-9.2082 34.93-5.0065 57.157" fill="#ffe6d5"/>
  <path d="m293.71 435.73c7.5097 8.3442 27.831 8.3442 35.341 0s5.8409-20.026 2.5032-24.198-37.01-4.1721-40.347 0-5.0065 15.854 2.5032 24.198z" fill="#803300"/>
  <path d="m301.64 685.32c0-3.3345 19.487-3.3345 19.487 0s2.2938 1.947 2.5032 5.1108c0.21412 3.2336-2.9541 5.84-2.9204 10.952 0.1043 15.645 12.621 24.72 12.516 29.309-0.13337 5.7351-14.373 8.0312-21.842 8.0312-7.1359 0-21.709-2.2962-21.842-8.0312-0.1043-4.5893 12.412-13.664 12.516-29.309 0.03363-5.1118-3.1346-7.7181-2.9204-10.952 0.20949-3.1638 2.5032-1.7763 2.5032-5.1108z" fill="#803300"/>
  <path transform="translate(-.16348)" d="m293.92 301.57h35.264c2.7572 0 4.9768 2.2197 4.9768 4.9768s-0.43332 5.0761-3.1905 5.0761h-39.432c-2.7572 0-2.595-2.3189-2.595-5.0761s2.2197-4.9768 4.9768-4.9768z" fill="#ffe6d5"/>
  <path transform="translate(-.16438)" d="m294.34 407.37h34.411a3.4127 3.4127 0 0 1 3.4127 3.4127 3.4127 3.4127 0 0 1 -3.4127 3.4127h-34.411a3.4127 3.4127 0 0 1 -3.4127 -3.4127 3.4127 3.4127 0 0 1 3.4127 -3.4127" fill="#ffe6d5"/>
  <path transform="translate(-.02217)" d="m295.77 434.38c10.83 2.8154 21.211 2.4891 31.283 0 1.8906 0 3.4127 1.522 3.4127 3.4127v3.9814c0 1.8906-1.5221 3.4127-3.4127 3.4127-10.005 2.1155-20.522 1.665-31.283 0-1.8906 0-3.4127-1.522-3.4127-3.4127v-3.9814c0-1.8906 1.5221-3.4127 3.4127-3.4127z" fill="#ffe6d5"/>
  <path transform="translate(.40441)" d="m299.46 637.44c7.6785 2.3703 15.357 2.1783 23.036 0 1.8906 0 3.4127 1.522 3.4127 3.4127v3.6971c0 1.8906-1.522 3.4127-3.4127 3.4127-8.1024 1.6954-15.689 1.3287-23.036 0-1.8906 0-3.4127-1.522-3.4127-3.4127v-3.6971c0-1.8906 1.5221-3.4127 3.4127-3.4127z" fill="#ffe6d5"/>
  <path transform="translate(-.16437)" d="m298.61 674.69c8.6265 2.316 16.115 2.5678 25.879 0 1.8906 0 3.4127 1.5221 3.4127 3.4127v2.8439c0 1.8906-1.522 3.4127-3.4127 3.4127-8.6265 1.9267-17.253 1.05-25.879 0-1.8906 0-3.4127-1.5221-3.4127-3.4127v-2.8439c0-1.8906 1.5221-3.4127 3.4127-3.4127z" fill="#ffe6d5"/>
  <path d="m304.44 319.9c0.16225-1.7186 0.22476-3.3907 0.06107-4.9564h-1e-5 13.082c0.01284 1.7552 0.25014 3.6403 0.55344 5.5702" fill="#2b1100"/>
  <path d="m318.03 319.91c1.1999 7.6348 3.5386 16.571-3.007 20.341l-7.6785 1e-5c-6.2831-4.2659-3.6568-12.8-2.9403-20.39" fill="#ffe6d5"/>
  <path transform="translate(.5466)" d="m317.09 465.95a6.2566 6.2566 0 1 1 -12.513 0 6.2566 6.2566 0 1 1 12.513 0z" fill="#2b1100"/>
  <path transform="translate(.5466 34.696)" d="m317.09 465.95a6.2566 6.2566 0 1 1 -12.513 0 6.2566 6.2566 0 1 1 12.513 0z" fill="#2b1100"/>
  <path transform="translate(.5466 71.951)" d="m317.09 465.95a6.2566 6.2566 0 1 1 -12.513 0 6.2566 6.2566 0 1 1 12.513 0z" fill="#2b1100"/>
  <path transform="matrix(.6608 0 0 .6608 105.98 260.71)" d="m317.09 465.95a6.2566 6.2566 0 1 1 -12.513 0 6.2566 6.2566 0 1 1 12.513 0z" fill="#2b1100" stroke-width="1.5133"/>
  <path transform="translate(.5466 136.51)" d="m317.09 465.95a6.2566 6.2566 0 1 1 -12.513 0 6.2566 6.2566 0 1 1 12.513 0z" fill="#2b1100"/>
  <g fill="#2b1100">
   <path transform="matrix(.56818 0 0 .56818 130.79 363.73)" d="m317.09 465.95a6.2566 6.2566 0 1 1 -12.513 0 6.2566 6.2566 0 1 1 12.513 0z" stroke-width="1.76"/>
   <path transform="matrix(.40909 0 0 .40909 189.2 439.14)" d="m317.09 465.95a6.2566 6.2566 0 1 1 -12.513 0 6.2566 6.2566 0 1 1 12.513 0z" stroke-width="2.4444"/>
  </g>
  <g fill="#2b1100">
   <path transform="matrix(.48123 0 0 .56818 154.06 396.72)" d="m317.09 465.95a6.2566 6.2566 0 1 1 -12.513 0 6.2566 6.2566 0 1 1 12.513 0z" stroke-width="1.9124"/>
   <path transform="matrix(.39879 0 0 .40909 187.84 472.13)" d="m317.09 465.95a6.2566 6.2566 0 1 1 -12.513 0 6.2566 6.2566 0 1 1 12.513 0z" stroke-width="2.4758"/>
  </g>
 </g>
</svg>
