<?xml version="1.0" encoding="UTF-8"?>
<svg viewBox="0 0 246.25 456.25" xmlns="http://www.w3.org/2000/svg">
 <defs>
  <linearGradient id="b" x1="69.991" x2="70.631" y1="336.27" y2="410.59" gradientTransform="scale(1.7937 .55749)" gradientUnits="userSpaceOnUse">
   <stop stop-color="#7e3b1c" offset="0"/>
   <stop stop-color="#512612" offset="1"/>
  </linearGradient>
  <linearGradient id="a" x1="64.455" x2="265.16" y1="179.41" y2="174.26" gradientTransform="scale(.73118 1.3676)" gradientUnits="userSpaceOnUse">
   <stop stop-color="#66331c" offset="0"/>
   <stop stop-color="#964622" offset="1"/>
  </linearGradient>
 </defs>
 <path d="m58.635 445.25s12.857-110.71 14.286-149.29 5-63.571 1.4286-64.286-17.857 0.71429-31.429-21.429-31.429-89.286-34.286-110-13.571-75 6.4286-82.143 78.571-15 116.43-14.286 97.857-0.71429 106.43 22.857-0.71429 110.71-10.714 137.14-25 59.286-35.714 64.286c-10.537 4.9172-13.571 1e-5 -15 5s9.2857 105 12.143 120.71 14.286 84.286 12.143 87.857-42.143 10.714-69.286 10-69.286-1.4286-72.857-6.4286z" fill="url(#a)" fill-rule="evenodd" stroke="#000" stroke-width="3"/>
 <path d="m5.0631 40.253s1.0714-18.214 9.6429-21.071 53.929-12.5 99.643-13.214 95.358 0.49054 110 10.357c14.173 9.5507 14.286 8.2143 15 21.071-7.9254-2.8159-60-9.2857-134.29-7.1429s-100 10-100 10z" fill="#c4a75c" fill-rule="evenodd"/>
 <path d="m9.3488 31.324s50.714-13.929 115.36-14.286 110 10.357 110 10.357" fill="none" stroke="#903000" stroke-linecap="round" stroke-width="7"/>
 <path d="m113.63 143.47-12.5-108.21s-0.71429-9.2857-6.0714-8.5714-6.0714 8.5714-6.0714 8.5714l1e-5 108.21-17.5-106.07s-1.4286-7.1429-5.7143-7.5-5 6.0714-5 6.0714l5.7143 107.5-18.929-103.57s-0.35714-7.5-6.0714-7.1429-3.2143 8.5714-3.2143 8.5714l10.357 102.86-18.929-102.14s-1.0714-6.4286-5-6.7857-2.5 6.7857-2.5 6.7857l10.714 102.86-17.5-102.14s0-6.7857-3.9286-6.4286-3.2143 7.1429-3.2143 7.1429l16.429 101.43" fill="none" stroke="#000" stroke-linecap="round" stroke-linejoin="round" stroke-width="3"/>
 <path d="m113.63 143.47 5.7143-110.71s-0.35715-6.7857 5.3571-6.7857 6.4286 6.4286 6.4286 6.4286l7.8572 112.5 6.7857-111.79s0-5.7143 8.9286-5.3571 8.9286 5.3571 8.9286 5.3571l-0.35714 111.79 15-110s-0.35715-6.7857 5.7143-6.4286 4.2857 5.3571 4.2857 5.3571l-1.4286 115 14.286-114.29s0-4.2857 4.2857-4.2857 3.5714 5 3.5714 5l-6.0714 114.64 16.786-111.79s-0.35714-5.7143 3.5714-5.3571 2.5 4.2857 2.5 4.2857l-9.6429 114.29 16.071-111.07s0-3.2143 2.1429-3.2143 2.1428 3.5714 2.1428 3.5714l-10.357 111.79" fill="none" stroke="#000" stroke-linecap="round" stroke-linejoin="round" stroke-width="3"/>
 <path d="m11.849 36.324c-2.8571-5 0-11.071 0-11.071" fill="none" stroke="#000" stroke-linecap="round" stroke-width="3"/>
 <path d="m24.706 35.61c-3.5714-5 0.35714-13.571 0.35714-13.571" fill="none" stroke="#000" stroke-linecap="round" stroke-width="3"/>
 <path d="m41.492 32.038c-1.4286-6.4286 0.71429-12.857 0.71429-12.857" fill="none" stroke="#000" stroke-linecap="round" stroke-width="3"/>
 <path d="m64.70594,28.8241c-.71429-3.57143.71428-12.5.71428-12.5" fill="none" stroke="#000" stroke-linecap="round" stroke-width="3"/>
 <path d="m95.063 26.681c0.71429-4.6429 0.35715-13.571 0.35715-13.571" fill="none" stroke="#000" stroke-linecap="round" stroke-width="3"/>
 <path d="m125.42 25.967c0.71429-4.2857-0.35714-14.643-0.35714-14.643" fill="none" stroke="#000" stroke-linecap="round" stroke-width="3"/>
 <path d="m155.42 27.113s1.4286-9.7642 0.71429-14.434" fill="none" stroke="#000" stroke-linecap="round" stroke-width="3"/>
 <path d="m183.99 28.467c1.7857-6.0714 0-13.929 0-13.929" fill="none" stroke="#000" stroke-linecap="round" stroke-width="3"/>
 <path d="m206.13 30.61c2.1429-7.1429 0-12.857 0-12.857" fill="none" stroke="#000" stroke-linecap="round" stroke-width="3"/>
 <path d="m223.99 33.467c3.5714-6.7857-0.35714-14.286-0.35714-14.286" fill="none" stroke="#000" stroke-linecap="round" stroke-width="3"/>
 <path d="m235.06 37.396c5.3571-8.2143-2.1429-15.714-2.1429-15.714" fill="none" stroke="#000" stroke-linecap="round" stroke-width="3"/>
 <path d="m19.706 147.04s72.5-2.1429 113.21-1.0714 97.5 7.8571 97.5 7.8571" fill="none" stroke="#000" stroke-linecap="round" stroke-width="3"/>
 <path d="m28.277 174.18s63.214-0.71428 91.786-0.35714 99.643 4.2857 99.643 4.2857" fill="none" stroke="#000" stroke-linecap="round" stroke-width="3"/>
 <path d="m30.305 174.42s10.877 46.232 33.1 53.303 115.93 8.9076 129.06-2.2041 27.743-47.059 27.743-47.059l-189.91-4.0406z" fill="url(#b)" fill-rule="evenodd"/>
 <path d="m39.349 200.97s45.714 1.4286 83.929 2.8571 83.929 2.1429 83.929 2.1429" fill="none" stroke="#000" stroke-linecap="round" stroke-width="3"/>
 <path d="m29.706 173.82 3.5714-27.5 13.929 25 2.1429-25 11.786 27.143 5.7143-28.571 12.857 28.571 10-27.143 10.357 27.143 13.571-28.929 11.429 28.929 14.643-27.143 7.8571 27.143 15.714-26.429 4.6428 27.5 19.286-26.071 0.71428 27.5 14.286-25.714-0.71429 25.357 14.286-24.286-1.7857 25.714 12.143-24.286" fill="none" stroke="#000" stroke-linecap="round" stroke-linejoin="round" stroke-width="3"/>
 <path d="m30.777 174.18 16.786 26.071 0.71428-26.786 12.143 27.857 1.7857-27.5 11.429 27.857 7.1429-27.143 10 28.214 9.6428-29.643 10.714 30 15.357-29.286 8.5714 29.286 13.571-28.214 3.5714 28.571 16.071-27.143 1.0714 28.214 18.571-27.857-2.8571 29.286 16.786-28.571-3.9286 27.143 16.071-26.071-5 25" fill="none" stroke="#000" stroke-linecap="round" stroke-linejoin="round" stroke-width="3"/>
 <path d="m142.43 242.1c-26.264 58.589 16.162 73.741 6.0609 127.28s5.0508 63.64 5.0508 63.64" fill="none" stroke="#502407" stroke-linecap="round" stroke-width="3"/>
 <path d="m149.5 252.2c-10.102 33.335 2.0203 51.518 2.0203 51.518" fill="none" stroke="#000" stroke-linecap="round" stroke-width="3"/>
 <path d="m136.39 378.47c12.122-36.365-6.0609-61.619-6.0609-61.619" fill="none" stroke="#000" stroke-linecap="round" stroke-width="3"/>
 <path d="m157.58 380.49c-9.0914 22.223 2.0203 41.416 2.0203 41.416" fill="none" stroke="#000" stroke-linecap="round" stroke-width="3"/>
</svg>
