<?xml version="1.0" encoding="UTF-8"?>
<svg viewBox="0 0 375.41898 285.98538" xmlns="http://www.w3.org/2000/svg" xmlns:xlink="http://www.w3.org/1999/xlink">
 <defs>
  <clipPath id="bg">
   <path d="m1717.8327,1086.5104c-3.4699,1.9226-7.4618,2.4262-11.282,3.2519-1.123.2138-2.3003.5321-3.1414,1.3534-.515,1.3026.7678,2.7546 2.1008,2.6702 1.6011.1036 3.208-.148 4.7613-.5113 2.2282-.864 4.0395-2.5108 6.2405-3.431 1.0553-.5424 2.6403-1.3143 3.7071-1.8334 0,0 .4905-1.6298-2.1575-1.4915"/>
  </clipPath>
  <clipPath id="bf">
   <path d="m1732.682,1091.2834c-2.871,1.2434-5.7777,2.4239-8.611,3.7339-1.5959.7641-2.5463,1.4576-3.675,2.6524-.9249,1.5551.3724,3.7367 2.3615,3.9244 1.3669.4662 3.1142-.036 3.7564-1.231 1.2827-1.5848 2.2445-3.4185 3.9911-4.6706 1.0412-.9307 2.2064-1.8047 3.6074-2.2783 .6639-.4751.2853-1.5701-.5498-1.6716-.3067-.1308-.6305-.2486-.8806-.4592z"/>
  </clipPath>
  <clipPath id="bd">
   <path d="m1724.8125,1088.7372c-3.7271,1.9506-7.8619,2.891-11.7461,4.4527-.9621.5105-1.9767,1.2516-2.2422,2.3642-.013,1.1316 1.0644,1.9183 2.0656,2.1786 1.5064.4311 4.0802-.414 5.2846-1.4216 2.6725-1.9944 4.3902-3.6591 7.4377-5.0717 .6644-.1353 1.0442-.8852.712-1.4916-.2569-.5851-.9195-.8929-1.5116-1.0106z"/>
  </clipPath>
  <clipPath id="p">
   <path d="m1732.682,1092.2834c-2.871,1.2434-5.7777,2.4239-8.611,3.7339-1.5959.7641-2.5463,1.4576-3.675,2.6524-.9249,1.5551.3724,3.7367 2.3615,3.9244 1.3669.4662 3.1142-.036 3.7564-1.231 1.2827-1.5848 2.2445-3.4185 3.9911-4.6706 1.0412-.9307 2.2064-1.8047 3.6074-2.2783 .6639-.4751.2853-1.5701-.5498-1.6716-.3067-.1308-.6305-.2486-.8806-.4592z"/>
  </clipPath>
  <clipPath id="be">
   <path d="m1725.1071,1088.5892c-3.8386,2.009-8.0971,2.9775-12.0975,4.5859-.9909.5258-2.0359,1.2891-2.3093,2.435-.013,1.1654 1.0962,1.9757 2.1274,2.2438 1.5515.444 4.2023-.4264 5.4427-1.4642 2.7525-2.054 4.5216-3.7685 7.6603-5.2234 .6842-.1394 1.0754-.9117.7333-1.5362-.2646-.6026-.947-.9197-1.5569-1.0409z"/>
  </clipPath>
  <clipPath id="bh">
   <path d="m1717.8327,1087.5104c-3.4699,1.9226-7.4618,2.4262-11.282,3.2519-1.123.2138-2.3003.5321-3.1414,1.3534-.515,1.3026.7678,2.7546 2.1008,2.6702 1.6011.1036 3.208-.148 4.7613-.5113 2.2282-.864 4.0395-2.5108 6.2405-3.431 1.0553-.5424 2.6403-1.3143 3.7071-1.8334 0,0 .4905-1.6298-2.1575-1.4915"/>
  </clipPath>
  <clipPath id="bi">
   <path d="m1718.5628,1086.324c-3.7808,2.0948-8.1303,2.6435-12.2928,3.5432-1.2236.233-2.5064.5798-3.4229,1.4747-.5611,1.4193.8366,3.0014 2.289,2.9094 1.7446.1129 3.4955-.1612 5.1879-.5571 2.4279-.9414 4.4015-2.7357 6.7997-3.7384 1.1498-.591 2.8768-1.4321 4.0392-1.9977 0,0 .5345-1.7758-2.3508-1.6251"/>
  </clipPath>
  <clipPath id="bj">
   <path d="m1724.8125,1089.7372c-3.7271,1.9506-7.8619,2.891-11.7461,4.4527-.9621.5105-1.9767,1.2516-2.2422,2.3642-.013,1.1316 1.0644,1.9183 2.0656,2.1786 1.5064.4311 4.0802-.414 5.2846-1.4216 2.6725-1.9944 4.3902-3.6591 7.4377-5.0717 .6644-.1353 1.0442-.8852.712-1.4916-.2569-.5851-.9195-.8929-1.5116-1.0106z"/>
  </clipPath>
  <filter id="au">
   <feGaussianBlur stdDeviation=".3594"/>
  </filter>
  <filter id="av">
   <feGaussianBlur stdDeviation="1.2575"/>
  </filter>
  <filter id="aw">
   <feGaussianBlur stdDeviation=".7308"/>
  </filter>
  <filter id="a"/>
  <filter id="bb" x="-.10334" y="-.14306" width="1.2067" height="1.2861">
   <feGaussianBlur stdDeviation=".265"/>
  </filter>
  <filter id="bc" x="-.08851" y="-.18628" width="1.177" height="1.3726">
   <feGaussianBlur stdDeviation=".2904"/>
  </filter>
  <filter id="ax" x="-.08371" y="-.21186" width="1.1674" height="1.4237">
   <feGaussianBlur stdDeviation=".5903"/>
  </filter>
  <filter id="ay" x="-.09959" y="-.15093" width="1.1992" height="1.3019">
   <feGaussianBlur stdDeviation=".5447"/>
  </filter>
  <filter id="az" x="-.09175" y="-.17339" width="1.1835" height="1.3468">
   <feGaussianBlur stdDeviation=".5449"/>
  </filter>
  <filter id="ba" x="-.09656" y="-.15847" width="1.1931" height="1.3169"/>
  <linearGradient id="l" x1="1187.9" x2="1181.4" y1="612.9" y2="601.87" gradientUnits="userSpaceOnUse">
   <stop stop-color="#542e07" offset="0"/>
   <stop stop-color="#774800" offset=".25"/>
   <stop stop-color="#d29836" offset=".4476"/>
   <stop stop-color="#fffffd" offset=".5"/>
   <stop stop-color="#fede71" offset=".5665"/>
   <stop stop-color="#936212" offset=".75"/>
   <stop stop-color="#996418" offset="1"/>
  </linearGradient>
  <linearGradient id="k" x1="1805.6" x2="1812" y1="1112.5" y2="1118.9" gradientUnits="userSpaceOnUse">
   <stop stop-color="#a48645" offset="0"/>
   <stop stop-color="#b09254" offset=".5"/>
   <stop stop-color="#816128" offset="1"/>
  </linearGradient>
  <linearGradient id="i" x1="1808.3" x2="1807.5" y1="1110.3" y2="1115.5" gradientUnits="userSpaceOnUse">
   <stop stop-color="#241600" offset="0"/>
   <stop stop-color="#584d28" offset=".4583"/>
   <stop stop-color="#6d5d22" offset=".488"/>
   <stop stop-color="#dcc776" offset=".6862"/>
   <stop stop-color="#6b562c" offset=".7908"/>
   <stop stop-color="#8a6a30" offset=".9023"/>
   <stop stop-color="#43330f" offset="1"/>
  </linearGradient>
  <linearGradient id="j" x1="1800" x2="1798.7" y1="1115.1" y2="1119.5" gradientUnits="userSpaceOnUse">
   <stop stop-color="#43330f" offset="0"/>
   <stop stop-color="#574725" offset=".25"/>
   <stop stop-color="#615739" offset=".5"/>
   <stop stop-color="#666962" offset=".75"/>
   <stop stop-color="#f9f9f9" offset="1"/>
  </linearGradient>
  <linearGradient id="h" x1="1804.9" x2="1810.6" y1="1108.5" y2="1117.8" gradientUnits="userSpaceOnUse">
   <stop stop-color="#080800" offset="0"/>
   <stop stop-color="#714f05" offset=".2727"/>
   <stop stop-color="#785f27" offset="1"/>
  </linearGradient>
  <linearGradient id="e" x1="1189.5" x2="1181.1" y1="603.59" y2="610.59" gradientTransform="matrix(-.95382 0 0 1.017 2939.9 498.5)" gradientUnits="userSpaceOnUse">
   <stop stop-color="#a59159" offset="0"/>
   <stop stop-color="#786b35" offset=".5"/>
   <stop stop-color="#ebe591" offset="1"/>
  </linearGradient>
  <linearGradient id="g" x1="1805" x2="1810.7" y1="1108.3" y2="1117.6" gradientUnits="userSpaceOnUse">
   <stop stop-color="#a08848" offset="0"/>
   <stop stop-color="#9f864d" offset="1"/>
  </linearGradient>
  <linearGradient id="f" x1="1185.1" x2="1183" y1="608.35" y2="606.34" gradientUnits="userSpaceOnUse">
   <stop stop-color="#775f19" offset="0"/>
   <stop stop-color="#c3a140" offset=".25"/>
   <stop stop-color="#fefeda" offset=".5"/>
   <stop stop-color="#beab57" offset=".75"/>
   <stop stop-color="#674b19" offset="1"/>
  </linearGradient>
  <linearGradient id="o">
   <stop stop-color="#e2c57f" offset="0"/>
   <stop stop-color="#947322" offset="1"/>
  </linearGradient>
  <linearGradient id="as" x1="1708.7" x2="1722.9" y1="1097.5" y2="1090.3" gradientUnits="userSpaceOnUse">
   <stop stop-color="#e2c57f" offset="0"/>
   <stop stop-color="#997928" offset=".9256"/>
   <stop stop-color="#947322" offset="1"/>
  </linearGradient>
  <linearGradient id="m">
   <stop stop-color="#f3e9d7" offset="0"/>
   <stop stop-color="#c7a15a" offset="1"/>
  </linearGradient>
  <linearGradient id="aq" x1="1297.1" x2="1296.7" y1="313.87" y2="362.82" gradientUnits="userSpaceOnUse">
   <stop stop-color="#4d4d4d" offset="0"/>
   <stop stop-color="#3c3c3c" offset="1"/>
  </linearGradient>
  <linearGradient id="q" x1="1694.5" x2="1860.8" gradientUnits="userSpaceOnUse">
   <stop stop-color="#3c3837" offset="0"/>
   <stop stop-color="#3c3837" stop-opacity="0" offset="1"/>
  </linearGradient>
  <linearGradient id="am" x1="174.51" x2="188.34" y1="296.68" y2="262.39" gradientUnits="userSpaceOnUse">
   <stop stop-color="#3a3a3a" offset="0"/>
   <stop stop-color="#494949" offset="1"/>
  </linearGradient>
  <linearGradient id="al" x1="211.52" x2="443.83" y1="305.58" y2="282.23" gradientUnits="userSpaceOnUse">
   <stop stop-color="#bdbdbd" offset="0"/>
   <stop stop-color="#bbb" offset=".1591"/>
   <stop stop-color="#cacaca" offset=".3732"/>
   <stop stop-color="#969696" offset=".4935"/>
   <stop stop-color="#6c6c6c" offset=".6512"/>
   <stop stop-color="#9d9d9d" offset=".7713"/>
   <stop stop-color="#9f9f9f" offset=".8801"/>
   <stop stop-color="#c3c3c3" offset=".9693"/>
   <stop stop-color="#7f7e7e" offset=".9846"/>
   <stop stop-color="#808080" offset="1"/>
  </linearGradient>
  <linearGradient id="ak" x1="93.01" x2="100.44" gradientUnits="userSpaceOnUse">
   <stop stop-color="#d9d9d9" offset="0"/>
   <stop stop-color="#4e4e4e" offset="1"/>
  </linearGradient>
  <linearGradient id="aj" x2="0" y1="360.55" y2="314.14" gradientUnits="userSpaceOnUse">
   <stop stop-color="#383838" offset="0"/>
   <stop stop-color="#4c4c4c" offset=".4422"/>
   <stop stop-color="#a5a5a5" offset=".5517"/>
   <stop stop-color="#8e8e8e" offset="1"/>
  </linearGradient>
  <linearGradient id="ai" x1="201.73" x2="444.34" gradientUnits="userSpaceOnUse">
   <stop stop-color="#3d3a3a" offset="0"/>
   <stop stop-color="#3c3c3c" offset=".1158"/>
   <stop stop-color="#262626" offset=".3941"/>
   <stop stop-color="#282828" offset=".3988"/>
   <stop stop-color="#303030" offset=".4489"/>
   <stop stop-color="#2c2c2c" offset=".5177"/>
   <stop stop-color="#363636" offset=".5709"/>
   <stop stop-color="#3e3e3e" offset=".6399"/>
   <stop stop-color="#525252" offset=".7345"/>
   <stop stop-color="#767676" offset=".8651"/>
   <stop stop-color="#707070" offset=".9521"/>
   <stop stop-color="#7b7b7b" offset=".9787"/>
   <stop stop-color="#4f4f4f" offset="1"/>
  </linearGradient>
  <linearGradient id="ah" x1="207.01" x2="207.4" y1="305.95" y2="301.96" gradientUnits="userSpaceOnUse">
   <stop stop-color="#4b4b4b" offset="0"/>
   <stop stop-color="#5f5f5f" offset="1"/>
  </linearGradient>
  <linearGradient id="ag" x2="0" y1="339.46" y2="300.42" gradientUnits="userSpaceOnUse">
   <stop stop-color="#979797" offset="0"/>
   <stop stop-color="#ababab" offset=".4422"/>
   <stop stop-color="#d3d3d3" offset=".5517"/>
   <stop stop-color="#979797" offset="1"/>
  </linearGradient>
  <linearGradient id="af" x1="192.26" x2="272.13" y1="260.14" y2="180.27" gradientUnits="userSpaceOnUse">
   <stop stop-color="#a5a5a5" offset="0"/>
   <stop stop-color="#7d7d7d" offset="1"/>
  </linearGradient>
  <linearGradient id="ae" x1="273.84" x2="333.33" gradientUnits="userSpaceOnUse">
   <stop stop-color="#626262" offset="0"/>
   <stop stop-color="#606060" offset="1"/>
  </linearGradient>
  <linearGradient id="ad" x1="202.86" x2="443.59" gradientUnits="userSpaceOnUse">
   <stop stop-color="#3e3e3e" offset="0"/>
   <stop stop-color="#414141" offset=".1158"/>
   <stop stop-color="#3d3d3d" offset=".3941"/>
   <stop stop-color="#2d2d2d" offset=".3988"/>
   <stop stop-color="#282828" offset=".4489"/>
   <stop stop-color="#353535" offset=".5177"/>
   <stop stop-color="#363636" offset=".5709"/>
   <stop stop-color="#3a3a3a" offset=".6399"/>
   <stop stop-color="#4d4d4d" offset=".7345"/>
   <stop stop-color="#6b6b6b" offset=".841"/>
   <stop stop-color="#717171" offset=".9521"/>
   <stop stop-color="#6e6e6e" offset=".9787"/>
   <stop stop-color="#545454" offset="1"/>
  </linearGradient>
  <linearGradient id="ac" x1="282.31" x2="307.16" y1="200.53" y2="292.4" gradientUnits="userSpaceOnUse">
   <stop stop-color="#808080" offset="0"/>
   <stop stop-color="#4d4d4d" offset="1"/>
  </linearGradient>
  <linearGradient id="ab" x1="96.313" x2="442.89" y1="294.66" y2="270.28" gradientUnits="userSpaceOnUse">
   <stop stop-color="#909090" offset="0"/>
   <stop stop-color="#939393" offset=".1593"/>
   <stop stop-color="#686868" offset=".3502"/>
   <stop stop-color="#7a7a7a" offset=".8537"/>
   <stop stop-color="#555" offset=".9132"/>
   <stop stop-color="#808080" offset="1"/>
  </linearGradient>
  <linearGradient id="aa" x1="308.66" x2="361.37" y1="276.59" y2="238.93" gradientUnits="userSpaceOnUse">
   <stop stop-color="#343434" offset="0"/>
   <stop stop-color="#424242" offset="1"/>
  </linearGradient>
  <linearGradient id="z" x1="329.75" x2="305.65" y1="181.71" y2="203.54" gradientUnits="userSpaceOnUse">
   <stop stop-color="#3b3b3b" offset="0"/>
   <stop stop-color="#3c3c3c" offset="1"/>
  </linearGradient>
  <linearGradient id="y" x1="159.65" x2="157.9" y1="308.34" y2="317.59" gradientUnits="userSpaceOnUse">
   <stop stop-color="#252525" offset="0"/>
   <stop stop-color="#282828" offset="1"/>
  </linearGradient>
  <linearGradient id="x" x1="212.28" x2="442.19" gradientUnits="userSpaceOnUse">
   <stop stop-color="#363636" offset="0"/>
   <stop stop-color="#323232" offset=".125"/>
   <stop stop-color="#474747" offset=".3122"/>
   <stop stop-color="#303030" offset=".5"/>
   <stop stop-color="#272727" offset=".7697"/>
   <stop stop-color="#2b2b2b" offset="1"/>
  </linearGradient>
  <linearGradient id="w" x2="0" y1="324.46" y2="382.82" gradientUnits="userSpaceOnUse">
   <stop stop-color="#2f2f2f" offset="0"/>
   <stop stop-color="#5b5b5b" offset="1"/>
  </linearGradient>
  <linearGradient id="v" x2="0" y1="322.84" y2="383.14" gradientUnits="userSpaceOnUse">
   <stop stop-color="#393939" offset="0"/>
   <stop stop-color="#767676" offset="1"/>
  </linearGradient>
  <linearGradient id="u" x1="257.41" x2="244.68" y1="436.56" y2="451.41" gradientUnits="userSpaceOnUse">
   <stop stop-color="#4f4f4f" offset="0"/>
   <stop stop-color="#434343" offset="1"/>
  </linearGradient>
  <linearGradient id="t" x1="217.69" x2="283.08" y1="362.31" y2="357.31" gradientUnits="userSpaceOnUse">
   <stop stop-color="#585858" offset="0"/>
   <stop stop-color="#2e2e2e" offset="1"/>
  </linearGradient>
  <linearGradient id="s" x1="254.57" x2="253.34" y1="374.93" y2="435.09" gradientUnits="userSpaceOnUse">
   <stop stop-color="#505050" offset="0"/>
   <stop stop-color="#444" offset="1"/>
  </linearGradient>
  <linearGradient id="r" x2="0" y1="374.33" y2="436.6" gradientUnits="userSpaceOnUse">
   <stop stop-color="#282828" offset="0"/>
   <stop stop-color="#494949" offset="1"/>
  </linearGradient>
  <linearGradient id="ar" x1="1701.3" x2="1716" y1="1093.6" y2="1087.4" gradientUnits="userSpaceOnUse" xlink:href="#o"/>
  <linearGradient id="at" x1="1719.3" x2="1731.2" y1="1101.4" y2="1092.6" gradientUnits="userSpaceOnUse" xlink:href="#o"/>
  <linearGradient id="an" x1="1720.2" x2="1725.7" y1="1099.6" y2="1102.7" gradientUnits="userSpaceOnUse" xlink:href="#m"/>
  <linearGradient id="ao" x1="1710.7" x2="1718.8" gradientUnits="userSpaceOnUse" xlink:href="#m"/>
  <linearGradient id="ap" x1="1703.4" x2="1708.2" gradientUnits="userSpaceOnUse" xlink:href="#m"/>
 </defs>
 <g transform="translate(-72.132 -177.94)">
  <path d="m244.89 447.96-1.2707-75.96-10.729-0.5647c1.0237 18.341 2.5473 45.846 3.0592 55.017 0.4013 7.5797-1.4444 6.7387-1.4444 6.7387z" fill="url(#r)" fill-rule="evenodd"/>
  <path d="m238.21 359.48-20.52 0.2371s6.5484 0.4217 9.8371 4.1398 5.3652 8.3392 5.3652 8.3392l10.354 2.8148 2.6356-5.224z" fill="#333" fill-rule="evenodd"/>
  <path d="m255.63 369.46-12.384 2.5421 1.2714 76.712 12.589-14.036s-2.9596-0.01-2.3289-13.92z" fill="url(#s)"/>
  <path d="m283.58 349.6-65.888 7.2007-1e-3 2.9197s5.7177-0.2888 14.685 2.9161 10.872 12.378 10.872 12.378l13.884-1.4164s4.2523-11.983 11.342-15.103 15.107-6.3065 15.107-6.3065z" fill="url(#t)"/>
  <g transform="translate(-1557.3 -657.82)">
   <path transform="matrix(-.90639 0 0 .95382 2883.7 536.89)" d="m1191.1 607.14c0 3.1239-2.5324 5.6562-5.6562 5.6562s-5.6563-2.5324-5.6563-5.6562 2.5324-5.6562 5.6563-5.6562 5.6562 2.5324 5.6562 5.6562z" fill="url(#l)"/>
   <path d="m1808.6466,1110.6994c2.45.2618 4.3518,2.4498 4.3518,5.097 0,2.8236-2.1752,5.1267-4.8586,5.1267-.503,0-.9742-.089-1.4307-.2384-1.5466-.9289-2.5931-2.6716-2.5931-4.6797 0-2.5859 1.7161-4.7797 4.0238-5.3056h.06c.1476,0 .303-.015.4471,0z" fill="url(#k)"/>
   <path d="m1808.3 1108.9-3.5768-1.1923-7.0642 0.1788 4.6498 1.4308z" fill="#241600"/>
   <path transform="matrix(1 0 0 1.0242 0 -26.965)" d="m1811.3728,1112.0732c.7652.9068 1.2187,2.0983 1.2187,3.4063 0,2.8235-2.1916,5.1562-4.875,5.1562-.503,0-.9498-.1006-1.4063-.25-.1933-.1161-.3858-.2345-.5624-.375 .2351.2071.4819.4015.75.5625 .4564.1494.9032.25 1.4062.25 2.6834,0 4.875-2.3327 4.875-5.1563 0-1.4042-.538-2.6669-1.4062-3.5937z" fill="#54390e" filter="url(#a)"/>
   <path d="m1808.4392,1110.4482c2.585.2741 4.625,2.5497 4.625,5.3086s-2.04,5.007-4.625,5.2776c2.7155-.134 4.875-2.4218 4.875-5.2776s-2.1595-5.1728-4.875-5.3086zm-2.7812,9.9381c.09.053.1884.1072.2812.1544 .2731.059.576.092.875.092h.1562c-.4638-.012-.8856-.109-1.3124-.2469z" fill="#4d2908" filter="url(#a)" opacity=".8"/>
   <path d="m1808.1298,1110.4482c2.585.2741 4.625,2.5497 4.625,5.3086s-2.04,5.007-4.625,5.2776c2.7155-.134 4.875-2.4218 4.875-5.2776s-2.1595-5.1728-4.875-5.3086zm-2.7812,9.9381c.09.053.1884.1072.2812.1544 .2731.059.576.092.875.092h.1562c-.4638-.012-.8856-.109-1.3124-.2469z" fill="#aa7319" filter="url(#a)"/>
   <path d="m1799.9 1109.5 0.9688 2.125s-0.9117 1.3197-0.9376 3.2969h4.3126c0.3121-1.6542 1.3573-3.0316 2.75-3.7656l-0.063-0.6563z" fill="url(#i)"/>
   <path d="m1802.4169,1109.2863-.1788,1.4307-1.4605-.5067c0,0-1.6095-.03-1.8182-.1193s-.3875-.2086-.3875-.2086v-.2683l-1.0433-.3278 .09-1.401 .9836.2981-.03-.2384c0,0 .407.1221.7796.1618s1.4559.077 1.4559.077l-.06.5067z" fill="#9d8346"/>
   <path d="m1808.1298,1110.4482c2.585.2741 4.625,2.5497 4.625,5.3086s-2.04,5.007-4.625,5.2776c2.7155-.134 4.875-2.4218 4.875-5.2776s-2.1595-5.1728-4.875-5.3086zm-2.7812,9.9381c.09.053.1884.1072.2812.1544 .2731.059.576.092.875.092h.1562c-.4638-.012-.8856-.109-1.3124-.2469z" fill="#aa7319" filter="url(#a)"/>
   <path d="m1808.1298,1110.4482c2.585.2741 4.625,2.5497 4.625,5.3086s-2.04,5.007-4.625,5.2776c2.7155-.134 4.875-2.4218 4.875-5.2776s-2.1595-5.1728-4.875-5.3086zm-2.7812,9.9381c.09.053.1884.1072.2812.1544 .2731.059.576.092.875.092h.1562c-.4638-.012-.8856-.109-1.3124-.2469z" fill="#aa7319" filter="url(#a)"/>
   <path d="m1808.1298,1110.4482c2.585.2741 4.625,2.5497 4.625,5.3086s-2.04,5.007-4.625,5.2776c2.7155-.134 4.875-2.4218 4.875-5.2776s-2.1595-5.1728-4.875-5.3086zm-2.7812,9.9381c.09.053.1884.1072.2812.1544 .2731.059.576.092.875.092h.1562c-.4638-.012-.8856-.109-1.3124-.2469z" fill="#aa7319" filter="url(#a)"/>
   <path d="m1808.1298,1110.4482c2.585.2741 4.625,2.5497 4.625,5.3086s-2.04,5.007-4.625,5.2776c2.7155-.134 4.875-2.4218 4.875-5.2776s-2.1595-5.1728-4.875-5.3086zm-2.7812,9.9381c.09.053.1884.1072.2812.1544 .2731.059.576.092.875.092h.1562c-.4638-.012-.8856-.109-1.3124-.2469z" fill="#aa7319" filter="url(#a)"/>
   <path transform="matrix(1 0 0 1.0242 0 -26.965)" d="m1811.3728,1112.0732c.7652.9068 1.2187,2.0983 1.2187,3.4063 0,2.8235-2.1916,5.1562-4.875,5.1562-.503,0-.9498-.1006-1.4063-.25-.1933-.1161-.3858-.2345-.5624-.375 .2351.2071.4819.4015.75.5625 .4564.1494.9032.25 1.4062.25 2.6834,0 4.875-2.3327 4.875-5.1563 0-1.4042-.538-2.6669-1.4062-3.5937z" fill="#54390e" filter="url(#a)"/>
   <path d="m1799.9062,1114.9375c-.01.5701.03,1.2027.2188,1.875 .7739,2.7536 4.2171,3.5695 6.9375,4.4687-1.9057-.8881-3.25-2.9245-3.25-5.2812 0-.3649.064-.7165.125-1.0625h-4.0313z" fill="url(#j)"/>
   <path d="m1802.3 1109.4 4.471-0.3576s1.4307-0.2981 1.6096 0.1192 2.4441 4.9479 2.4441 4.9479 1.7492 3.5126-0.6557 4.2326-3.2788-2.5634-3.2788-2.5634l-1.7288-3.5768s-0.6557-1.4904-1.3711-1.4307-1.6095 0.1192-1.6095 0.1192z" fill="url(#h)"/>
   <path d="m1809.2188,1110.25c-2.9796,0-5.4063,2.5729-5.4063,5.75s2.4267,5.75 5.4063,5.75 5.375-2.5729 5.375-5.75-2.3955-5.75-5.375-5.75zm.031.3438c2.8314,0 5.125,2.4266 5.125,5.4062s-2.2936,5.375-5.125,5.375c-.9232,0-1.7831-.2381-2.5312-.6875-.1166-.07-.2332-.1399-.3438-.2187l-.063-.031c-.2354-.1729-.4518-.3832-.6563-.5937-.036-.037-.059-.087-.094-.125-.1794-.1962-.3503-.4026-.5-.625-.034-.051-.062-.1047-.094-.1563-.1624-.2599-.3194-.5238-.4376-.8125v-.031c-.085-.2113-.1596-.4324-.2187-.6563-.031-.1162-.07-.2246-.094-.3437-.01-.039.01-.086 0-.125-.025-.1462-.049-.2874-.063-.4376-.017-.1812-.031-.345-.031-.5312 0-.2294 0-.4656.031-.6875 .014-.1168.041-.2294.063-.3437 .04-.2212.091-.4457.1562-.6563 .044-.1413.1021-.2702.1562-.4063 .1148-.2874.2487-.5525.4063-.8124 .044-.072.078-.1494.125-.2188 .1664-.2479.3601-.4728.5625-.6875 .2267-.2405.484-.4641.75-.6563 .1406-.1014.2872-.1947.4375-.2812 .2885-.1661.5872-.3016.9063-.4062 .1408-.046.2603-.123.4062-.1563h.063 .1875c.2845-.052.5765-.094.875-.094z" fill="url(#e)"/>
   <path d="m1802.4 1109.2 4.471-0.3576s1.4307-0.2981 1.6096 0.1192 2.4441 4.9479 2.4441 4.9479 1.7492 3.5126-0.6557 4.2326-3.2788-2.5634-3.2788-2.5634l-1.7288-3.5768s-0.6557-1.4904-1.3711-1.4307-1.6095 0.1192-1.6095 0.1192z" fill="url(#g)"/>
   <path transform="matrix(-.88696 0 0 .90003 2860.1 569.8)" d="m1185.6 607.24c0 0.82843-0.6436 1.5-1.4375 1.5s-1.4375-0.67157-1.4375-1.5 0.6436-1.5 1.4375-1.5 1.4375 0.67158 1.4375 1.5z" fill="url(#f)"/>
   <path transform="matrix(-.865 0 0 .8853 2834.2 578.83)" d="m1185.6 607.24c0 0.82843-0.6436 1.5-1.4375 1.5s-1.4375-0.67157-1.4375-1.5 0.6436-1.5 1.4375-1.5 1.4375 0.67158 1.4375 1.5z" fill="#907b3c"/>
  </g>
  <path d="m244.37 437.66-1e-3 15.59 11.21-1.97 1.506-16.566z" fill="url(#u)"/>
  <path d="m244.37 437.66-9.8775-4.4523 3.012 17.319 6.927 2.723z" fill="#4d4d4d"/>
  <g transform="matrix(.84927 0 0 .84927 -1120.9 -548.84)">
   <path transform="matrix(-.90639 0 0 .95382 2883.7 536.89)" d="m1191.1 607.14c0 3.1239-2.5324 5.6562-5.6562 5.6562s-5.6563-2.5324-5.6563-5.6562 2.5324-5.6562 5.6563-5.6562 5.6562 2.5324 5.6562 5.6562z" fill="url(#l)"/>
   <path d="m1808.6466,1110.6994c2.45.2618 4.3518,2.4498 4.3518,5.097 0,2.8236-2.1752,5.1267-4.8586,5.1267-.503,0-.9742-.089-1.4307-.2384-1.5466-.9289-2.5931-2.6716-2.5931-4.6797 0-2.5859 1.7161-4.7797 4.0238-5.3056h.06c.1476,0 .303-.015.4471,0z" fill="url(#k)"/>
   <path d="m1808.3 1108.9-3.5768-1.1923-7.0642 0.1788 4.6498 1.4308z" fill="#241600"/>
   <path transform="matrix(1 0 0 1.0242 0 -26.965)" d="m1811.3728,1112.0732c.7652.9068 1.2187,2.0983 1.2187,3.4063 0,2.8235-2.1916,5.1562-4.875,5.1562-.503,0-.9498-.1006-1.4063-.25-.1933-.1161-.3858-.2345-.5624-.375 .2351.2071.4819.4015.75.5625 .4564.1494.9032.25 1.4062.25 2.6834,0 4.875-2.3327 4.875-5.1563 0-1.4042-.538-2.6669-1.4062-3.5937z" fill="#54390e" filter="url(#a)"/>
   <path d="m1808.4392,1110.4482c2.585.2741 4.625,2.5497 4.625,5.3086s-2.04,5.007-4.625,5.2776c2.7155-.134 4.875-2.4218 4.875-5.2776s-2.1595-5.1728-4.875-5.3086zm-2.7812,9.9381c.09.053.1884.1072.2812.1544 .2731.059.576.092.875.092h.1562c-.4638-.012-.8856-.109-1.3124-.2469z" fill="#4d2908" filter="url(#a)" opacity=".8"/>
   <path d="m1808.1298,1110.4482c2.585.2741 4.625,2.5497 4.625,5.3086s-2.04,5.007-4.625,5.2776c2.7155-.134 4.875-2.4218 4.875-5.2776s-2.1595-5.1728-4.875-5.3086zm-2.7812,9.9381c.09.053.1884.1072.2812.1544 .2731.059.576.092.875.092h.1562c-.4638-.012-.8856-.109-1.3124-.2469z" fill="#aa7319" filter="url(#a)"/>
   <path d="m1799.9 1109.5 0.9688 2.125s-0.9117 1.3197-0.9376 3.2969h4.3126c0.3121-1.6542 1.3573-3.0316 2.75-3.7656l-0.063-0.6563z" fill="url(#i)"/>
   <path d="m1802.4169,1109.2863-.1788,1.4307-1.4605-.5067c0,0-1.6095-.03-1.8182-.1193s-.3875-.2086-.3875-.2086v-.2683l-1.0433-.3278 .09-1.401 .9836.2981-.03-.2384c0,0 .407.1221.7796.1618s1.4559.077 1.4559.077l-.06.5067z" fill="#9d8346"/>
   <path d="m1808.1298,1110.4482c2.585.2741 4.625,2.5497 4.625,5.3086s-2.04,5.007-4.625,5.2776c2.7155-.134 4.875-2.4218 4.875-5.2776s-2.1595-5.1728-4.875-5.3086zm-2.7812,9.9381c.09.053.1884.1072.2812.1544 .2731.059.576.092.875.092h.1562c-.4638-.012-.8856-.109-1.3124-.2469z" fill="#aa7319" filter="url(#a)"/>
   <path d="m1808.1298,1110.4482c2.585.2741 4.625,2.5497 4.625,5.3086s-2.04,5.007-4.625,5.2776c2.7155-.134 4.875-2.4218 4.875-5.2776s-2.1595-5.1728-4.875-5.3086zm-2.7812,9.9381c.09.053.1884.1072.2812.1544 .2731.059.576.092.875.092h.1562c-.4638-.012-.8856-.109-1.3124-.2469z" fill="#aa7319" filter="url(#a)"/>
   <path d="m1808.1298,1110.4482c2.585.2741 4.625,2.5497 4.625,5.3086s-2.04,5.007-4.625,5.2776c2.7155-.134 4.875-2.4218 4.875-5.2776s-2.1595-5.1728-4.875-5.3086zm-2.7812,9.9381c.09.053.1884.1072.2812.1544 .2731.059.576.092.875.092h.1562c-.4638-.012-.8856-.109-1.3124-.2469z" fill="#aa7319" filter="url(#a)"/>
   <path d="m1808.1298,1110.4482c2.585.2741 4.625,2.5497 4.625,5.3086s-2.04,5.007-4.625,5.2776c2.7155-.134 4.875-2.4218 4.875-5.2776s-2.1595-5.1728-4.875-5.3086zm-2.7812,9.9381c.09.053.1884.1072.2812.1544 .2731.059.576.092.875.092h.1562c-.4638-.012-.8856-.109-1.3124-.2469z" fill="#aa7319" filter="url(#a)"/>
   <path transform="matrix(1 0 0 1.0242 0 -26.965)" d="m1811.3728,1112.0732c.7652.9068 1.2187,2.0983 1.2187,3.4063 0,2.8235-2.1916,5.1562-4.875,5.1562-.503,0-.9498-.1006-1.4063-.25-.1933-.1161-.3858-.2345-.5624-.375 .2351.2071.4819.4015.75.5625 .4564.1494.9032.25 1.4062.25 2.6834,0 4.875-2.3327 4.875-5.1563 0-1.4042-.538-2.6669-1.4062-3.5937z" fill="#54390e" filter="url(#a)"/>
   <path d="m1799.9062,1114.9375c-.01.5701.03,1.2027.2188,1.875 .7739,2.7536 4.2171,3.5695 6.9375,4.4687-1.9057-.8881-3.25-2.9245-3.25-5.2812 0-.3649.064-.7165.125-1.0625h-4.0313z" fill="url(#j)"/>
   <path d="m1802.3 1109.4 4.471-0.3576s1.4307-0.2981 1.6096 0.1192 2.4441 4.9479 2.4441 4.9479 1.7492 3.5126-0.6557 4.2326-3.2788-2.5634-3.2788-2.5634l-1.7288-3.5768s-0.6557-1.4904-1.3711-1.4307-1.6095 0.1192-1.6095 0.1192z" fill="url(#h)"/>
   <path d="m1809.2188,1110.25c-2.9796,0-5.4063,2.5729-5.4063,5.75s2.4267,5.75 5.4063,5.75 5.375-2.5729 5.375-5.75-2.3955-5.75-5.375-5.75zm.031.3438c2.8314,0 5.125,2.4266 5.125,5.4062s-2.2936,5.375-5.125,5.375c-.9232,0-1.7831-.2381-2.5312-.6875-.1166-.07-.2332-.1399-.3438-.2187l-.063-.031c-.2354-.1729-.4518-.3832-.6563-.5937-.036-.037-.059-.087-.094-.125-.1794-.1962-.3503-.4026-.5-.625-.034-.051-.062-.1047-.094-.1563-.1624-.2599-.3194-.5238-.4376-.8125v-.031c-.085-.2113-.1596-.4324-.2187-.6563-.031-.1162-.07-.2246-.094-.3437-.01-.039.01-.086 0-.125-.025-.1462-.049-.2874-.063-.4376-.017-.1812-.031-.345-.031-.5312 0-.2294 0-.4656.031-.6875 .014-.1168.041-.2294.063-.3437 .04-.2212.091-.4457.1562-.6563 .044-.1413.1021-.2702.1562-.4063 .1148-.2874.2487-.5525.4063-.8124 .044-.072.078-.1494.125-.2188 .1664-.2479.3601-.4728.5625-.6875 .2267-.2405.484-.4641.75-.6563 .1406-.1014.2872-.1947.4375-.2812 .2885-.1661.5872-.3016.9063-.4062 .1408-.046.2603-.123.4062-.1563h.063 .1875c.2845-.052.5765-.094.875-.094z" fill="url(#e)"/>
   <path d="m1802.4 1109.2 4.471-0.3576s1.4307-0.2981 1.6096 0.1192 2.4441 4.9479 2.4441 4.9479 1.7492 3.5126-0.6557 4.2326-3.2788-2.5634-3.2788-2.5634l-1.7288-3.5768s-0.6557-1.4904-1.3711-1.4307-1.6095 0.1192-1.6095 0.1192z" fill="url(#g)"/>
   <path transform="matrix(-.88696 0 0 .90003 2860.1 569.8)" d="m1185.6 607.24c0 0.82843-0.6436 1.5-1.4375 1.5s-1.4375-0.67157-1.4375-1.5 0.6436-1.5 1.4375-1.5 1.4375 0.67158 1.4375 1.5z" fill="url(#f)"/>
   <path transform="matrix(-.865 0 0 .8853 2834.2 578.83)" d="m1185.6 607.24c0 0.82843-0.6436 1.5-1.4375 1.5s-1.4375-0.67157-1.4375-1.5 0.6436-1.5 1.4375-1.5 1.4375 0.67158 1.4375 1.5z" fill="#907b3c"/>
  </g>
  <path d="m440.22 316.68s-11.814 2.8257-15.813 6.0241c-2.4677 2.2915-3.765 7.7184-3.765 7.7184s-4.9916 47.896-4.975 49.329 1.8775 2.8815 1.8775 2.8815l-7.2565 2.0066-0.3765-67.018z" fill="url(#v)"/>
  <path d="m430.24 316.12s-0.5648 5.6476-4.5181 5.4593-6.5889-0.94127-10.166 2.0708-4.3298 7.1536-4.3298 7.1536l-0.753 53.276-9.0232-2.6377s2.8109-0.9391 2.9991-1.8804-4.1416-49.134-4.1416-49.134-1.1295-8.2831-2.6355-9.2244-8.6596-2.8238-8.6596-3.7651" fill="url(#w)"/>
  <path d="m401.45 381.44 2.0578 10.733 6.6422 2.2674 0.2599-10.676z" fill="#464646"/>
  <path d="m410.28 383.7-0.1334 10.739 6.3518-1.6394 1.0678-10.169z" fill="#5b5b5b"/>
  <path d="m194.96 357.53-13.931 50.075" fill="none" stroke="#363636" stroke-width="1.506"/>
  <g transform="translate(-1559.9 -658.52)">
   <path d="m1716.2 1075 20.393 5.3983 11.663-2.3215-22.958-5.2086z" fill="#717171"/>
   <path d="m1737.5 1091.5 0.375 7.9021 14.063-4.012-0.131-7.2786z" fill="#3c3c3c"/>
   <path d="m1737.8 1091.2-28.177-8.7221 0.753 8.2831 27.485 8.6597z" fill="#545454"/>
   <path d="m1736 1086.2 1.8216 5.2711 14.056-3.326-3.8276-4.8291z" fill="#4c4c4c"/>
   <path d="m1736.2 1085.9-20.404-6.0914-6.1371 2.7014 28.112 8.9141z" fill="#676767"/>
   <path d="m1716.1 1075-0.061 4.8974 20.331 6.3352 0.7531-6.024z" fill="#555"/>
   <path d="m1736.4 1080.2v6.024l11.801-2.509v-5.7116z" fill="#3c3c3c"/>
   <path id="n" transform="matrix(.95784,.28731,0,1,0,0)" d="m1790.91879,570.9303h2.1849a.70699,.70699 0 0,1 .70699.70699v2.67789a.70699,.70699 0 0,1 -.70699.70699h-2.1849a.70699,.70699 0 0,1 -.70699-.70699v-2.67789a.70699,.70699 0 0,1 .70699-.70699" fill="#1d1d1d" stroke="#254322" stroke-width=".40871"/>
   <path d="m1715.1809,1086.98c-3.4699,1.9226-7.4618,2.4262-11.282,3.2519-1.123.2138-2.3003.5321-3.1414,1.3534-.515,1.3026.7678,2.7546 2.1008,2.6702 1.6011.1036 3.208-.148 4.7613-.5113 2.2282-.864 4.0395-2.5108 6.2405-3.431 1.0553-.5424 2.6403-1.3143 3.7071-1.8334 0,0 .4905-1.6298-2.1575-1.4915" fill="url(#ar)" stroke="#896e2d" stroke-width=".1"/>
   <path transform="translate(-2.6516 .46967)" d="m1719.4688,1086.6875c.477.4427.3124,1.0625.3124,1.0625-1.0668.5191-2.6634,1.3013-3.7187,1.8438-2.201.9202-3.9905,2.5422-6.2187,3.4062-1.5534.3633-3.1802.6348-4.7813.5312-.3099.02-.6237-.062-.9063-.1874 .388.296.8578.4682 1.3438.4374 1.6011.1036 3.228-.1367 4.7812-.5 2.2283-.864 4.0178-2.5172 6.2188-3.4374 1.0553-.5425 2.652-1.3247 3.7188-1.8438 0,0 .2849-.923-.75-1.3125z" clip-path="url(#bg)" fill="#675222" filter="url(#a)"/>
   <use transform="translate(14.143 4.3865)" width="744.09448" height="1052.3622" xlink:href="#n"/>
   <path d="m1730.0302,1091.753c-2.871,1.2434-5.7777,2.4239-8.611,3.7339-1.5959.7641-2.5463,1.4576-3.675,2.6524-.9249,1.5551.3724,3.7367 2.3615,3.9244 1.3669.4662 3.1142-.036 3.7564-1.231 1.2827-1.5848 2.2445-3.4185 3.9911-4.6706 1.0412-.9307 2.2064-1.8047 3.6074-2.2783 .6639-.4751.2853-1.5701-.5498-1.6716-.3067-.1308-.6305-.2486-.8806-.4592z" fill="url(#at)" stroke="#896e2d" stroke-width=".1"/>
   <path transform="translate(-2.6516 .46967)" d="m1733.7188,1091.7812c.3724.3845.41,1.0369-.063,1.375-1.401.4737-2.5525,1.3506-3.5937,2.2813-1.7466,1.2521-2.7173,3.0714-4,4.6563-.6422,1.1949-2.3831,1.7162-3.75,1.25-.3879-.037-.7386-.2062-1.0625-.375 .4243.3286.9202.5702 1.5.625 1.3669.4662 3.1078-.024 3.75-1.2188 1.2827-1.5848 2.2534-3.4354 4-4.6875 1.0412-.9307 2.224-1.8076 3.625-2.2813 .618-.4422.3098-1.4098-.4062-1.625z" clip-path="url(#bf)" fill="#675222" filter="url(#a)"/>
   <use transform="translate(6.8501 2.1213)" width="744.09448" height="1052.3622" xlink:href="#n"/>
   <path d="m1722.1607,1089.2068c-3.7271,1.9506-7.8619,2.891-11.7461,4.4527-.9621.5105-1.9767,1.2516-2.2422,2.3642-.013,1.1316 1.0644,1.9183 2.0656,2.1786 1.5064.4311 4.0802-.414 5.2846-1.4216 2.6725-1.9944 4.3902-3.6591 7.4377-5.0717 .6644-.1353 1.0442-.8852.712-1.4916-.2569-.5851-.9195-.8929-1.5116-1.0106z" fill="url(#as)" stroke="#896e2d" stroke-width=".1"/>
   <path transform="translate(-2.6516 .46967)" d="m1725.4375,1088.9688c.182.1449.3424.2835.4375.5 .3322.6064-.054,1.3647-.7188,1.5-3.0474,1.4126-4.765,3.068-7.4374,5.0624-1.2044,1.0077-3.7749,1.8687-5.2813,1.4376-.2103-.055-.4188-.1506-.625-.25 .3304.2285.6948.4044 1.0625.5 1.5064.4311 4.1081-.3987 5.3125-1.4063 2.6725-1.9944 4.39-3.6499 7.4375-5.0625 .6644-.1353 1.0197-.8936.6875-1.5-.1644-.3745-.503-.6111-.875-.7812z" clip-path="url(#bd)" fill="#675222" filter="url(#a)"/>
   <path transform="translate(-2.6516 -.53033)" d="m1720.9375,1098.2499c-1.7627,1.3703-.1004,4.0266 1.8125,4.2813 1.3052.4451 2.8882-.044 3.5938-1.125-.688.2166-1.4729.233-2.1563,0-.4973-.047-1.1132-.5574-1.5-.8126-1.2367-.8393-1.75-2.3437-1.75-2.3437z" clip-path="url(#p)" fill="url(#an)" filter="url(#bb)"/>
   <path transform="matrix(.97095 0 0 .97095 47.171 32.243)" d="m1711.7812,1094.0938c-.4463.4034-.8271.8751-.9687,1.4687-.013,1.1316 1.0613,1.8959 2.0625,2.1563 1.5064.4311 4.1081-.3987 5.3125-1.4063l.5-.375c-.4376.2169-.7852.4819-1.2813.625-.9823.2833-2.028.3718-2.7812.1563-.6752-.1887-1.2668-.4905-1.75-.875s-.8549-.847-1.0625-1.3126c-.066-.1481 0-.2888-.031-.4374z" clip-path="url(#be)" fill="url(#ao)" filter="url(#bc)"/>
   <path transform="translate(-2.6516 -.53033)" d="m1708.25,1094.375c-.7439-.149-1.7921-.5581-2.8125-1.3125-.5762-.426-1.0766-.9025-1.4375-1.3437-.1485.1064-.3356.1511-.4688.2812-.515,1.3026.7608,2.7406 2.0938,2.6562 .8793.057 1.7521-.1642 2.625-.2812z" clip-path="url(#bh)" fill="url(#ap)" filter="url(#ba)"/>
   <path transform="matrix(.91777 0 0 .91777 137.94 89.985)" d="m1717.8438,1086.5c-3.47,1.9226-7.4611,2.4243-11.2813,3.25-1.123.2138-2.3152.5537-3.1563,1.375-.2984.7549.025,1.5354.5938,2.0625-.2203-.4416-.2869-.949-.094-1.4375 .8411-.8213 2.0333-1.1612 3.1563-1.375 3.8202-.8257 7.8113-1.3274 11.2813-3.25l.2187.031c.8275-.043 1.331.083 1.6563.2813-.1162-.4546-.5764-.9888-2.1563-.9063l-.2187-.031z" clip-path="url(#bi)" fill="#e8d599" filter="url(#ax)"/>
   <path transform="translate(-2.6516 -.53033)" d="m1732.4313,1092.5462c-2.6349,1.1413-5.3155,2.2394-7.9158,3.4417-1.4647.7013-2.3197,1.3127-3.3556,2.4091-.5376.9039-.254,2.0565.4876,2.8108-.3919-.6902-.4421-1.542-.029-2.2372 1.0359-1.0964 1.8909-1.7078 3.3556-2.4091 2.6003-1.2023 5.2808-2.3004 7.9158-3.4417 .2295.1933.5215.3103.803.4303 .1184.014.2191.034.3154.086-.1-.3284-.3805-.6119-.7743-.6597-.2815-.1201-.5735-.237-.803-.4303z" clip-path="url(#p)" fill="#e8d599" filter="url(#ay)"/>
   <path transform="translate(-2.6516 -.53033)" d="m1724.6734,1089.9138c-3.4206,1.7902-7.219,2.6393-10.7838,4.0726-.8829.4685-1.8213,1.1586-2.0649,2.1797-.01.5272.2612.9483.6309,1.2906-.1053-.2175-.175-.4574-.1721-.717 .2437-1.0211 1.182-1.7112 2.065-2.1797 3.5648-1.4333 7.3632-2.2824 10.7838-4.0726 .3274.065.6677.1923.9465.4015-.01-.021-.017-.037-.029-.057-.2358-.5369-.8332-.8097-1.3767-.9177z" clip-path="url(#bj)" fill="#e8d599" filter="url(#az)"/>
  </g>
  <g transform="matrix(1.506 0 0 1.506 -1551.3 -449.11)">
   <path d="m1147.9 534.35v43.273l3.5012-0.84679 0.123-42.668z" fill="#333"/>
   <path d="m1145.5 534.24-0.015 42.735 2.3736 0.65548v-43.273z" fill="#4d4d4d"/>
  </g>
  <g transform="matrix(1.506 0 0 1.506 -1563.3 -452.5)">
   <path d="m1147.8 534.11-0.25 43.5 3.875-0.83155-0.375-42.668z" fill="#333"/>
   <path d="m1145.5 534.24-0.015 42.852 2.375 0.5381 0.094-43.265z" fill="#4d4d4d"/>
  </g>
  <g transform="matrix(.94976 0 0 .94976 -1590.7 -636.11)">
   <path transform="matrix(-.90639 0 0 .95382 2883.7 536.89)" d="m1191.1 607.14c0 3.1239-2.5324 5.6562-5.6562 5.6562s-5.6563-2.5324-5.6563-5.6562 2.5324-5.6562 5.6563-5.6562 5.6562 2.5324 5.6562 5.6562z" fill="url(#l)"/>
   <path d="m1808.6466,1110.6994c2.45.2618 4.3518,2.4498 4.3518,5.097 0,2.8236-2.1752,5.1267-4.8586,5.1267-.503,0-.9742-.089-1.4307-.2384-1.5466-.9289-2.5931-2.6716-2.5931-4.6797 0-2.5859 1.7161-4.7797 4.0238-5.3056h.06c.1476,0 .303-.015.4471,0z" fill="url(#k)"/>
   <path d="m1808.3 1108.9-3.5768-1.1923-7.0642 0.1788 4.6498 1.4308z" fill="#241600"/>
   <path transform="matrix(1 0 0 1.0242 0 -26.965)" d="m1811.3728,1112.0732c.7652.9068 1.2187,2.0983 1.2187,3.4063 0,2.8235-2.1916,5.1562-4.875,5.1562-.503,0-.9498-.1006-1.4063-.25-.1933-.1161-.3858-.2345-.5624-.375 .2351.2071.4819.4015.75.5625 .4564.1494.9032.25 1.4062.25 2.6834,0 4.875-2.3327 4.875-5.1563 0-1.4042-.538-2.6669-1.4062-3.5937z" fill="#54390e" filter="url(#a)"/>
   <path d="m1808.4392,1110.4482c2.585.2741 4.625,2.5497 4.625,5.3086s-2.04,5.007-4.625,5.2776c2.7155-.134 4.875-2.4218 4.875-5.2776s-2.1595-5.1728-4.875-5.3086zm-2.7812,9.9381c.09.053.1884.1072.2812.1544 .2731.059.576.092.875.092h.1562c-.4638-.012-.8856-.109-1.3124-.2469z" fill="#4d2908" filter="url(#a)" opacity=".8"/>
   <path d="m1808.1298,1110.4482c2.585.2741 4.625,2.5497 4.625,5.3086s-2.04,5.007-4.625,5.2776c2.7155-.134 4.875-2.4218 4.875-5.2776s-2.1595-5.1728-4.875-5.3086zm-2.7812,9.9381c.09.053.1884.1072.2812.1544 .2731.059.576.092.875.092h.1562c-.4638-.012-.8856-.109-1.3124-.2469z" fill="#aa7319" filter="url(#a)"/>
   <path d="m1799.9 1109.5 0.9688 2.125s-0.9117 1.3197-0.9376 3.2969h4.3126c0.3121-1.6542 1.3573-3.0316 2.75-3.7656l-0.063-0.6563z" fill="url(#i)"/>
   <path d="m1802.4169,1109.2863-.1788,1.4307-1.4605-.5067c0,0-1.6095-.03-1.8182-.1193s-.3875-.2086-.3875-.2086v-.2683l-1.0433-.3278 .09-1.401 .9836.2981-.03-.2384c0,0 .407.1221.7796.1618s1.4559.077 1.4559.077l-.06.5067z" fill="#9d8346"/>
   <path d="m1808.1298,1110.4482c2.585.2741 4.625,2.5497 4.625,5.3086s-2.04,5.007-4.625,5.2776c2.7155-.134 4.875-2.4218 4.875-5.2776s-2.1595-5.1728-4.875-5.3086zm-2.7812,9.9381c.09.053.1884.1072.2812.1544 .2731.059.576.092.875.092h.1562c-.4638-.012-.8856-.109-1.3124-.2469z" fill="#aa7319" filter="url(#a)"/>
   <path d="m1808.1298,1110.4482c2.585.2741 4.625,2.5497 4.625,5.3086s-2.04,5.007-4.625,5.2776c2.7155-.134 4.875-2.4218 4.875-5.2776s-2.1595-5.1728-4.875-5.3086zm-2.7812,9.9381c.09.053.1884.1072.2812.1544 .2731.059.576.092.875.092h.1562c-.4638-.012-.8856-.109-1.3124-.2469z" fill="#aa7319" filter="url(#a)"/>
   <path d="m1808.1298,1110.4482c2.585.2741 4.625,2.5497 4.625,5.3086s-2.04,5.007-4.625,5.2776c2.7155-.134 4.875-2.4218 4.875-5.2776s-2.1595-5.1728-4.875-5.3086zm-2.7812,9.9381c.09.053.1884.1072.2812.1544 .2731.059.576.092.875.092h.1562c-.4638-.012-.8856-.109-1.3124-.2469z" fill="#aa7319" filter="url(#a)"/>
   <path d="m1808.1298,1110.4482c2.585.2741 4.625,2.5497 4.625,5.3086s-2.04,5.007-4.625,5.2776c2.7155-.134 4.875-2.4218 4.875-5.2776s-2.1595-5.1728-4.875-5.3086zm-2.7812,9.9381c.09.053.1884.1072.2812.1544 .2731.059.576.092.875.092h.1562c-.4638-.012-.8856-.109-1.3124-.2469z" fill="#aa7319" filter="url(#a)"/>
   <path transform="matrix(1 0 0 1.0242 0 -26.965)" d="m1811.3728,1112.0732c.7652.9068 1.2187,2.0983 1.2187,3.4063 0,2.8235-2.1916,5.1562-4.875,5.1562-.503,0-.9498-.1006-1.4063-.25-.1933-.1161-.3858-.2345-.5624-.375 .2351.2071.4819.4015.75.5625 .4564.1494.9032.25 1.4062.25 2.6834,0 4.875-2.3327 4.875-5.1563 0-1.4042-.538-2.6669-1.4062-3.5937z" fill="#54390e" filter="url(#a)"/>
   <path d="m1799.9062,1114.9375c-.01.5701.03,1.2027.2188,1.875 .7739,2.7536 4.2171,3.5695 6.9375,4.4687-1.9057-.8881-3.25-2.9245-3.25-5.2812 0-.3649.064-.7165.125-1.0625h-4.0313z" fill="url(#j)"/>
   <path d="m1802.3 1109.4 4.471-0.3576s1.4307-0.2981 1.6096 0.1192 2.4441 4.9479 2.4441 4.9479 1.7492 3.5126-0.6557 4.2326-3.2788-2.5634-3.2788-2.5634l-1.7288-3.5768s-0.6557-1.4904-1.3711-1.4307-1.6095 0.1192-1.6095 0.1192z" fill="url(#h)"/>
   <path d="m1809.2188,1110.25c-2.9796,0-5.4063,2.5729-5.4063,5.75s2.4267,5.75 5.4063,5.75 5.375-2.5729 5.375-5.75-2.3955-5.75-5.375-5.75zm.031.3438c2.8314,0 5.125,2.4266 5.125,5.4062s-2.2936,5.375-5.125,5.375c-.9232,0-1.7831-.2381-2.5312-.6875-.1166-.07-.2332-.1399-.3438-.2187l-.063-.031c-.2354-.1729-.4518-.3832-.6563-.5937-.036-.037-.059-.087-.094-.125-.1794-.1962-.3503-.4026-.5-.625-.034-.051-.062-.1047-.094-.1563-.1624-.2599-.3194-.5238-.4376-.8125v-.031c-.085-.2113-.1596-.4324-.2187-.6563-.031-.1162-.07-.2246-.094-.3437-.01-.039.01-.086 0-.125-.025-.1462-.049-.2874-.063-.4376-.017-.1812-.031-.345-.031-.5312 0-.2294 0-.4656.031-.6875 .014-.1168.041-.2294.063-.3437 .04-.2212.091-.4457.1562-.6563 .044-.1413.1021-.2702.1562-.4063 .1148-.2874.2487-.5525.4063-.8124 .044-.072.078-.1494.125-.2188 .1664-.2479.3601-.4728.5625-.6875 .2267-.2405.484-.4641.75-.6563 .1406-.1014.2872-.1947.4375-.2812 .2885-.1661.5872-.3016.9063-.4062 .1408-.046.2603-.123.4062-.1563h.063 .1875c.2845-.052.5765-.094.875-.094z" fill="url(#e)"/>
   <path d="m1802.4 1109.2 4.471-0.3576s1.4307-0.2981 1.6096 0.1192 2.4441 4.9479 2.4441 4.9479 1.7492 3.5126-0.6557 4.2326-3.2788-2.5634-3.2788-2.5634l-1.7288-3.5768s-0.6557-1.4904-1.3711-1.4307-1.6095 0.1192-1.6095 0.1192z" fill="url(#g)"/>
   <path transform="matrix(-.88696 0 0 .90003 2860.1 569.8)" d="m1185.6 607.24c0 0.82843-0.6436 1.5-1.4375 1.5s-1.4375-0.67157-1.4375-1.5 0.6436-1.5 1.4375-1.5 1.4375 0.67158 1.4375 1.5z" fill="url(#f)"/>
   <path transform="matrix(-.865 0 0 .8853 2834.2 578.83)" d="m1185.6 607.24c0 0.82843-0.6436 1.5-1.4375 1.5s-1.4375-0.67157-1.4375-1.5 0.6436-1.5 1.4375-1.5 1.4375 0.67158 1.4375 1.5z" fill="#907b3c"/>
  </g>
  <g transform="matrix(1.2565 0 0 1.2565 -1504.2 -50.052)">
   <path d="m1285.2 320.79s-1.3916-3.7626-3.5753-6.2314-6.4834-2.6121-6.4834-2.6121l13.583-0.29585 5.0909 6.8457-0.915 51.922-7.3017-9.7508s1.9449 0.91429 1.6405-4.54-1.3593-23.159-2.039-35.338z" fill="#333" fill-rule="evenodd"/>
   <path d="m1275.1 309.87v1.9501s3.8025-0.20732 9.7566 1.9208 7.2048 7.4189 7.2048 7.4189l0.8377 49.761 8.615-9.2162s-2.2013-0.12593-1.7825-9.3635 1.5435-33.447 1.5435-33.447 2.8306-5.8336 7.5384-7.9052 10.051-4.184 10.051-4.184v-1.7133z" fill="url(#aq)"/>
   <path d="m1292.7 363.21v10.346l7.5801-1.1938 1.2537-10.664z" fill="#373737"/>
   <path d="m1292.7 363.21-7.0829-2.5467 2.6604 11.445 4.4225 1.4477z" fill="#4d4d4d"/>
  </g>
  <path d="m75.605 331.44 120.86 18.825 0.3765 7.5301-121.99-19.955z" fill="#939393"/>
  <path d="m212.36 312.22s80.008-12.989 83.396-12.989 15.981-5.8151 26.355-6.4006 50.538-2.5407 80.572-5.2711c28.991-2.6355 41.792-10.919 41.792-10.919s-10.657-5.2159-41.685-3.0658-239.83 15.06-239.83 15.06l-66.324 5.6511 0.5012 16.773-22.083 11.215-1.4668 11.698" fill="url(#x)"/>
  <path d="m75.605 333.44 120.86 19.532 0.3765 6.823-121.99-19.955z" fill="#363636"/>
  <path d="m109.11 299.93v21.084l106.93 16.19v-23.343z" fill="url(#y)"/>
  <path d="m196.09 344.36-114.83-17.696v-4.1416l116.15 17.696z" fill="#d2d0d1"/>
  <path d="m81.252 322.52 27.108-2.259 96.947 13.894-9.0518 6.1233z" fill="#fff"/>
  <g transform="matrix(1.506 0 0 1.506 -1551.3 -449.11)">
   <g id="c" transform="translate(-49.544 -8.1157)">
    <path id="d" transform="matrix(.664 0 0 .664 43.85 -130.27)" d="m1642.8 984.43 0.048 0.0196 5e-4 -4.1402 18.529-1.7002-0.225-0.02-18.352 1.7002z" fill="#808080"/>
    <path d="m1141.9 520.02 11.022-0.92028v-1.1322l-10.468 0.6977" fill="#1a1a1a"/>
    <path d="m1142 518.58 0.511 0.10644 10.43-0.71108-1.2637-0.0152z" fill="#666"/>
    <path d="m1142 518.58-0.6235 1.3566 0.5618 0.0861 0.5741-1.3338z" fill="#333"/>
   </g>
   <g id="b">
    <use transform="translate(-43.604 -7.2148)" width="1" height="1" xlink:href="#d"/>
    <use transform="translate(-48.086 -7.8993)" width="1" height="1" xlink:href="#d"/>
    <use transform="translate(2.97,.44375)" width="744.09448" height="1052.3622" xlink:href="#c"/>
    <use transform="translate(4.455,.66562)" width="744.09448" height="1052.3622" xlink:href="#c"/>
    <use transform="translate(7.425 1.1387)" width="744.09448" height="1052.3622" xlink:href="#c"/>
    <use transform="translate(8.91 1.3606)" width="744.09448" height="1052.3622" xlink:href="#c"/>
    <use transform="translate(10.395 1.6118)" width="744.09448" height="1052.3622" xlink:href="#c"/>
   </g>
   <use transform="translate(10.395 1.6361)" width="744.09448" height="1052.3622" xlink:href="#b"/>
   <use transform="translate(20.65 3.2308)" width="744.09448" height="1052.3622" xlink:href="#b"/>
   <use transform="translate(31.185 4.8254)" width="744.09448" height="1052.3622" xlink:href="#b"/>
   <use transform="translate(41.58,6.4615)" width="744.09448" height="1052.3622" xlink:href="#b"/>
   <use transform="translate(51.975 8.0389)" width="744.09448" height="1052.3622" xlink:href="#b"/>
   <use transform="translate(62.285 9.6194)" width="744.09448" height="1052.3622" xlink:href="#b"/>
   <use transform="translate(24.723 3.3423)" width="1" height="1" xlink:href="#d"/>
  </g>
  <path d="m309.68 205.86 23.828-24.903h-60.241l-108.92 109.24 56.099-4.8946z" fill="url(#z)"/>
  <path d="m400.42 274s29.265-17.076 24.849-28.614-25.241-18.864-46.644-17.315c-22.28 1.612-52.064-9.0746-60.284-13.558-12.874-7.0221-21.084-28.238-21.084-28.238l-26.355-0.75301-105.8 103.54z" fill="url(#aa)"/>
  <path d="m424.68 292.58c-3.5699-16.694-34.812-9.7603-38.771-9.4845-23.98 1.8169-180.73 16.307-180.73 16.307l22.656 3.7533" fill="#eabb56"/>
  <path d="m421.19 272.84c-4.9952 6e-3 -11.049 0.24351-18.402 0.75301-39.214 2.7173-309.49 20.312-309.49 20.312l6.0241 0.75301s265.08-17.652 303.46-20.312c28.063-1.9446 37.25 1.2025 40.239 2.7297 0.8791-0.46989 1.4589-0.42357 1.4589-0.42357s-1.651-3.838-23.296-3.8121z" fill="url(#ab)"/>
  <path d="m354.68 299.58c-3.5699-16.694-43.812-6.7603-47.771-6.4845-23.98 1.8169-101.73 11.307-101.73 11.307l22.656 3.7533" fill="#f0ce85"/>
  <path d="m278.6 202.93 22.903 97.747 6.0301-1.1295-28.458-98.631z" fill="#1a1a1a"/>
  <path d="m278.92 200.91 24.849 99.398 4.8946-1.8825-27.485-98.645z" fill="url(#ac)"/>
  <path d="m212.55 306.38 1.506 6.4006 1.4792 4.5181-0.3765 10.12-17.384 10.211-0.1099 13.5s96.413-10.112 99.599-10.112 5.9924-10.705 27.108-12.425 41.997-2.9321 78.313-10.542 41.792-10.919 41.792-10.919v-30.497s-12.801 8.2831-41.792 10.919c-30.034 2.7304-70.198 4.6856-80.572 5.2711s-22.967 6.4006-26.355 6.4006-83.208 7.1536-83.208 7.1536z" fill="url(#ad)"/>
  <path d="m333.51 180.95v-3.012h-60.241v3.012z" fill="url(#ae)"/>
  <path d="m273.27 177.94-111.68 112.25 2.6087 0.3765 109.07-109.62z" fill="url(#af)"/>
  <path d="m72.216 339.46 4.518 0.75301s-1.47-16.081 1.8826-19.39 16.212-4.6239 19.39-8.2831 1.8826-11.295 1.8826-11.295l-3.7651-0.18825s1.6943 9.7892-3.9533 10.919-15.502 4.4575-18.072 7.7184-1.8825 19.767-1.8825 19.767z" fill="url(#ag)"/>
  <path d="m100.45 296.19 110.32 14.284 1.6943-1.9471-103.31-12.613z" fill="#666"/>
  <path d="m213.41 306.52 35.943-3.2778-101.08-11.663-35.015 2.3508z" fill="url(#ah)"/>
  <path transform="matrix(1.506 0 0 1.506 -2355.5 -1063.6)" d="m1845.9 870.65c-2.9317-7.6613-16.76-12.526-30.972-11.497-14.794 1.0704-34.57-6.0255-40.028-9.0026-8.5482-4.6627-14-20.25-14-20.25l-17.5-0.5" fill="none" filter="url(#au)" opacity=".2" stroke="#fff"/>
  <path transform="matrix(1.506 0 0 1.506 -2355.5 -1063.6)" d="m1845.4 872.15c-2.9317-7.6613-16.76-12.526-30.972-11.497-14.794 1.0704-34.57-6.0255-40.028-9.0026-8.5482-4.6627-14-20.25-14-20.25" fill="none" filter="url(#av)" opacity=".5" stroke="#0b0b0b"/>
  <path d="m213.63 287.66 6.0241 12.801-24.849-3.7651 7.1536-11.672z" fill="#1a1a1a"/>
  <path d="m191.9 258.82c-9.8951-0.0879-24.438 1.5625-24.438 1.5625l-0.031 0.0625c3.1577-0.34581 18.648-1.9902 27.063-1.3125 9.3498 0.75301 27.781 5.9688 27.781 5.9688l-16.942 35.947-0.3709 0.79986 1.2821-0.18464 17.344-36.75s-18.432-5.1845-27.781-5.9375c-1.1687-0.0941-2.4926-0.1437-3.9062-0.15625z" fill="#3a3a3a"/>
  <path d="m100.45 298.89 110.32 15.345v-3.7651l-110.32-14.284z" fill="#5c5c5c"/>
  <path d="m209.64 306.33v8.2831l6.0241 0.37651v-8.2831z" fill="#959595"/>
  <path transform="matrix(1.506 0 0 1.506 -2355.5 -1063.6)" d="m1859.2 910.15s-3.6362 2.6969-27.75 7.75-37.979 5.8581-52 7-15.884 7.75-18 7.75-65.875 7.25-65.875 7.25l0.25-9.6607" fill="url(#q)" filter="url(#aw)" opacity=".6" stroke="#fff"/>
  <path d="m81.219 326.65-4.5712 1.7193 118.36 21.827 1.3178-5.8358z" fill="#808080"/>
  <path d="m197.27 351.06 1.4562 9.1074s95.364-10.112 98.55-10.112 5.9925-10.705 27.108-12.425 41.997-2.9321 78.313-10.542 41.792-10.919 41.792-10.919v-9.0361s-1.3863 0.81007-7.2948 2.5885c-2.9543 0.8892-7.0397 2.0082-12.66 3.3886s-12.758 3.0391-21.837 4.9416-17.22 3.4015-24.614 4.6122-14.038 2.1362-20.237 2.8709c-12.399 1.4693-22.904 2.1992-33.462 3.0591-2.6394 0.21497-5.0027 0.57809-7.1064 1.0354s-3.9595 0.97744-5.6006 1.6002c-3.2824 1.2454-5.7076 2.743-7.5772 4.1886s-3.1947 2.8758-4.2358 3.9062-1.7919 1.6943-2.5884 1.6943c-29.574 1.2856-97.834 9.8132-97.834 9.8132l0.2697-15.728-3.7487 3.7996z" fill="url(#ai)"/>
  <path d="m76.648 328.37 0.083 5.0497 119.36 19.225v-5.1325z" fill="#595959"/>
  <path d="m194.54 359.65 4.1779 0.5164s-1.1301-17.58 1.506-21.584 13.038-5.874 15.537-10.302 1.0294-13.295 1.0294-13.295l-3.0121-0.23532s0.9035 9.8015-2.6061 12.847c-3.3113 2.873-13.13 5.6726-15.152 9.6188s-1.4803 22.434-1.4803 22.434z" fill="url(#aj)"/>
  <path d="m93.3 293.9v7.9066l6.0241 0.75301v-7.9066z" fill="url(#ak)"/>
  <path d="m441.57 276.68s-9.8833 6.7494-38.874 9.3849c-30.034 2.7304-70.198 5.062-80.572 5.6476s-25.602 6.0241-25.602 6.0241l-86.879 8.5933 6.0241 0.37651c0.8311-0.0745 76.731-7.4638 80.102-7.4638 3.3886 0 15.981-5.8151 26.356-6.4006s50.538-2.5407 80.572-5.2711c28.991-2.6355 41.792-10.919 41.792-10.919z" fill="url(#al)"/>
  <path d="m166.18 260.57-19.955 33.886 58.735 7.3922 17.319-36.76s-18.427-5.1885-27.777-5.9415-28.322 1.4234-28.322 1.4234z" fill="url(#am)"/>
 </g>
</svg>
