<?xml version="1.0" encoding="UTF-8"?>
<svg viewBox="0 0 744.09447 1052.362179" xmlns="http://www.w3.org/2000/svg" xmlns:xlink="http://www.w3.org/1999/xlink">
 <defs>
  <linearGradient id="l">
   <stop offset="0"/>
   <stop stop-color="#fff" offset="1"/>
  </linearGradient>
  <linearGradient id="b">
   <stop stop-color="#dda236" offset="0"/>
   <stop stop-color="#ffff7f" offset=".25"/>
   <stop stop-color="#7f5824" offset=".5"/>
   <stop stop-color="#ffff95" offset="1"/>
  </linearGradient>
  <linearGradient id="aa">
   <stop offset="0"/>
   <stop stop-opacity="0" offset="1"/>
  </linearGradient>
  <linearGradient id="ab">
   <stop stop-color="#f9dbb6" offset="0"/>
   <stop stop-color="#ffe" offset="1"/>
  </linearGradient>
  <linearGradient id="a">
   <stop stop-color="#ad6300" offset="0"/>
   <stop stop-color="#ffff95" offset="1"/>
  </linearGradient>
  <linearGradient id="du" x1="204.45" x2="306.34" gradientUnits="userSpaceOnUse" xlink:href="#b" spreadMethod="reflect"/>
  <linearGradient id="dt" x1="263.94" x2="258.53" y1="804.65" y2="846.83" gradientTransform="matrix(.50273 .13657 -.064033 .99134 498.45 -413.6)" gradientUnits="userSpaceOnUse" xlink:href="#b"/>
  <linearGradient id="ds" x1="422.64" x2="473.22" y1="1039.3" y2="1039.3" gradientUnits="userSpaceOnUse" xlink:href="#b"/>
  <linearGradient id="f" x1="465.71" x2="506.43" gradientUnits="userSpaceOnUse" xlink:href="#aa"/>
  <linearGradient id="dr" x1="494.44" x2="569.5" gradientUnits="userSpaceOnUse" xlink:href="#b"/>
  <linearGradient id="dq" x1="230.91" x2="278.56" gradientTransform="matrix(.99836 .057188 -.071002 1.2395 79.591 -427.09)" gradientUnits="userSpaceOnUse" xlink:href="#b"/>
  <linearGradient id="dp" x1="230.91" x2="278.56" gradientTransform="matrix(.99836 .057188 -.071002 1.2395 90.434 -654.43)" gradientUnits="userSpaceOnUse" xlink:href="#b"/>
  <linearGradient id="do" x1="230.91" x2="278.56" gradientTransform="matrix(1.0429 .024665 -.074167 .5346 83.63 -506.05)" gradientUnits="userSpaceOnUse" xlink:href="#b"/>
  <linearGradient id="z" x2="0" y1="1172.3" y2="1073.7" gradientUnits="userSpaceOnUse" xlink:href="#b" spreadMethod="reflect"/>
  <linearGradient id="y" x1="246.18" x2="262.18" gradientUnits="userSpaceOnUse" xlink:href="#a"/>
  <linearGradient id="dn" x1="443.85" x2="468.04" y1="-164.13" y2="-162.07" gradientTransform="matrix(.99967 .019278 -.032883 .9997 -233.14 1215.5)" gradientUnits="userSpaceOnUse" xlink:href="#a"/>
  <linearGradient id="dm" x1="263.94" x2="258.53" y1="804.65" y2="846.83" gradientTransform="matrix(-.70003 -.051086 -.024374 1.3565 664.41 -1459.8)" gradientUnits="userSpaceOnUse" xlink:href="#b"/>
  <linearGradient id="dl" x1="263.94" x2="258.53" y1="804.65" y2="846.83" gradientTransform="matrix(.46053 -.037636 .016035 .99935 392.7 264.85)" gradientUnits="userSpaceOnUse" xlink:href="#b"/>
  <linearGradient id="dk" x1="263.94" x2="258.53" y1="804.65" y2="846.83" gradientTransform="matrix(.40377 -.0061142 -.036534 .99847 262.18 -1504.6)" gradientUnits="userSpaceOnUse" xlink:href="#b"/>
  <linearGradient id="dj" x1="263.94" x2="258.53" y1="804.65" y2="846.83" gradientTransform="matrix(-1.3387 -.037636 -.046612 .99935 869.29 -275.43)" gradientUnits="userSpaceOnUse" xlink:href="#b"/>
  <linearGradient id="di" x1="263.94" x2="258.53" y1="804.65" y2="846.83" gradientTransform="matrix(-.46053 -.037636 -.016035 .99935 591.03 -416.05)" gradientUnits="userSpaceOnUse" xlink:href="#b"/>
  <linearGradient id="dh" x1="263.94" x2="258.53" y1="804.65" y2="846.83" gradientTransform="matrix(-1.3184 -.19471 -.2416 .98232 1030.1 76.844)" gradientUnits="userSpaceOnUse" xlink:href="#b"/>
  <linearGradient id="dg" x1="263.94" x2="258.53" y1="804.65" y2="846.83" gradientTransform="matrix(-1.2189 -.037636 -.042442 .99935 835.3 -151.74)" gradientUnits="userSpaceOnUse" xlink:href="#b"/>
  <linearGradient id="df" x1="263.94" x2="258.53" y1="804.65" y2="846.83" gradientTransform="matrix(-1.0393 -.037636 -.036188 .99935 777.08 -562.94)" gradientUnits="userSpaceOnUse" xlink:href="#b"/>
  <linearGradient id="de" x1="259.29" x2="253.89" y1="1126.1" y2="1168.3" gradientUnits="userSpaceOnUse" xlink:href="#b"/>
  <linearGradient id="dd" x1="443.85" x2="468.04" y1="-164.13" y2="-162.07" gradientTransform="matrix(.99967 .019278 -.032883 .9997 -204.56 788.7)" gradientUnits="userSpaceOnUse" xlink:href="#a"/>
  <linearGradient id="dc" x1="263.94" x2="258.53" y1="804.65" y2="846.83" gradientTransform="matrix(.74 0 0 1 81.825 -92.14)" gradientUnits="userSpaceOnUse" xlink:href="#b"/>
  <linearGradient id="db" x1="443.85" x2="468.04" y1="-164.13" y2="-162.07" gradientTransform="matrix(.99967 .019278 -.032883 .9997 -221.71 884.75)" gradientUnits="userSpaceOnUse" xlink:href="#a"/>
  <linearGradient id="da" x1="400.86" x2="419.93" y1="-115.27" y2="-115.39" gradientTransform="matrix(.99967 .019278 -.032883 .9997 122.42 682.93)" gradientUnits="userSpaceOnUse" xlink:href="#a"/>
  <linearGradient id="cz" x1="415.48" x2="437.22" y1="-110.41" y2="-111.9" gradientTransform="matrix(.99885 .038543 -.065741 .99853 95.755 667.78)" gradientUnits="userSpaceOnUse" xlink:href="#a"/>
  <linearGradient id="cy" x1="263.94" x2="258.53" y1="804.65" y2="846.83" gradientUnits="userSpaceOnUse" xlink:href="#b"/>
  <linearGradient id="cx" x1="264.7" x2="259.29" y1="863.95" y2="906.14" gradientUnits="userSpaceOnUse" xlink:href="#b"/>
  <linearGradient id="cw" x1="263.94" x2="258.53" y1="804.65" y2="846.83" gradientTransform="matrix(-1.2189 -.037636 -.042442 .99935 833.14 -712.71)" gradientUnits="userSpaceOnUse" xlink:href="#b"/>
  <linearGradient id="cv" x1="1750.4" x2="2215.5" y1="537.53" y2="573.95" gradientUnits="userSpaceOnUse" xlink:href="#b"/>
  <linearGradient id="cu" x1="1829.8" x2="1492.1" y1="626.8" y2="618.39" gradientUnits="userSpaceOnUse" xlink:href="#b" spreadMethod="reflect"/>
  <linearGradient id="i" x1="428.47" x2="508.67" gradientUnits="userSpaceOnUse" xlink:href="#a"/>
  <linearGradient id="ct" x1="499.39" x2="572.79" gradientUnits="userSpaceOnUse" xlink:href="#b"/>
  <linearGradient id="cs" x1="476.84" x2="550.25" gradientUnits="userSpaceOnUse" xlink:href="#b"/>
  <linearGradient id="cr" x1="414.69" x2="414.89" y1="-226.01" y2="-186.01" gradientUnits="userSpaceOnUse" xlink:href="#a" spreadMethod="reflect"/>
  <linearGradient id="cq" x1="393.96" x2="413.81" y1="-116.28" y2="-116.42" gradientTransform="matrix(.99967 .019278 -.032883 .9997 101.14 685.17)" gradientUnits="userSpaceOnUse" xlink:href="#a"/>
  <linearGradient id="x" x1="437.53" x2="505.24" y1="-194.24" y2="-194.78" gradientTransform="matrix(1.0419 0 0 1.3254 -55.484 1031)" gradientUnits="userSpaceOnUse" xlink:href="#a"/>
  <linearGradient id="w" x1="446.41" x2="446.62" y1="-222.64" y2="-182.64" gradientTransform="matrix(1.0419 0 0 1.3254 -83.749 1030.3)" gradientUnits="userSpaceOnUse" xlink:href="#a" spreadMethod="reflect"/>
  <linearGradient id="v" x1="415.61" x2="415.81" y1="-203.19" y2="-210.97" gradientTransform="matrix(1.4671 -.1401 .12601 1.3194 -134.99 1099.3)" gradientUnits="userSpaceOnUse" xlink:href="#a"/>
  <linearGradient id="u" x1="402.18" x2="502.55" gradientUnits="userSpaceOnUse" xlink:href="#a"/>
  <linearGradient id="cp" x1="380.71" x2="436.1" gradientUnits="userSpaceOnUse" xlink:href="#a"/>
  <linearGradient id="co" x1="413.33" x2="413.53" y1="-109.11" y2="-69.11" gradientUnits="userSpaceOnUse" xlink:href="#a" spreadMethod="reflect"/>
  <linearGradient id="cn" x1="416.19" x2="416.39" y1="25.176" y2="65.176" gradientUnits="userSpaceOnUse" xlink:href="#a" spreadMethod="reflect"/>
  <linearGradient id="cm" x1="411.91" x2="412.1" y1="142.49" y2="184.26" gradientUnits="userSpaceOnUse" xlink:href="#a" spreadMethod="reflect"/>
  <linearGradient id="cl" x1="436.84" x2="508.67" gradientUnits="userSpaceOnUse" xlink:href="#a"/>
  <linearGradient id="ck" x1="446.41" x2="446.62" y1="-222.64" y2="-182.64" gradientTransform="matrix(1.0419 0 0 1.3254 -76.73 850.99)" gradientUnits="userSpaceOnUse" xlink:href="#a" spreadMethod="reflect"/>
  <linearGradient id="cj" x1="415.61" x2="415.81" y1="-203.19" y2="-210.97" gradientTransform="matrix(1.4671 -.1401 .12601 1.3194 -127.97 919.96)" gradientUnits="userSpaceOnUse" xlink:href="#a"/>
  <linearGradient id="ci" x1="409.19" x2="502.6" gradientUnits="userSpaceOnUse" xlink:href="#a"/>
  <linearGradient id="ch" x1="373.57" x2="414.14" gradientUnits="userSpaceOnUse" xlink:href="#ab"/>
  <linearGradient id="cg" x1="387.42" x2="436.54" y1="575.81" y2="592.96" gradientUnits="userSpaceOnUse" xlink:href="#a"/>
  <linearGradient id="cf" x1="412.42" x2="467.81" gradientUnits="userSpaceOnUse" xlink:href="#a"/>
  <linearGradient id="ce" x1="417.43" x2="472.82" gradientUnits="userSpaceOnUse" xlink:href="#a"/>
  <linearGradient id="cd" x1="443.85" x2="468.04" y1="-164.13" y2="-162.07" gradientTransform="matrix(.99967 .019278 -.032883 .9997 45.829 1168.1)" gradientUnits="userSpaceOnUse" xlink:href="#a"/>
  <linearGradient id="cc" x1="361.37" x2="436.1" y1="760.58" y2="773.09" gradientUnits="userSpaceOnUse" xlink:href="#a"/>
  <linearGradient id="cb" x1="348.07" x2="373.6" y1="-256.36" y2="-257.88" gradientTransform="matrix(.99885 .038543 -.065741 .99853 89.55 670.28)" gradientUnits="userSpaceOnUse" xlink:href="#a"/>
  <linearGradient id="o" x1="437.53" x2="505.24" y1="-194.24" y2="-194.78" gradientTransform="matrix(.8552 0 0 1.2427 34.753 704.23)" gradientUnits="userSpaceOnUse" xlink:href="#a"/>
  <linearGradient id="n" x1="446.41" x2="446.62" y1="-222.64" y2="-182.64" gradientTransform="matrix(.8552 0 0 1.2427 6.5011 703.59)" gradientUnits="userSpaceOnUse" xlink:href="#a" spreadMethod="reflect"/>
  <linearGradient id="m" x1="387.75" x2="433.22" gradientUnits="userSpaceOnUse" xlink:href="#a"/>
  <linearGradient id="ca" x1="415.61" x2="415.81" y1="-203.19" y2="-210.97" gradientTransform="matrix(1.21 -.056528 .026619 1.2411 -30.392 736.38)" gradientUnits="userSpaceOnUse" xlink:href="#a"/>
  <linearGradient id="bz" x1="409.19" x2="509.57" gradientTransform="matrix(.81927 .050836 -.058066 .93579 127.87 -118)" gradientUnits="userSpaceOnUse" xlink:href="#a"/>
  <linearGradient id="by" x2="0" y1="-538.01" y2="-484.43" gradientUnits="userSpaceOnUse" xlink:href="#b"/>
  <linearGradient id="bx" x1="367.79" x2="440.66" y1="1170.3" y2="1275.6" gradientUnits="userSpaceOnUse" xlink:href="#a"/>
  <linearGradient id="bw" x1="565.58" x2="667.62" y1="730.56" y2="710.04" gradientUnits="userSpaceOnUse" xlink:href="#a"/>
  <linearGradient id="bv" x1="385.64" x2="398.33" gradientTransform="matrix(.99985 -4.6757e-19 -1.8703e-17 1.0002 -12.703 -8.6186)" gradientUnits="userSpaceOnUse" xlink:href="#a"/>
  <linearGradient id="bu" x1="415.61" x2="415.81" y1="-203.19" y2="-210.97" gradientTransform="matrix(1.1167 0 0 1 -53.207 -4.1078e-14)" gradientUnits="userSpaceOnUse" xlink:href="#a"/>
  <linearGradient id="bt" x1="415.61" x2="415.81" y1="-203.19" y2="-210.97" gradientTransform="matrix(1.1003 0 0 1 -47.632 116.9)" gradientUnits="userSpaceOnUse" xlink:href="#a"/>
  <linearGradient id="bs" x1="413.74" x2="413.96" y1="59.451" y2="44.406" gradientUnits="userSpaceOnUse" xlink:href="#a"/>
  <linearGradient id="br" x1="414.86" x2="413.68" y1="181.16" y2="168.64" gradientUnits="userSpaceOnUse" xlink:href="#a"/>
  <linearGradient id="bq" x1="412.28" x2="411.65" y1="1.0233" y2="-10.404" gradientUnits="userSpaceOnUse" xlink:href="#a"/>
  <linearGradient id="bp" x1="490.87" x2="641.02" y1="892.28" y2="959.79" gradientUnits="userSpaceOnUse" xlink:href="#a"/>
  <linearGradient id="bo" x1="545.49" x2="585.03" y1="655.34" y2="629.34" gradientUnits="userSpaceOnUse" xlink:href="#a"/>
  <linearGradient id="bn" x1="415.61" x2="415.81" y1="-203.19" y2="-210.97" gradientTransform="matrix(-2.0258 -1.9372 3.3883 -1.1836 1884.5 1740.6)" gradientUnits="userSpaceOnUse" xlink:href="#a"/>
  <linearGradient id="bm" x1="314.59" x2="516.31" gradientUnits="userSpaceOnUse" xlink:href="#a" spreadMethod="reflect"/>
  <linearGradient id="bl" x1="399.65" x2="436.1" y1="764.97" y2="773.09" gradientTransform="matrix(-.84343 -1.4262 1.2624 -1.1458 60.763 2656.2)" gradientUnits="userSpaceOnUse" xlink:href="#a" spreadMethod="reflect"/>
  <linearGradient id="bk" x1="455.72" x2="435.06" y1="-189.14" y2="-220.96" gradientTransform="matrix(-.78208 -1.3995 1.3081 -.85507 1183.1 1541.4)" gradientUnits="userSpaceOnUse" xlink:href="#a"/>
  <linearGradient id="bj" x1="409.19" x2="509.57" gradientTransform="matrix(-.43445 -1.0067 1.0329 -.55192 177.26 1920.3)" gradientUnits="userSpaceOnUse" xlink:href="#a"/>
  <linearGradient id="bi" x1="385.64" x2="398.33" gradientTransform="matrix(.99985 2.8947e-18 -1.0285e-17 1.0002 -70.248 93.092)" gradientUnits="userSpaceOnUse" xlink:href="#a"/>
  <linearGradient id="bh" x1="385.64" x2="398.33" gradientTransform="matrix(.99985 2.8947e-18 -1.0285e-17 1.0002 -81.846 2.641)" gradientUnits="userSpaceOnUse" xlink:href="#a"/>
  <linearGradient id="bg" x1="385.77" x2="389.62" y1="-111.55" y2="-111.51" gradientTransform="matrix(.99985 2.8947e-18 -1.0285e-17 1.0002 -91.56 -117.95)" gradientUnits="userSpaceOnUse" xlink:href="#a"/>
  <linearGradient id="bf" x1="385.64" x2="398.33" gradientTransform="matrix(.99985 2.8947e-18 -1.0285e-17 1.0002 -43.743 112.39)" gradientUnits="userSpaceOnUse" xlink:href="#a"/>
  <linearGradient id="be" x2="0" y1="-1027.7" y2="-987.57" gradientUnits="userSpaceOnUse" xlink:href="#b"/>
  <linearGradient id="bd" x1="230.91" x2="278.56" gradientUnits="userSpaceOnUse" xlink:href="#b"/>
  <linearGradient id="bc" x1="229.25" x2="296.95" gradientUnits="userSpaceOnUse" xlink:href="#b"/>
  <linearGradient id="bb" x1="230.26" x2="297.95" gradientUnits="userSpaceOnUse" xlink:href="#b"/>
  <linearGradient id="t" x1="221.81" x2="321.19" gradientUnits="userSpaceOnUse" xlink:href="#b"/>
  <linearGradient id="s" x1="281.19" x2="278.83" y1="934.11" y2="953.91" gradientUnits="userSpaceOnUse" xlink:href="#l" spreadMethod="reflect"/>
  <linearGradient id="ba" x1="533.97" x2="573.5" y1="867.29" y2="841.29" gradientUnits="userSpaceOnUse" xlink:href="#a"/>
  <linearGradient id="az" x1="348.07" x2="373.6" y1="-256.36" y2="-257.88" gradientTransform="matrix(.99967 .019278 -.032883 .9997 136.58 424.5)" gradientUnits="userSpaceOnUse" xlink:href="#a"/>
  <linearGradient id="ay" x1="288" x2="361.29" y1="792.42" y2="649.9" gradientUnits="userSpaceOnUse" xlink:href="#b" spreadMethod="reflect"/>
  <linearGradient id="ax" x1="248.03" x2="517.28" y1="-674.08" y2="-678.98" gradientUnits="userSpaceOnUse" xlink:href="#b"/>
  <linearGradient id="aw" x1="472.3" x2="508.41" gradientUnits="userSpaceOnUse" xlink:href="#b"/>
  <linearGradient id="av" x1="472.3" x2="508.41" gradientUnits="userSpaceOnUse" xlink:href="#a"/>
  <linearGradient id="au" x1="26.256" x2="74.637" y1="-961.25" y2="-1048.9" gradientTransform="matrix(.99977 -.021294 .021294 .99977 22.689 1.5537)" gradientUnits="userSpaceOnUse" xlink:href="#l"/>
  <radialGradient id="at" cx="92.281" cy="336.23" r="54.656" gradientTransform="matrix(1.7474 .69118 -.45536 1.0887 510.03 -5.204)" gradientUnits="userSpaceOnUse" xlink:href="#b"/>
  <radialGradient id="e" cx="486.07" cy="-246.57" r="20.357" gradientTransform="matrix(.65714 .525 -.5277 .61778 36.54 -349.43)" gradientUnits="userSpaceOnUse" xlink:href="#a" spreadMethod="reflect"/>
  <radialGradient id="d" cx="486.07" cy="-246.57" r="20.357" gradientTransform="matrix(.65714 .525 -.5277 .61778 36.54 -349.43)" gradientUnits="userSpaceOnUse" xlink:href="#ab" spreadMethod="reflect"/>
  <radialGradient id="c" cx="403.4" cy="-569.5" r="15.223" gradientTransform="matrix(1 -8.348e-6 1.1371e-5 .95835 .0075826 -23.713)" gradientUnits="userSpaceOnUse" xlink:href="#a" spreadMethod="reflect"/>
  <radialGradient id="as" cx="2132" cy="880.33" r="249.9" gradientTransform="matrix(-.35027 1.8869 -1.2206 -.22658 3630.3 -2904.6)" gradientUnits="userSpaceOnUse" xlink:href="#b" spreadMethod="reflect"/>
  <radialGradient id="ar" cx="2006.9" cy="434.9" r="211.53" gradientTransform="matrix(-.67384 1.6953 -4.1238 -1.6391 5243.8 -2583.5)" gradientUnits="userSpaceOnUse" xlink:href="#aa"/>
  <radialGradient id="aq" cx="936.72" cy="650.69" r="250.52" gradientTransform="matrix(-3.3347 -4.1973 2.3334 2.1254 2571.8 3088)" gradientUnits="userSpaceOnUse" xlink:href="#a"/>
  <radialGradient id="h" cx="457.39" cy="-194.77" r="40.1" gradientTransform="matrix(.68295 1.1951e-7 -2.0962e-7 1.0714 149.46 13.895)" gradientUnits="userSpaceOnUse" xlink:href="#a" spreadMethod="reflect"/>
  <radialGradient id="g" cx="403.4" cy="-569.5" r="15.223" gradientTransform="matrix(1.1626e-5 -.5 .49604 1.1534e-5 685.89 -367.79)" gradientUnits="userSpaceOnUse" xlink:href="#a" spreadMethod="reflect"/>
  <radialGradient id="r" cx="457.39" cy="-194.77" r="40.1" gradientTransform="matrix(.71154 1.584e-7 -2.1839e-7 1.4201 100.24 1049.4)" gradientUnits="userSpaceOnUse" xlink:href="#a" spreadMethod="reflect"/>
  <radialGradient id="k" cx="457.39" cy="-194.77" r="40.1" gradientTransform="matrix(.58407 1.4851e-7 -1.7927e-7 1.3314 162.58 721.49)" gradientUnits="userSpaceOnUse" xlink:href="#a" spreadMethod="reflect"/>
  <radialGradient id="ap" cx="416.17" cy="1254.3" r="78.311" gradientTransform="matrix(1.1335 -.83177 1.827 2.4899 -2340.1 -1510.2)" gradientUnits="userSpaceOnUse" xlink:href="#a"/>
  <radialGradient id="ao" cx="631.54" cy="719.8" r="85.689" gradientTransform="matrix(.42104 -.11381 .15174 .56135 256.42 387.61)" gradientUnits="userSpaceOnUse" xlink:href="#a" spreadMethod="reflect"/>
  <radialGradient id="q" cx="430.68" cy="-462.94" r="36.154" gradientTransform="matrix(1.7857 1.1938e-5 -1.346e-5 1.6802 -338.4 314.89)" gradientUnits="userSpaceOnUse" xlink:href="#b"/>
  <radialGradient id="an" cx="403.4" cy="-569.5" r="15.223" gradientTransform="matrix(-.99999 -5.6134e-6 5.3796e-6 -.95835 806.81 -1115.3)" gradientUnits="userSpaceOnUse" xlink:href="#a" spreadMethod="reflect"/>
  <radialGradient id="am" cx="631.54" cy="719.8" r="85.689" gradientTransform="matrix(.30725 .39001 -.35932 .28896 679.29 472.07)" gradientUnits="userSpaceOnUse" xlink:href="#a" spreadMethod="reflect"/>
  <radialGradient id="al" cx="750.71" cy="824.16" r="78.975" gradientTransform="matrix(-.90534 -1.1072 .99999 -.81767 603.84 2350.6)" gradientUnits="userSpaceOnUse" xlink:href="#a" spreadMethod="reflect"/>
  <radialGradient id="j" cx="403.4" cy="1302.9" r="31.714" gradientTransform="matrix(.64 -1.4349e-6 1.3901e-6 .62 145.22 495.1)" gradientUnits="userSpaceOnUse" xlink:href="#a" spreadMethod="reflect"/>
  <radialGradient id="ak" cx="578.42" cy="1168.1" r="57.085" gradientTransform="matrix(1.3436 -.15858 .12467 1.2265 -344.35 -172.33)" gradientUnits="userSpaceOnUse" xlink:href="#a" spreadMethod="reflect"/>
  <radialGradient id="aj" cx="403.4" cy="-569.5" r="15.223" gradientTransform="matrix(1 -1.5731e-5 1.8825e-5 .95835 .0041842 -23.714)" gradientUnits="userSpaceOnUse" xlink:href="#a" spreadMethod="reflect"/>
  <radialGradient id="ai" cx="403.4" cy="-569.5" r="15.223" gradientTransform="matrix(.5 -1.1759e-5 2.2537e-5 .95833 201.71 -23.724)" gradientUnits="userSpaceOnUse" xlink:href="#a" spreadMethod="reflect"/>
  <radialGradient id="p" cx="403.4" cy="-569.5" r="15.223" gradientTransform="matrix(1.0983e-5 -.95835 1 7.9024e-6 972.89 -182.89)" gradientUnits="userSpaceOnUse" xlink:href="#a" spreadMethod="reflect"/>
  <radialGradient id="ah" cx="403.4" cy="-569.5" r="15.223" gradientTransform="matrix(9.8378e-6 -1.3741 1 1.131e-6 972.89 -15.164)" gradientUnits="userSpaceOnUse" xlink:href="#a" spreadMethod="reflect"/>
  <radialGradient id="ag" cx="403.4" cy="-569.5" r="15.223" gradientTransform="matrix(1 -1.1534e-5 1.4146e-5 .95833 .0067026 -23.724)" gradientUnits="userSpaceOnUse" xlink:href="#a" spreadMethod="reflect"/>
  <radialGradient id="af" cx="461.21" cy="-508.76" r="9.3067" gradientTransform="matrix(3.145 3.1424e-5 -6.0416e-5 6.095 -989.35 2592.1)" gradientUnits="userSpaceOnUse" xlink:href="#b"/>
  <radialGradient id="ae" cx="376.32" cy="-879.94" r="127.96" gradientTransform="matrix(-1.0233 -.13808 .26984 -1.9996 998.85 -2589.8)" gradientUnits="userSpaceOnUse" xlink:href="#b"/>
  <radialGradient id="ad" cx="403.4" cy="-569.5" r="15.223" gradientTransform="matrix(3.185 9.5072e-5 -3.931e-6 1.7516 -881.45 428.01)" gradientUnits="userSpaceOnUse" xlink:href="#a" spreadMethod="reflect"/>
  <radialGradient id="ac" cx="25.482" cy="-1006.4" r="44.353" gradientTransform="matrix(.50168 -1.4193 .86447 .30557 870.41 -676.95)" gradientUnits="userSpaceOnUse" xlink:href="#l"/>
 </defs>
 <path d="m436.43 751.29z" fill="#f00"/>
 <g transform="matrix(.35 0 0 .35 217.67 501.33)">
  <path d="m304.44 1039.9c-75.828-6.5306-63.37 26.365-66.263 89.108-0.91497 19.842 3.0775 53.022 23.952 58.071 40.068 9.6898 39.988 18.107 44.205 25.326l-54.613-1.2554c-4.6041-0.1059-20.267 3.6451-20.039-22.848l0.35317-41.054 0.35316-41.054c0.16539-19.226-33.984-61.16-26.998-84.978 4.5615-15.552 29.419-116.13 33.274-116.13 30.839 0-84.115 128.16 65.776 134.81z" fill="url(#du)"/>
  <path d="m530.53 385.76c-23.608-7.4977-48.296 3.8488-55.113 25.311s6.8079 44.953 30.416 52.451 48.289-3.8272 55.106-25.29-6.801-44.975-30.409-52.472zm-3.7083 11.676c16.525 5.2484 26.077 21.704 21.306 36.727s-22.068 22.952-38.593 17.704-26.053-21.696-21.282-36.72 22.043-22.96 38.569-17.712z" fill="url(#at)"/>
  <path d="m566.14 431.74 26.311 3.8741-0.96973 15.013-26.983-10.604 1.6418-8.2834z" fill="url(#dt)"/>
  <path d="m457.72 1014.8a15.502 22.846 0 0 1 15.502 22.846v3.262a15.502 22.846 0 0 1 -15.502 22.846 15.502 22.846 0 0 1 -15.502 -22.846v-3.262a15.502 22.846 0 0 1 15.502 -22.846" fill="url(#ds)"/>
  <path transform="matrix(.44305 .14624 -.39803 1.2058 230.06 278.5)" d="m506.43-246.57a20.357 22.5 0 1 1 -40.714 0 20.357 22.5 0 1 1 40.714 0z" fill="url(#e)"/>
  <path transform="matrix(.3671 .12117 -.34828 1.0551 279.47 253.91)" d="m506.43-246.57a20.357 22.5 0 1 1 -40.714 0 20.357 22.5 0 1 1 40.714 0z" fill="url(#d)" stroke="url(#f)" stroke-linejoin="round" stroke-width="2.2988"/>
  <path d="m569.5 69.204c0 26.572-10.444 48.138-30.908 56.297-10.321 4.1149 25.356-35.742 8.4493-39.575-23.177-5.2543-52.604-23.018-52.604-36.304 0-26.572 16.331 17.134 38.267 17.134s36.795-24.125 36.795 2.4477z" fill="url(#dr)"/>
  <path d="m304.19 193.39c-2.1203 22.467-3.377 35.091-18.723 34.212s-10.369-23.315-9.6518-35.838c5.5222-96.404 8.8273-130.24 24.173-129.36 3.8365 0.21976 30.726-12.485 30.814-4.0659l-0.69511 7.6511c-30.968 2.9137-33.698 36.733-18.396 47.699l-7.5218 79.702z" fill="url(#dq)"/>
  <path d="m315.03-33.956c-2.1203 22.467-3.377 35.091-18.723 34.212s-10.369-23.315-9.6518-35.838c5.5222-96.404 8.8273-130.24 24.173-129.36 3.8365 0.21976 30.726-12.485 30.814-4.0659l-0.69511 7.6511c-30.968 2.9137-33.698 36.733-18.396 47.699l-7.5218 79.702z" fill="url(#dp)"/>
  <path d="m318.24-238.44c-2.2148 9.69 2.1221 15.135-13.908 14.756s-16.481-10.056-15.732-15.457c5.7684-41.578 9.2208-56.172 25.251-55.793 4.0075 0.09479 32.096-5.3845 32.188-1.7536l-0.7261 3.2999c-32.348 1.2567-35.201 15.843-19.216 20.572l-7.8571 34.375z" fill="url(#do)"/>
  <g transform="matrix(.86666 0 0 1 37.371 -149.04)">
   <path d="m243.88 1075 37.315-1.3327 9.3288 90.622h-46.644v-89.29z" fill="url(#z)"/>
   <path transform="rotate(.32283)" d="m255.45 1069.4h7e-5c4.4298 0 9.1658 3.7258 7.9961 7.9961-7.0931 25.896-2.096 60.094 1.8761 84.026 0.72498 4.3679-6.712 6.7583-11.142 6.7583l1.8831-0.0106c-4.4298 0-6.0474-2.3736-6.7336-6.7477-3.5606-22.697-6.6921-60.045-1.8761-84.026 0.87178-4.341 3.5662-7.9961 7.9961-7.9961z" fill="url(#y)"/>
  </g>
  <g transform="translate(.62774 -1.2555)">
   <path d="m243.88 1075 37.315-1.3327 9.3288 90.622h-46.644v-89.29z" fill="url(#z)"/>
   <path transform="rotate(.32283)" d="m255.45 1069.4h7e-5c4.4298 0 9.1658 3.7258 7.9961 7.9961-7.0931 25.896-2.096 60.094 1.8761 84.026 0.72498 4.3679-6.712 6.7583-11.142 6.7583l1.8831-0.0106c-4.4298 0-6.0474-2.3736-6.7336-6.7477-3.5606-22.697-6.6921-60.045-1.8761-84.026 0.87178-4.341 3.5662-7.9961 7.9961-7.9961z" fill="url(#y)"/>
  </g>
  <path d="m226.25 887.75 12.681 0.24455-8.8431 264.71-12.681-0.2445 8.8431-264.71z" fill="url(#dn)"/>
  <path d="m477.08-359.94-36.268-7.0546-0.36913 20.543 37.941-1.639-1.3036-11.849z" fill="url(#dm)"/>
  <path d="m515.94 1075.1 23.86-5.1972 0.24284 15.134-24.96-1.2075 0.85757-8.7296z" fill="url(#dl)"/>
  <path d="m328.76-687.58 21.084-3.5577-0.55328 15.121-21.72-2.9095 1.1897-8.6538z" fill="url(#dk)"/>
  <path d="m511.05 534.83-69.358-5.1972-0.7059 15.134 72.556-1.2075-2.4928-8.7296z" fill="url(#dj)"/>
  <path d="m467.79 394.21-23.86-5.1972-0.24284 15.134 24.96-1.2075-0.85757-8.7296z" fill="url(#di)"/>
  <path d="m516.9 835.59-67.669-13.298-3.6588 14.876 72.089 7.3432-0.76148-8.922z" fill="url(#dh)"/>
  <path d="m509.11 658.51-63.153-5.1972-0.64276 15.134 66.066-1.2075-2.2699-8.7296z" fill="url(#dg)"/>
  <path d="m498.95 247.32-53.847-5.1972-0.54804 15.134 56.33-1.2075-1.9354-8.7296z" fill="url(#df)"/>
  <path d="m230.09 1140.2 54.086-22.716 3.2452 20.553-55.168 11.899-2.1635-9.7356z" fill="url(#de)"/>
  <path d="m267.41 335.19 12.681 0.24455-21.42 390.48-12.681-0.2445 21.42-390.48z" fill="url(#dd)"/>
  <path d="m258.73 727.65 38.423-3.2452v15.144l-40.024-3.2452 1.601-8.6538z" fill="url(#dc)"/>
  <path transform="matrix(.75159 0 0 .77797 -50.391 1172.9)" d="m418.63-569.5a15.223 14.588 0 1 1 -30.446 0 15.223 14.588 0 1 1 30.446 0z" fill="url(#c)"/>
  <path d="m242.25 543.28 12.681 0.24455-13.416 278.43-12.681-0.2445 13.416-278.43z" fill="url(#db)"/>
  <path d="m526.93 112.8 12.681 0.24456 6.0203 798.65-12.681-0.24456-6.0203-798.65z" fill="url(#da)"/>
  <path d="m518.94 105.76 12.671 0.48894-0.92236 692.56-12.671-0.4889 0.92235-692.56z" fill="url(#cz)"/>
  <path d="m239.06 819.79 51.923-3.2452v15.144l-54.086-3.2452 2.1634-8.6538z" fill="url(#cy)"/>
  <path d="m235.5 878.01 55.168-8.6538 1.0817 21.635-54.086-3.2452-2.1635-9.7356z" fill="url(#cx)"/>
  <path d="m506.94 97.547-63.153-5.1972-0.64276 15.134 66.066-1.2075-2.2699-8.7296z" fill="url(#cw)"/>
  <g transform="translate(-1315.2 100.21)">
   <path d="m1759.5-775.73 4.2857 1684.3c0.0946 37.194-8.8948 129.26 31.732 130.43 42.682 1.2269 57.094-29.395 57.113-104.33 0.0182-76.064 17.106-376.24 31.655-473.72 15.151-101.51 45.038-245.01 13.132-367.37-15.206-58.315 123.01-84.504 298.15 36.583 140.99 97.47 197.09 205.74 61.142 201.67-75.202-2.2524-100.85 132.38-131.65 288.76s-33.003 319.5-33.083 332.21c-1.8192 299.68-289.6 269.75-311.41 265.92-185.88-32.602-192.73-172.09-187.22-316.29l66.213-1731.4c2.8584-74.746-14.332-107.98-79.801-147.51s-177.68-82.439-197.4-90.632c-50.721-21.07-36.571-55.714 35.714-32.857 131.58 41.606 341.43 44.343 341.43 324.29z" fill="#fc0"/>
   <path d="m1851.3 954.6c0.0485-76.064 17.106-393.49 31.655-490.97 15.151-101.51 45.038-245.01 13.132-367.37-15.206-58.315 123.01-84.504 298.15 36.583 140.99 97.47 197.09 205.74 61.142 201.67-75.202-2.2524-100.85 132.38-131.65 288.76s-29.652 336.92-31.709 349.46c-1.8192 11.091-240.74 13.729-240.72-18.139z" fill="url(#cv)" opacity=".67273"/>
   <path d="m1762.8 918.45c-1.9071 65.252-7.4664 119.26 33.16 120.43 42.682 1.2269 59.346-36.25 55.685-132.9 0.9691 22.549 242.22 25.427 240.78 8.1398 6.7512 351.11-289.6 308.31-311.41 304.49-185.88-32.602-190.66-170.25-187.22-316.29l169.01 16.134z" fill="url(#as)" opacity=".67273"/>
   <path d="m1759.5-780.13 4.2857 1740c0.0433 17.581-171.02 9.6937-170.44-6.1347l66.213-1787.1c2.7694-74.749-14.332-107.98-79.801-147.51s-177.68-82.439-197.4-90.632c-50.721-21.07-36.571-55.714 35.714-32.857 131.58 41.606 341.43 44.343 341.43 324.29z" fill="url(#cu)" opacity=".673" stroke="#000" stroke-linejoin="round" stroke-width=".2"/>
   <path d="m1902.2 91.767c-8.8257-38.899 100.59-73.297 275.74 47.791 140.99 97.47 222.01 200.42 86.359 190.46-145.25-10.658-51.67 294.28-271.75 302.77 38.842-310.3-37.565-308.37-90.353-541.03z" fill="url(#ar)" opacity=".40909"/>
   <path transform="matrix(.76676 .50796 -.66483 .33686 1637.3 -348.9)" d="m1115.2 280.61c0 64.682-112.23 117.18-250.52 117.18s-241.06-58.443-241.06-123.13 102.77-111.23 241.06-111.23 250.52 52.496 250.52 117.18z" fill="url(#aq)"/>
  </g>
  <path d="m56.901-1015.4 54.869 13.209c-25.064-4.0644-34.886 37.596-17.274 45.724l-41.66-15.241 4.0644-43.692z" fill="#9f6d00"/>
  <path transform="matrix(.95544 0 0 1 14.093 -2.8571)" d="m508.57-194.78a40 47.143 0 1 1 -80 0 40 47.143 0 1 1 80 0z" fill="url(#h)" stroke="url(#i)" stroke-linejoin="round" stroke-width="2.3518"/>
  <path d="m506.71-169.02c5.7535 7.8548 33.4 29.029 36.6 32.922 15.321 18.646 16.489 71.895 6.3334 79.369-8.6393 6.358-4.4152-31.712-17.938-59.044-2.6132-5.2817-51.107-20.311-52.498-36.66 0 0 20.233-26.512 27.503-16.588z" fill="url(#ct)"/>
  <path d="m485.81-378.91c0 5.0494 8.353 20.184 17.014 71.427 4.3304 25.621-11.601 20.904-5.721 31.71 2.5083 4.6096 20.458 8.1609 23.658 12.055 15.321 18.646 7.8352 82.712-4.4839 84.778-10.579 1.7736 6.4021-37.121-7.1208-64.453-2.6132-5.2817-37.654-20.311-39.044-36.66l-1.1282-201.46c6.7473-3.2847 9.3114-26.28 8.5433-38.158 15.456 19.731 8.2835 93.107 8.2835 140.76z" fill="url(#cs)"/>
  <path d="m466.94-244.58c-55-2.7029-58.371 94.014-2.9835 92.973l-28.091 0.59857c-21.091 0.44942-38.218-21.12-38.218-47.143s17.127-47.628 38.218-47.143l31.075 0.71429z" fill="url(#cr)"/>
  <path transform="matrix(1.2281 0 0 1.2698 -114.07 64.034)" d="m506.43-246.57a20.357 22.5 0 1 1 -40.714 0 20.357 22.5 0 1 1 40.714 0z" fill="url(#e)"/>
  <path transform="matrix(1.0175 0 0 1.1111 -10.877 25.198)" d="m506.43-246.57a20.357 22.5 0 1 1 -40.714 0 20.357 22.5 0 1 1 40.714 0z" fill="url(#d)" stroke="url(#f)" stroke-linejoin="round" stroke-width="2.2988"/>
  <path transform="matrix(1.2281 0 0 1.2698 -109.64 128.54)" d="m506.43-246.57a20.357 22.5 0 1 1 -40.714 0 20.357 22.5 0 1 1 40.714 0z" fill="url(#e)"/>
  <path transform="matrix(1.0175 0 0 1.1111 -6.4406 89.701)" d="m506.43-246.57a20.357 22.5 0 1 1 -40.714 0 20.357 22.5 0 1 1 40.714 0z" fill="url(#d)" stroke="url(#f)" stroke-linejoin="round" stroke-width="2.2988"/>
  <path transform="matrix(.73713 0 0 .76488 236.51 1228.7)" d="m418.63-569.5a15.223 14.588 0 1 1 -30.446 0 15.223 14.588 0 1 1 30.446 0z" fill="url(#g)"/>
  <path transform="matrix(.73713 0 0 .76488 226.22 1228.7)" d="m418.63-569.5a15.223 14.588 0 1 1 -30.446 0 15.223 14.588 0 1 1 30.446 0z" fill="url(#g)"/>
  <path d="m507.94 108.18 12.681 0.24455-1.9831 699.18-12.681-0.24456 1.9831-699.18z" fill="url(#cq)"/>
  <path d="m483.66 772.81c0 34.492-22.869 62.175-47.389 63.914-40.296 2.8572-54.531-27.993-54.531-62.485s26.379-63.914 50.96-63.914c29.414 0 49.268 19.705 50.958 60.389l-50.958 2.0964h50.96z" fill="url(#r)" stroke="url(#x)" stroke-linejoin="round" stroke-width="2.7637"/>
  <path d="m438.32 710.59c-82.832-5.0111-114.36 115.32-3.2533 126.09l-22.061 0.79336c-25.573 0.91968-69.411-41.575-68.817-69.628 0.63902-30.208 41.721-59.33 70.246-58.2l23.885 0.94676z" fill="url(#w)"/>
  <path d="m518.84 771.14c0.12864 9.5627-21.385 5.8064-45.101 8.0712s-51.485 2.2916-71.422-2.9626c19.4-7.8356 45.282-9.1078 68.998-11.373s47.063-3.1986 47.525 6.264z" fill="url(#v)" stroke="url(#u)" stroke-linejoin="round" stroke-width=".27952"/>
  <path d="m389.29 773.08c-0.71429 68 51.594 64.286 40.357 64.286-16.951 0-48.978-7.6738-48.929-64.286 0.04529-51.544 39.834-64.286 50.357-64.286 11.237 0-42.5 5.5714-41.786 64.286z" fill="url(#cp)"/>
  <path transform="matrix(1.2281 0 0 1.2698 -166.78 1090.7)" d="m506.43-246.57a20.357 22.5 0 1 1 -40.714 0 20.357 22.5 0 1 1 40.714 0z" fill="url(#e)"/>
  <path transform="matrix(1.0175 0 0 1.1111 -63.583 1051.8)" d="m506.43-246.57a20.357 22.5 0 1 1 -40.714 0 20.357 22.5 0 1 1 40.714 0z" fill="url(#d)" stroke="url(#f)" stroke-linejoin="round" stroke-width="2.2988"/>
  <path transform="matrix(1.2281 0 0 1.2698 -192.49 1203.5)" d="m506.43-246.57a20.357 22.5 0 1 1 -40.714 0 20.357 22.5 0 1 1 40.714 0z" fill="url(#e)"/>
  <path transform="matrix(1.0175 0 0 1.1111 -89.298 1164.7)" d="m506.43-246.57a20.357 22.5 0 1 1 -40.714 0 20.357 22.5 0 1 1 40.714 0z" fill="url(#d)" stroke="url(#f)" stroke-linejoin="round" stroke-width="2.2988"/>
  <path transform="matrix(1.4386 0 0 1.2698 -374.82 1152.1)" d="m506.43-246.57a20.357 22.5 0 1 1 -40.714 0 20.357 22.5 0 1 1 40.714 0z" fill="url(#e)"/>
  <path transform="matrix(1.192 0 0 1.1111 -253.94 1113.3)" d="m506.43-246.57a20.357 22.5 0 1 1 -40.714 0 20.357 22.5 0 1 1 40.714 0z" fill="url(#d)" stroke="url(#f)" stroke-linejoin="round" stroke-width="2.2988"/>
  <path transform="matrix(.95544 0 0 1 12.733 114.04)" d="m508.57-194.78a40 47.143 0 1 1 -80 0 40 47.143 0 1 1 80 0z" fill="url(#h)" stroke="url(#i)" stroke-linejoin="round" stroke-width="2.3518"/>
  <path d="m465.58-127.68c-55-2.7029-58.371 94.014-2.9835 92.973l-28.091 0.59857c-21.091 0.44942-38.218-21.12-38.218-47.143s17.127-47.628 38.218-47.143l31.075 0.71429z" fill="url(#co)"/>
  <path transform="matrix(.91228 0 0 .98413 58.86 115.95)" d="m506.43-246.57a20.357 22.5 0 1 1 -40.714 0 20.357 22.5 0 1 1 40.714 0z" fill="url(#e)"/>
  <path transform="matrix(.75589 0 0 .86111 135.52 85.849)" d="m506.43-246.57a20.357 22.5 0 1 1 -40.714 0 20.357 22.5 0 1 1 40.714 0z" fill="url(#d)" stroke="url(#f)" stroke-linejoin="round" stroke-width="2.2988"/>
  <path transform="matrix(1.2281 0 0 1.2698 -93.922 252.82)" d="m506.43-246.57a20.357 22.5 0 1 1 -40.714 0 20.357 22.5 0 1 1 40.714 0z" fill="url(#e)"/>
  <path transform="matrix(1.0175 0 0 1.1111 9.2737 213.99)" d="m506.43-246.57a20.357 22.5 0 1 1 -40.714 0 20.357 22.5 0 1 1 40.714 0z" fill="url(#d)" stroke="url(#f)" stroke-linejoin="round" stroke-width="2.2988"/>
  <path transform="matrix(.95544 0 0 1 15.59 248.33)" d="m508.57-194.78a40 47.143 0 1 1 -80 0 40 47.143 0 1 1 80 0z" fill="url(#h)" stroke="url(#i)" stroke-linejoin="round" stroke-width="2.3518"/>
  <path d="m468.44 6.6047c-55-2.7029-58.371 94.014-2.9835 92.973l-28.091 0.59857c-16.792 0.35781-37.303-26.842-38.218-47.143-0.9147-20.292 17.127-47.628 38.218-47.143l31.075 0.71429z" fill="url(#cn)"/>
  <path transform="matrix(.95544 0 0 1.0444 11.304 375.54)" d="m508.57-194.78a40 47.143 0 1 1 -80 0 40 47.143 0 1 1 80 0z" fill="url(#h)" stroke="url(#i)" stroke-linejoin="round" stroke-width="2.3518"/>
  <path d="m464.15 123.09c-55-2.8228-58.371 98.186-2.9835 97.098l-28.091 0.62513c-18.236 0.4058-42.41-19.835-43.218-49.235-0.82899-30.907 27.124-49.621 43.218-49.235l31.075 0.74598z" fill="url(#cm)"/>
  <path transform="matrix(1.0419 0 0 1.3254 -48.464 851.67)" d="m511.31-194.78a42.742 47.143 0 1 1 -85.485 0 42.742 47.143 0 1 1 85.485 0z" fill="url(#h)" stroke="url(#cl)" stroke-linejoin="round" stroke-width="2.3518"/>
  <path d="m445.34 531.28c-59.975-3.5825-60.793 128.18-3.2533 126.09l-22.775-0.63521c-21.496-0.59954-68.696-40.146-68.103-68.2 0.63902-30.208 47.257-59.111 70.246-58.2l23.885 0.94676z" fill="url(#ck)"/>
  <path d="m542.42 591.59c0.12864 12.42-29.699 7.9492-53.415 10.214s-59.73 0.3888-79.668-4.8654c19.4-7.8356 61.773-7.8393 85.489-10.104s46.417-7.5644 47.594 4.7555z" fill="url(#cj)" stroke="url(#ci)" stroke-linejoin="round" stroke-width=".27952"/>
  <path d="m380.71 775.93c-1.4286 43.514 27.251 55.838 22.143 52.857-7.3428-4.2857-29.051-7.9177-29.286-51.429-0.26493-50.661 33.371-62.143 40-64.286 5.6275-1.8192-32.143 15.057-32.857 62.857z" fill="url(#ch)" opacity=".77273"/>
  <path d="m397.42 592.56c-0.71429 68 48.58 62.411 37.5 64.286-12.666 2.1429-47.55-6.9595-47.5-63.571 0.04529-51.544 35.549-66.429 47.5-64.286 11.061 1.9832-38.214 4.8571-37.5 63.571z" fill="url(#cg)"/>
  <path transform="matrix(1.2281 0 0 1.2698 -162.49 963.52)" d="m506.43-246.57a20.357 22.5 0 1 1 -40.714 0 20.357 22.5 0 1 1 40.714 0z" fill="url(#e)"/>
  <path transform="matrix(1.0175 0 0 1.1111 -59.298 924.68)" d="m506.43-246.57a20.357 22.5 0 1 1 -40.714 0 20.357 22.5 0 1 1 40.714 0z" fill="url(#d)" stroke="url(#f)" stroke-linejoin="round" stroke-width="2.2988"/>
  <path d="m420.99 172.31c-0.71429 53.271 51.594 50.361 40.357 50.361-16.951 0-48.978-6.0116-48.929-50.361 0.04529-40.379 32.691-51.075 50.357-50.361 11.228 0.45399-43.214 0.79319-41.786 50.361z" fill="url(#cf)"/>
  <path d="m426 50.544c-0.71429 53.271 47.309 50.361 40.357 50.361-16.951 0-48.978-6.0116-48.929-50.361 0.04529-40.379 30.569-46.515 50.357-45.361 6.9441 0.40494-43.214-4.2068-41.786 45.361z" fill="url(#ce)"/>
  <path d="m506.36 848.32 12.681 0.24455-1.9831 226.98-12.681-0.2445 1.9831-226.98z" fill="url(#cd)"/>
  <path transform="matrix(.75159 0 0 .77797 210.31 1287.5)" d="m418.63-569.5a15.223 14.588 0 1 1 -30.446 0 15.223 14.588 0 1 1 30.446 0z" fill="url(#c)"/>
  <g transform="matrix(1.104 0 0 1.2106 -47.471 -3.2238)">
   <path d="m483.66 772.81c0 34.492-22.869 62.175-47.389 63.914-40.296 2.8572-58.191-27.993-58.191-62.485s30.039-64.748 54.62-63.914c29.394 0.99775 49.268 19.705 50.958 60.389l-50.958 2.0964h50.96z" fill="url(#r)" stroke="url(#x)" stroke-linejoin="round" stroke-width="2.7637"/>
   <path d="m438.32 710.59c-82.832-5.0111-114.36 115.32-3.2533 126.09l-22.061 0.79336c-38.291 1.377-72.837-47.443-73.392-69.628-0.56885-22.718 39.943-59.582 74.821-58.2l23.885 0.94676z" fill="url(#w)"/>
   <path d="m518.84 771.14c0.12864 9.5627-21.385 5.8064-45.101 8.0712s-51.485 2.2916-71.422-2.9626c19.4-7.8356 45.282-9.1078 68.998-11.373s47.063-3.1986 47.525 6.264z" fill="url(#v)" stroke="url(#u)" stroke-linejoin="round" stroke-width=".27952"/>
   <path d="m379.22 773.91c-0.71429 68 57.999 63.451 46.762 63.451-16.951 0-55.383-7.6738-55.333-64.286 0.04529-51.544 46.239-64.286 56.762-64.286 11.237 0-48.905 6.4058-48.191 65.12z" fill="url(#cc)"/>
  </g>
  <path d="m467 351.79 12.671 0.48894-1.8762 136.29c0.10324 6.3274-12.774 6.1644-12.671-0.48894l1.8762-136.29z" fill="url(#cb)"/>
  <path d="m477.31 462.17c0 32.339-18.772 58.295-38.899 59.925-33.077 2.6788-44.762-26.246-44.762-58.586s21.653-59.925 41.83-59.925c24.144 0 40.441 18.475 41.828 56.62l-41.828 1.9656h41.83z" fill="url(#k)" stroke="url(#o)" stroke-linejoin="round" stroke-width="2.4245"/>
  <path d="m435.04 403.83c-50.819 0.35243-72.662 119.24-2.6705 118.22l-18.108 0.74384c-20.992 0.86228-56.975-38.98-56.488-65.283 0.52454-28.323 34.246-55.627 57.661-54.567l19.606 0.88768z" fill="url(#n)"/>
  <path d="m394.79 462.42c-0.58632 63.756 42.351 60.274 33.127 60.274-13.915 0-40.204-7.1948-40.163-60.274 0.03717-48.327 32.698-60.274 41.335-60.274 9.224 0-34.886 5.2237-34.3 60.274z" fill="url(#m)"/>
  <path d="m510.18 461.54c-0.44988 8.9553-3.715 5.3566-23.276 6.2704s-42.313-0.47276-58.342-6.4032c16.349-6.3462 37.627-6.2211 57.188-7.1349s24.601-1.6109 24.43 7.2677z" fill="url(#ca)" stroke="url(#bz)" stroke-linejoin="round" stroke-width=".24522"/>
  <g transform="matrix(.74072 0 0 .98333 118.78 -132.05)">
   <path d="m477.31 462.17c0 32.339-18.772 58.295-38.899 59.925-33.077 2.6788-44.762-26.246-44.762-58.586s21.653-59.925 41.83-59.925c24.144 0 40.441 18.475 41.828 56.62l-41.828 1.9656h41.83z" fill="url(#k)" stroke="url(#o)" stroke-linejoin="round" stroke-width="2.4245"/>
   <path d="m435.04 403.83c-50.819 0.35243-72.662 119.24-2.6705 118.22l-18.108 0.74384c-20.992 0.86228-56.975-38.98-56.488-65.283 0.52454-28.323 34.246-55.627 57.661-54.567l19.606 0.88768z" fill="url(#n)"/>
   <path d="m394.79 462.42c-0.58632 63.756 42.351 60.274 33.127 60.274-13.915 0-40.204-7.1948-40.163-60.274 0.03717-48.327 32.698-60.274 41.335-60.274 9.224 0-34.886 5.2237-34.3 60.274z" fill="url(#m)"/>
  </g>
  <path d="m452.03-537.62h8.8333v56.456l-9.2173-0.38405c-13.826-21.891-11.522-40.326 0.38406-56.072z" fill="url(#by)"/>
  <g transform="matrix(.45589 0 0 .6252 250.98 -860.29)">
   <path d="m477.31 462.17c0 32.339-18.772 58.295-38.899 59.925-33.077 2.6788-44.762-26.246-44.762-58.586s21.653-59.925 41.83-59.925c24.144 0 40.441 18.475 41.828 56.62l-41.828 1.9656h41.83z" fill="url(#k)" stroke="url(#o)" stroke-linejoin="round" stroke-width="2.4245"/>
   <path d="m435.04 403.83c-50.819 0.35243-72.662 119.24-2.6705 118.22l-18.108 0.74384c-20.992 0.86228-56.975-38.98-56.488-65.283 0.52454-28.323 34.246-55.627 57.661-54.567l19.606 0.88768z" fill="url(#n)"/>
   <path d="m394.79 462.42c-0.58632 63.756 42.351 60.274 33.127 60.274-13.915 0-40.204-7.1948-40.163-60.274 0.03717-48.327 32.698-60.274 41.335-60.274 9.224 0-34.886 5.2237-34.3 60.274z" fill="url(#m)"/>
  </g>
  <path d="m499.02 1231.2c0 44.608-33.941 80.812-75.761 80.812s-75.761-36.204-75.761-80.812 33.941-80.812 75.761-80.812 75.761 36.204 75.761 80.812z" fill="url(#ap)" stroke="url(#bx)" stroke-linejoin="round" stroke-width="5.099"/>
  <path d="m714.23 698.58c12.363 49.202-14.649 98.64-60.295 110.35s-92.726-18.714-105.09-67.916 14.649-98.64 60.295-110.35 92.726 18.714 105.09 67.916z" fill="url(#ao)" stroke="url(#bw)" stroke-linejoin="round" stroke-width="2.2988"/>
  <path transform="matrix(.98246 0 0 1.0755 .57864 27.327)" d="m466.83-462.94a36.154 33.617 0 1 1 -72.308 0 36.154 33.617 0 1 1 72.308 0z" fill="url(#q)"/>
  <path transform="matrix(.99981 .019281 -.032875 .99946 0 0)" d="m372.88-586.5h12.684v932.62h-12.684z" fill="url(#bv)"/>
  <path d="m455.7-201.92c-0.79767 9.3371-14.652 5.7143-32.704 5.7143s-40.285 0.07181-39.883-9.2857c0.36944-8.6102 21.83-4.2857 39.883-4.2857s32.704-1.48 32.704 7.8571z" fill="url(#bu)" stroke="#000" stroke-linejoin="round" stroke-width=".21135"/>
  <path d="m460.06-84.311c-8.6449 4.3371-30.153 5-38.509 5-17.786 0-45.192 0.7861-44.796-8.5714 0.36399-8.6102 27.01-5 44.796-5 7.5698 0 30.65 2.0914 38.509 8.5714z" fill="url(#bt)" stroke="#000" stroke-linejoin="round" stroke-width=".20979"/>
  <path d="m488.64 57.117c-20.939 2.9086-47.388 2.1428-64.313 2.1428s-48.985 0.7861-48.609-8.5714c0.34635-8.6102 32.432-5.7143 49.357-5.7143s43.374 5.6629 63.565 12.143z" fill="url(#bs)" stroke="#000" stroke-linejoin="round" stroke-width=".20464"/>
  <path d="m477.21 175.85c-26.975 5.2756-44.522 4.4759-52.567 4.4759-15.654 0-63.982 3.0906-63.634-6.6821 0.32035-8.9923 47.288-3.7616 62.942-3.7616 8.7372 0 24.9-0.05371 53.259 5.9678z" fill="url(#br)" stroke="#000" stroke-linejoin="round" stroke-width=".20113"/>
  <path transform="matrix(.84979 0 0 .84325 53.236 -93.322)" d="m418.63-569.5a15.223 14.588 0 1 1 -30.446 0 15.223 14.588 0 1 1 30.446 0z" fill="url(#an)"/>
  <path transform="matrix(.84979 0 0 .84325 26.036 839.36)" d="m418.63-569.5a15.223 14.588 0 1 1 -30.446 0 15.223 14.588 0 1 1 30.446 0z" fill="url(#g)"/>
  <path d="m536.6-4.3514c0 2.801-6.7132 5.0742-53.28 5.0742s-115.07 0.25106-114.81-6.9771c0.33566-9.1596 66.97-3.8057 114.81-1.9028 46.53 1.8509 53.28 1.0047 53.28 3.8057z" fill="url(#bq)"/>
  <path transform="matrix(1.2281 0 0 1.2698 -69.636 315.68)" d="m506.43-246.57a20.357 22.5 0 1 1 -40.714 0 20.357 22.5 0 1 1 40.714 0z" fill="url(#e)"/>
  <path transform="matrix(1.0175 0 0 1.1111 33.559 276.84)" d="m506.43-246.57a20.357 22.5 0 1 1 -40.714 0 20.357 22.5 0 1 1 40.714 0z" fill="url(#d)" stroke="url(#f)" stroke-linejoin="round" stroke-width="2.2988"/>
  <path d="m694.36 905.15c11.911 49.202-14.114 98.64-58.093 110.35s-89.339-18.714-101.25-67.916 14.114-98.64 58.093-110.35 89.339 18.714 101.25 67.916z" fill="url(#am)" stroke="url(#bp)" stroke-linejoin="round" stroke-width="2.2564"/>
  <path d="m640 623.59c-6.6308 3.8057-15.816 38.955 4.5625 75.344 3.0269 5.4051-11.328 19.03-9.75 35.75 2.1726 23.015 19.922 37.794 26.281 41.719 8.7241 5.3836-7.7775 21.892 17.594 71.719-5.7085 5.744-18.324 30.094-26.188 57.25-2.2213 7.6706-28 4.327-37.344 36.219-7.1249 24.319 9.2967 39.138 3.1562 45.594-12.46 13.099-37.589 54.491-24 62.625 70.347 5.0743 111.45-26.904 118.41-90.969 5.5352-36.638 8.5242-77.094 35.625-121.34-11.802-18.878-19.776-14.925-11.281-98.5 3.1714-47.642-13.829-76.494-35.255-93.435-10.713-8.4705-16.189-40.603-27.147-43.978s-27.396 22.007-34.661 22.007zm17.844 27c5.4826 0.10535 12.529 3.468 18.875 9.5938 10.154 9.8012 14.734 22.97 10.219 29.375s-16.44 3.6449-26.594-6.1562-14.734-22.97-10.219-29.375c1.693-2.4018 4.4292-3.5007 7.7188-3.4375zm41.875 121.03c1.2014-0.25556 2.3354-0.22213 3.3125 0.15625 8.161 3.1604 2.7548 67.492-5.4062 69.406s-17.827-17.555-18.438-35.656c-0.53425-15.838 12.122-32.117 20.531-33.906zm25.594 52.156c3.1341-1.1642 11.89 12.959 13 19.281-1.2686 5.9572-18.117 34.901-17.781 27.906 0.60892-12.686 0.61572-30.465 3.8125-45.688 0.17989-0.85662 0.52102-1.3337 0.96875-1.5zm-36.156 39.281c1.2014-0.25556 2.3354-0.22213 3.3125 0.15625 8.161 3.1604 2.7548 67.492-5.4062 69.406s-17.827-17.586-18.438-35.688c-0.53426-15.839 12.122-32.086 20.531-33.875zm-41.281 133.5c4.057-0.01273 7.4946 0.92034 9.6875 2.8438 5.8476 5.1292 0.76561 15.501-11.344 23.156s-26.684 9.6915-32.531 4.5625-0.76565-15.501 11.344-23.156c7.5684-4.7846 16.082-7.3851 22.844-7.4063z" fill="url(#al)"/>
  <path d="m563.62 660.93c14.135 21.805 65.099 58.573 60.569 62.87-6.2 5.8823-32.845-12.899-68.47-53.573-3.3085-3.7775-12.716-39.777-13.192-58.405s0.36997-14.811 0.44238-23.951c10.776 4.2432 24.765 46.863 29.898 60.522-4.6117 3.3362-7.925 8.6121-9.2479 12.537z" fill="url(#bo)"/>
  <path d="m219.82 1084.1c-2.3735-0.3744-4.2148-15.22 1.1172-14.073 14.523 3.1243 76.67 28.453 93.045 44.111 32.749 31.316 81.83 85.211 101.63 124.62-33.916-36.269-71.52-76.434-104.27-107.75s-59.231-41.568-91.519-46.904z" fill="url(#bn)"/>
  <path d="m336.91 1162.9c-12.775 7.7224-22.312 19.302-22.312 49.938 0 61.272 50.849 111 107.22 111 53.833 0 93.231-42.137 94.5-75.5 0-19.758-0.64645-24.193-3-29.656-6.1593 46.548-27.462 9.1325-72.906 30.188-3.4739 1.6095-10.441-13.664-23.188-18.531s-33.89 0.785-38.562-1.6563c-7.4378-3.8862-19.424-15.892-47.562-25.469-8.0213-2.7301 14.737-34.66 5.8125-40.313zm2.4688 62.656c6.5462-0.3778 15.32 7.3314 20.875 18.938 6.3486 13.264 6.1008 26.607-0.53125 29.781s-17.151-5.0171-23.5-18.281-6.1321-26.607 0.5-29.781c0.82901-0.3968 1.7211-0.6023 2.6562-0.6563zm137.28 34.469c3.5742-0.0281 6.4676 1.0153 8.125 3.2188 4.4197 5.8759-1.5294 17.817-13.281 26.656s-24.862 11.251-29.281 5.375 1.5294-17.817 13.281-26.656c7.3449-5.5246 15.199-8.5467 21.156-8.5938z" fill="url(#bm)"/>
  <path transform="translate(-1.2686 -30.446)" d="m435.12 1302.9a31.714 31.08 0 1 1 -63.428 0 31.714 31.08 0 1 1 63.428 0z" fill="url(#j)"/>
  <path transform="translate(-1.2686)" d="m416.09 1275a13.32 13.32 0 1 1 -26.64 0 13.32 13.32 0 1 1 26.64 0z" fill-opacity=".54487"/>
  <path transform="translate(247.84 -352.37)" d="m435.12 1302.9a31.714 31.08 0 1 1 -63.428 0 31.714 31.08 0 1 1 63.428 0z" fill="url(#j)"/>
  <path transform="translate(247.84 -321.93)" d="m416.09 1275a13.32 13.32 0 1 1 -26.64 0 13.32 13.32 0 1 1 26.64 0z" fill-opacity=".54487"/>
  <path transform="translate(270.67 -568.09)" d="m435.12 1302.9a31.714 31.08 0 1 1 -63.428 0 31.714 31.08 0 1 1 63.428 0z" fill="url(#j)"/>
  <path transform="translate(270.67 -537.64)" d="m416.09 1275a13.32 13.32 0 1 1 -26.64 0 13.32 13.32 0 1 1 26.64 0z" fill-opacity=".54487"/>
  <path d="m688.7 1155.1c-5.8836-50.861-47.007-89.406-96.347-70.891 28.251-10.075 73.092 22.495 79.689 71.386 8.8059 65.264-44.037 86.364-77.015 78.968 29.848 8.0765 102-7.4493 93.673-79.463z" fill="url(#bl)"/>
  <path transform="matrix(1.1225 -.357 .32983 1.0483 -470.22 156.82)" d="m673.61 1165.9a57.085 70.405 0 1 1 -114.17 0 57.085 70.405 0 1 1 114.17 0z" fill="url(#ak)"/>
  <path d="m501.67 1054.6c0.08568-10.816 67.211-1.1482 86.344 50.683 8.9753 24.314 24.735 50.564 27.97 73.534-16.522-15.205-30.216-39.959-41.723-63.181-32.114-64.812-73.51-52.102-72.591-61.035z" fill="url(#bk)" stroke="url(#bj)" stroke-linejoin="round" stroke-width=".31619"/>
  <path transform="matrix(.54386 0 0 .86792 213.07 111.24)" d="m466.83-462.94a36.154 33.617 0 1 1 -72.308 0 36.154 33.617 0 1 1 72.308 0z" fill="url(#q)"/>
  <path transform="matrix(.99981 .019281 -.032875 .99946 0 0)" d="m315.88-500.99h12.684l-4.1566 904.64h-12.684l4.1566-904.64z" fill="url(#bi)"/>
  <path transform="matrix(.7435 0 0 .77375 37.624 -59.937)" d="m418.63-569.5a15.223 14.588 0 1 1 -30.446 0 15.223 14.588 0 1 1 30.446 0z" fill="url(#c)"/>
  <path transform="matrix(.99981 .019281 -.032875 .99946 0 0)" d="m303.74-575.24h12.684l-1.6741 980.14h-12.684l1.6741-980.14z" fill="url(#bh)"/>
  <path transform="matrix(.7435 0 0 .73456 28.995 -160.42)" d="m418.63-569.5a15.223 14.588 0 1 1 -30.446 0 15.223 14.588 0 1 1 30.446 0z" fill="url(#aj)"/>
  <path transform="matrix(.89371 0 0 .85212 -87.769 821.76)" d="m418.63-569.5a15.223 14.588 0 1 1 -30.446 0 15.223 14.588 0 1 1 30.446 0z" fill="url(#c)"/>
  <path transform="matrix(.99981 .019281 -.032875 .99946 0 0)" d="m294.03-695.83h12.684l-2.8448 1108.6h-12.684l2.8448-1108.6z" fill="url(#bg)"/>
  <path transform="matrix(.99981 .019281 -.032875 .99946 0 0)" d="m352.42-266.52s6.3639 2.8186 6.3639 6.3198l-4.2551 721.01c0 3.5012-2.8186 6.3198-6.3198 6.3198h-0.04409c-3.5012 0-6.3198-2.8186-6.3198-6.3198l4.2551-721.01c0-3.5012 2.8186-6.3198 6.3198-6.3198z" fill="url(#bf)"/>
  <path transform="matrix(.89371 0 0 .85212 -53.586 905.85)" d="m418.63-569.5a15.223 14.588 0 1 1 -30.446 0 15.223 14.588 0 1 1 30.446 0z" fill="url(#ai)"/>
  <path transform="matrix(.89371 0 0 .85212 -62.754 905.85)" d="m418.63-569.5a15.223 14.588 0 1 1 -30.446 0 15.223 14.588 0 1 1 30.446 0z" fill="url(#p)"/>
  <path transform="matrix(.89371 0 0 .85212 -73.541 906.93)" d="m418.63-569.5a15.223 14.588 0 1 1 -30.446 0 15.223 14.588 0 1 1 30.446 0z" fill="url(#ah)"/>
  <path transform="matrix(.7435 0 0 .81293 33.309 944.44)" d="m418.63-569.5a15.223 14.588 0 1 1 -30.446 0 15.223 14.588 0 1 1 30.446 0z" fill="url(#p)"/>
  <path transform="matrix(.66839 0 0 .73456 52.95 -267.21)" d="m418.63-569.5a15.223 14.588 0 1 1 -30.446 0 15.223 14.588 0 1 1 30.446 0z" fill="url(#ag)"/>
  <path d="m475-489c-2.6936 10.294-10.146 13.605-13.899 9.502-3.0637-3.3488-2.1406-58.192 0.7474-59.511 5.2551-2.3998 11.054 1.2587 13.474 9.9142 3.6757 13.147 3.041 27.243-0.32193 40.095z" fill="url(#af)"/>
  <path d="m442.34-734.36c6.6308-30.072 17.983-57.141 10.746-97.687 2.9394 49.989-38.829 92.843-51.28 99.95-49.835 28.443-75.236 18.8-51.995 11.526 44.166-13.823 133.94-87.567 68.849-156.22-16.932-17.858-28.439 4.0049-41.417-8.3818-13.368-12.759 17.258-23.359-14.104-41.957-42.78-25.368-149.06-45.979-149.31-59.177-0.12528-6.6827 15.917-1.105 56.41 11.627s105.44 32.619 145.19 72.376c66.093 66.093 55.971 127.88 26.906 167.94z" fill="url(#ae)"/>
  <path transform="rotate(14.767)" d="m-28.013-1017.6a26.732 11.138 0 0 1 26.732 11.138 26.732 11.138 0 0 1 -26.732 11.138 26.732 11.138 0 0 1 -26.732 -11.138 26.732 11.138 0 0 1 26.732 -11.138" fill="url(#be)"/>
  <path d="m259.71 488.6c-0.83199 18.164-1.3647 28.374-16.736 28.374s-11.686-18.271-11.686-28.374c0-77.775 1.3647-105.14 16.736-105.14 3.8428 0 29.962-11.454 30.531-4.6889l-0.25642 6.1845c-30.75 3.7694-31.542 31.09-15.638 39.204l-2.9515 64.437z" fill="url(#bd)"/>
  <path d="m296.95 433.21c0 5.436-4.7949 67.001-8.5791 83.695-4.0016 17.653-17.854 10.755-23.305 15.867l-3.0701 44.111c-1.0352 14.873-13.91 22.982-16.558 22.982-10.593 0-16.611-6.5434-16.161-22.221l1.5827-55.121c-0.97056-4.2848 20.838-2.8315 28.311-3.9343 20.177-2.9778 22-2.5572 27.679-85.38h10.1z" fill="url(#bc)"/>
  <path d="m301.99 427.56c0 5.436 0.25526 162.95-3.5289 179.65-4.0016 17.653-26.945 4.6948-32.395 9.8071l-3.0701 44.111c-1.0352 14.873-13.91 22.982-16.558 22.982-10.593 0-16.611-6.5434-16.161-22.221l1.5827-55.121c-0.97056-4.2848 20.838-2.8315 28.311-3.9343 20.177-2.9778 26.04 5.5231 31.719-77.3l10.1-97.973z" fill="url(#bb)"/>
  <path d="m321.19 944.79c0 4.1118-2.9733 8.9438-10.041 8.5327-4.8618-0.28281-0.73815-13.482-8.4016-16.758-9.3443-3.9949-34.804-6.3491-41.916-5.0304-8.5994 1.5944-6.8154 16.791-8.3244 15.781-25.227-29.291-43.654-40.137-19.191-36.866 8.0041 1.07 26.285-12.625 47.472-12.625s40.401 30.519 40.401 46.967z" fill="url(#t)"/>
  <path d="m305.68 940.37c1.1185 6.0301 4.6435 12.51 0.35711 13.008-15.385 1.7855-39.258-1.2332-48.543-4.5093-5.7835-2.0407-2.7197-11.221 0.82624-15.446 3.0452-3.6285 46.288 1.1719 47.36 6.9477z" fill="url(#s)"/>
  <g transform="matrix(.98249 .18634 .18634 -.98249 -174.03 1838.6)">
   <path d="m322.18 945.34c0 4.1118-3.9593 8.3934-11.027 7.9822-4.8618-0.28281-0.73815-13.482-8.4016-16.758-9.3443-3.9949-34.804-6.3491-41.916-5.0304-8.5994 1.5944-6.8154 16.791-8.3244 15.781-9.3538-24.827-25.763-30.44-11.17-33.164 20.57-3.8395 26.6-16.2 50.109-15.033 21.16 1.0508 35.804 26.013 30.729 46.223z" fill="url(#t)"/>
   <path d="m305.68 940.37c1.1185 6.0301 4.6435 12.51 0.35711 13.008-15.385 1.7855-39.258-1.2332-48.543-4.5093-5.7835-2.0407-2.7197-11.221 0.82624-15.446 3.0452-3.6285 46.288 1.1719 47.36 6.9477z" fill="url(#s)"/>
  </g>
  <path d="m518.61 811.99c14.135 21.805 98.582 119.46 94.053 123.76-6.2 5.8823-70.268-75.693-105.89-116.37-6.617-7.555-7.9172-21.444 2.4734-20.83 9.8 0.57853 12.012 5.5858 9.3662 13.436z" fill="url(#ba)"/>
  <path transform="matrix(.99981 .019281 -.032875 .99946 0 0)" d="m503.39 98.752 12.681 0.24456 2.6055 136.31-12.681-0.24456-2.6055-136.31z" fill="url(#az)"/>
  <path transform="matrix(.73713 0 0 .76488 238.22 533.8)" d="m418.63-569.5a15.223 14.588 0 1 1 -30.446 0 15.223 14.588 0 1 1 30.446 0z" fill="url(#g)"/>
  <path transform="matrix(.73713 0 0 .76488 229.65 533.8)" d="m418.63-569.5a15.223 14.588 0 1 1 -30.446 0 15.223 14.588 0 1 1 30.446 0z" fill="url(#g)"/>
  <path transform="matrix(.73713 0 0 .76488 219.36 533.8)" d="m418.63-569.5a15.223 14.588 0 1 1 -30.446 0 15.223 14.588 0 1 1 30.446 0z" fill="url(#g)"/>
  <path transform="matrix(.73713 0 0 .76488 210.21 534.94)" d="m418.63-569.5a15.223 14.588 0 1 1 -30.446 0 15.223 14.588 0 1 1 30.446 0z" fill="url(#g)"/>
  <path transform="matrix(.73713 0 0 .76488 206.78 687)" d="m418.63-569.5a15.223 14.588 0 1 1 -30.446 0 15.223 14.588 0 1 1 30.446 0z" fill="url(#g)"/>
  <path transform="matrix(.89371 0 0 .85212 -4.3054 366.75)" d="m418.63-569.5a15.223 14.588 0 1 1 -30.446 0 15.223 14.588 0 1 1 30.446 0z" fill="url(#c)"/>
  <path transform="matrix(.89371 0 0 .85212 -125.5 1309.9)" d="m418.63-569.5a15.223 14.588 0 1 1 -30.446 0 15.223 14.588 0 1 1 30.446 0z" fill="url(#c)"/>
  <path transform="matrix(.89371 0 0 .85212 -126.64 1367.1)" d="m418.63-569.5a15.223 14.588 0 1 1 -30.446 0 15.223 14.588 0 1 1 30.446 0z" fill="url(#ad)"/>
  <path transform="matrix(.89371 0 0 .85212 -135.79 1633)" d="m418.63-569.5a15.223 14.588 0 1 1 -30.446 0 15.223 14.588 0 1 1 30.446 0z" fill="url(#c)"/>
  <path d="m344.14 658.48c0 10.335-1.8535 42.182-9.1569 65.999s-20.057 39.604-28.136 49.831c-7.0955 8.9815-23.102 4.7923-26.733-2.0677-7.6768-14.503 22.109-56.478 25.153-69.172 3.3389-13.921 8.2882-28.875 10.29-45.162 1.5458-12.577 28.583-8.7534 28.583 0.57167z" fill="url(#ay)"/>
  <path transform="matrix(.75159 0 0 .85212 209.22 1563.8)" d="m418.63-569.5a15.223 14.588 0 1 1 -30.446 0 15.223 14.588 0 1 1 30.446 0z" fill="url(#c)"/>
  <path transform="matrix(.89371 0 0 .85212 112.95 882.84)" d="m418.63-569.5a15.223 14.588 0 1 1 -30.446 0 15.223 14.588 0 1 1 30.446 0z" fill="url(#c)"/>
  <path transform="matrix(.68053 0 0 .70382 197.87 754.03)" d="m418.63-569.5a15.223 14.588 0 1 1 -30.446 0 15.223 14.588 0 1 1 30.446 0z" fill="url(#c)"/>
  <path transform="matrix(.89371 0 0 .85212 200.17 918.85)" d="m418.63-569.5a15.223 14.588 0 1 1 -30.446 0 15.223 14.588 0 1 1 30.446 0z" fill="url(#c)"/>
  <path d="m349.04-708.35h86.811c4.4298 0 32.473 3.5662 32.473 7.9961v26.435c0 4.4298-28.043 7.9961-32.473 7.9961h-86.811c-4.4298 0-7.9961-3.5662-7.9961-7.9961v-26.435c0-4.4298 3.5662-7.9961 7.9961-7.9961z" fill="url(#ax)"/>
  <path transform="translate(-6.5272 -9.7908)" d="m505.86-680.61a15.502 21.213 0 1 1 -31.004 0 15.502 21.213 0 1 1 31.004 0z" fill="url(#aw)" stroke="url(#av)" stroke-linejoin="round" stroke-width="5.099"/>
  <path d="m88.615-1006.8c-24.725-15.649-44.353 40.073-9.2391 43.391-6.0997 12.326-18.039 20.1-80.954-4.4635s-206.46-89.981-205.79-97.668c1.7368-19.929 108.23 22.975 162-12.98 15.015-10.04 36.784 4.5831 81.019 18.475 25.727 8.0797 60.659 32.67 52.967 53.246z" fill="url(#au)"/>
  <path d="m-3.2467-1080.1 31.847 11.262c4.2996 1.4289 8.707 7.5559 5.3373 8.3305-26.48 6.0872-42.799 50.786-37.78 88.372 0.45766 3.4272-5.8852 4.6009-10.185 3.172l-29.815-10.246c-4.2996-1.4289-4.1263-5.6858-6.3534-8.3305-11.116-13.2 6.2192-72.124 36.763-89.388 3.0102-1.7014 5.8852-4.601 10.185-3.1721z" fill="url(#ac)"/>
 </g>
</svg>
